<svg width="214" height="150" viewBox="0 0 214 150" fill="none" xmlns="http://www.w3.org/2000/svg">
<g id="Group">
<path id="Vector" d="M113.841 114.538H11.8096C8.85354 114.538 6.44812 112.132 6.44812 109.176V47.8545H186.549V53.8793C186.549 55.6598 187.992 57.103 189.773 57.103C191.553 57.103 192.997 55.6598 192.997 53.8793V11.7979C192.997 5.29258 187.704 0 181.199 0H11.8096C5.29759 0 0 5.29258 0 11.7979V109.176C0 115.688 5.29759 120.986 11.8096 120.986H113.841C114.268 120.99 114.691 120.911 115.086 120.751C115.481 120.591 115.841 120.354 116.144 120.054C116.448 119.754 116.688 119.397 116.853 119.004C117.017 118.61 117.102 118.188 117.102 117.761C117.102 117.335 117.017 116.913 116.853 116.519C116.688 116.126 116.447 115.769 116.144 115.469C115.841 115.169 115.481 114.932 115.086 114.773C114.69 114.613 114.267 114.533 113.841 114.538ZM6.44812 41.4068V27.1509H186.549V41.4068H6.44812ZM11.8096 6.4477H181.199C184.149 6.4477 186.549 8.84769 186.549 11.7979V20.7032H6.44812V11.7979C6.44812 8.84769 8.85312 6.4477 11.8096 6.4477ZM21.6638 65.0026C18.8146 65.0026 16.4964 67.3208 16.4964 70.17V92.2337C16.4964 95.0828 18.8146 97.401 21.6638 97.401H58.3608C61.2104 97.401 63.5285 95.0828 63.5285 92.2337V70.17C63.5285 67.3208 61.2104 65.0026 58.3608 65.0026H21.6638ZM57.0804 90.9533H22.9446V71.4499H57.0804V90.9533ZM123.993 71.4503H77.7043C77.2766 71.4572 76.8518 71.3789 76.4547 71.22C76.0575 71.0611 75.696 70.8247 75.3911 70.5247C75.0862 70.2247 74.8441 69.867 74.6788 69.4724C74.5135 69.0779 74.4284 68.6544 74.4284 68.2267C74.4284 67.7989 74.5135 67.3754 74.6788 66.9809C74.8441 66.5864 75.0862 66.2287 75.3911 65.9286C75.696 65.6286 76.0575 65.3923 76.4547 65.2334C76.8518 65.0744 77.2766 64.9961 77.7043 65.003H123.993C124.42 64.9961 124.845 65.0744 125.242 65.2334C125.639 65.3923 126.001 65.6286 126.306 65.9286C126.611 66.2287 126.853 66.5864 127.018 66.9809C127.183 67.3754 127.268 67.7989 127.268 68.2267C127.268 68.6544 127.183 69.0779 127.018 69.4724C126.853 69.867 126.611 70.2247 126.306 70.5247C126.001 70.8247 125.639 71.0611 125.242 71.22C124.845 71.3789 124.42 71.4572 123.993 71.4503ZM112.355 90.9533C112.783 90.9464 113.207 91.0247 113.605 91.1836C114.002 91.3425 114.363 91.5789 114.668 91.8789C114.973 92.179 115.215 92.5367 115.38 92.9312C115.546 93.3257 115.631 93.7492 115.631 94.177C115.631 94.6047 115.546 95.0282 115.38 95.4227C115.215 95.8173 114.973 96.1749 114.668 96.475C114.363 96.775 114.002 97.0114 113.605 97.1703C113.207 97.3292 112.783 97.4075 112.355 97.4006H77.7043C77.2766 97.4075 76.8518 97.3292 76.4547 97.1703C76.0575 97.0114 75.696 96.775 75.3911 96.475C75.0862 96.1749 74.8441 95.8173 74.6788 95.4227C74.5135 95.0282 74.4284 94.6047 74.4284 94.177C74.4284 93.7492 74.5135 93.3257 74.6788 92.9312C74.8441 92.5367 75.0862 92.179 75.3911 91.8789C75.696 91.5789 76.0575 91.3425 76.4547 91.1836C76.8518 91.0247 77.2766 90.9464 77.7043 90.9533H112.355ZM165.937 55.2282C139.808 55.2282 118.55 76.4857 118.55 102.614C118.55 128.743 139.808 150 165.937 150C192.066 150 213.323 128.743 213.323 102.614C213.323 76.4857 192.066 55.2282 165.937 55.2282ZM165.937 143.552C143.363 143.552 124.999 125.187 124.999 102.614C124.999 80.0409 143.363 61.6759 165.937 61.6759C188.51 61.6759 206.875 80.0409 206.875 102.614C206.875 125.188 188.51 143.552 165.937 143.552ZM168.289 75.8671C168.031 75.4791 167.682 75.1609 167.271 74.9408C166.861 74.7207 166.402 74.6056 165.937 74.6057C165.471 74.6057 165.012 74.721 164.602 74.9413C164.192 75.1615 163.842 75.4798 163.585 75.8679L144.939 103.956C144.656 104.382 144.495 104.876 144.471 105.386C144.447 105.896 144.562 106.403 144.803 106.853C145.044 107.303 145.403 107.679 145.841 107.941C146.279 108.203 146.78 108.342 147.291 108.342H157.214V127.788C157.214 128.158 157.287 128.526 157.429 128.868C157.571 129.211 157.779 129.522 158.041 129.784C158.303 130.047 158.615 130.255 158.957 130.396C159.3 130.538 159.667 130.611 160.038 130.611H171.847C172.596 130.611 173.315 130.314 173.844 129.784C174.374 129.255 174.671 128.537 174.671 127.788V108.342H184.594C185.105 108.342 185.606 108.203 186.044 107.941C186.482 107.679 186.841 107.303 187.083 106.853C187.324 106.403 187.439 105.896 187.415 105.386C187.391 104.875 187.229 104.381 186.947 103.956L168.289 75.8671ZM171.847 102.694C171.098 102.694 170.38 102.992 169.85 103.521C169.321 104.051 169.023 104.769 169.023 105.518V124.964H162.862V105.518C162.862 104.769 162.564 104.051 162.035 103.521C161.505 102.992 160.787 102.694 160.038 102.694H152.555L165.938 82.5344L179.329 102.694H171.847Z" fill="#D3BD82"/>
</g>
</svg>
