<svg width="58" height="38" viewBox="0 0 58 38" fill="none" xmlns="http://www.w3.org/2000/svg">
<g id="Group">
<path id="Vector" d="M49.8581 11.0365C49.9503 10.9191 50.0398 10.7118 50.0433 10.4924C50.0463 10.3131 50.0009 10.1162 49.8811 9.94964L43.1585 0.567864C43.0015 0.348284 42.6984 0.176931 42.3712 0.195597L15.5322 0.189453C15.2344 0.189453 14.9385 0.36834 14.7965 0.567052L8.07392 9.94268C7.84796 10.2574 7.86581 10.7426 8.09687 11.0366L28.2647 36.7563C28.4087 36.9394 28.7092 37.1029 28.9775 37.1029C29.2483 37.1029 29.5544 36.929 29.6903 36.7563L49.8581 11.0365ZM28.9795 2.65248L33.9367 9.57042L24.0222 9.56601L28.9795 2.65248ZM34.9537 11.3832L28.9775 32.8245L23.0013 11.3832H34.9537ZM36.8331 11.3832H47.2847L31.0698 32.062L36.8331 11.3832ZM37.4675 9.56589L42.4246 2.65248L47.3819 9.57042L37.4675 9.56589ZM40.6554 2.0058L35.6982 8.91921L30.7409 2.00139L40.6554 2.0058ZM27.2101 2.0058L22.253 8.91921L17.2957 2.00128L27.2101 2.0058ZM15.5322 2.64959L20.4916 9.5703L10.573 9.56589L15.5322 2.64959ZM21.1219 11.3832L26.8852 32.0618L10.6703 11.3832H21.1219ZM57.0494 9.57204H55.8052C55.3047 9.57204 54.8997 9.97712 54.8997 10.4776C54.8997 10.9781 55.3047 11.3832 55.8052 11.3832H57.0494C57.5499 11.3832 57.955 10.9781 57.955 10.4776C57.955 9.97712 57.5499 9.57204 57.0494 9.57204ZM3.05534 10.4776C3.0554 10.3587 3.03202 10.2409 2.98653 10.131C2.94105 10.0211 2.87434 9.92124 2.79024 9.83714C2.70614 9.75304 2.60629 9.68634 2.49639 9.64085C2.3865 9.59536 2.26871 9.57198 2.14978 9.57204H0.905565C0.405076 9.57204 0 9.97712 0 10.4776C0 10.9781 0.405076 11.3832 0.905565 11.3832H2.14978C2.26872 11.3832 2.38651 11.3599 2.49641 11.3144C2.60631 11.2689 2.70617 11.2022 2.79028 11.1181C2.87438 11.034 2.94108 10.9341 2.98656 10.8242C3.03205 10.7143 3.05542 10.5965 3.05534 10.4776ZM52.465 17.4098C52.3907 17.5026 52.3353 17.6091 52.3022 17.7233C52.269 17.8374 52.2586 17.957 52.2717 18.0752C52.2848 18.1934 52.321 18.3078 52.3783 18.412C52.4356 18.5161 52.5129 18.608 52.6057 18.6823L53.5766 19.4596C53.9659 19.7727 54.5374 19.7095 54.8491 19.319C54.9235 19.2262 54.9788 19.1197 55.012 19.0056C55.0452 18.8914 55.0555 18.7718 55.0425 18.6536C55.0294 18.5355 54.9932 18.421 54.9359 18.3168C54.8786 18.2127 54.8013 18.1208 54.7085 18.0465L53.7375 17.2692C53.3467 16.9544 52.7773 17.0199 52.465 17.4098ZM5.34934 2.27291L4.37839 1.49476C3.98838 1.18255 3.41798 1.24446 3.10589 1.63539C3.03144 1.72812 2.97602 1.83463 2.9428 1.94881C2.90957 2.063 2.89919 2.18261 2.91225 2.30081C2.92532 2.41901 2.96157 2.53347 3.01892 2.63764C3.07628 2.74181 3.15362 2.83365 3.24652 2.90789L4.21747 3.68604C4.6106 4.00011 5.17973 3.93402 5.48997 3.54541C5.56441 3.45268 5.61983 3.34617 5.65306 3.23199C5.68628 3.11781 5.69666 2.99819 5.6836 2.87999C5.67054 2.76179 5.63429 2.64733 5.57693 2.54316C5.51958 2.43899 5.44223 2.34716 5.34934 2.27291ZM54.8492 1.63527C54.538 1.24446 53.9685 1.18255 53.5767 1.49464L52.6058 2.2728C52.5129 2.34704 52.4356 2.43887 52.3782 2.54305C52.3208 2.64722 52.2846 2.76168 52.2715 2.87988C52.2585 2.99808 52.2688 3.11769 52.3021 3.23187C52.3353 3.34605 52.3907 3.45256 52.4652 3.5453C52.7753 3.93368 53.3442 4.00034 53.7377 3.68592L54.7086 2.90777C54.8015 2.83353 54.8788 2.74169 54.9362 2.63752C54.9936 2.53335 55.0298 2.41889 55.0429 2.30069C55.0559 2.18249 55.0456 2.06288 55.0123 1.9487C54.9791 1.83452 54.9237 1.72801 54.8492 1.63527ZM4.21735 17.2693L3.2464 18.0474C3.1535 18.1217 3.07616 18.2135 3.01881 18.3177C2.96145 18.4219 2.9252 18.5363 2.91214 18.6545C2.89908 18.7727 2.90946 18.8923 2.94268 19.0065C2.97591 19.1207 3.03133 19.2272 3.10577 19.3199C3.4159 19.7083 3.98479 19.775 4.37827 19.4606L5.34922 18.6824C5.44212 18.6082 5.51946 18.5163 5.57682 18.4122C5.63417 18.308 5.67042 18.1935 5.68348 18.0753C5.69655 17.9571 5.68617 17.8375 5.65294 17.7233C5.61972 17.6092 5.56429 17.5027 5.48985 17.4099C5.17857 17.0199 4.6091 16.9571 4.21735 17.2693Z" fill="#BEA86D"/>
</g>
</svg>
