<svg width="69" height="70" viewBox="0 0 69 70" fill="none" xmlns="http://www.w3.org/2000/svg">
<path d="M44.2765 48.6326L37.2741 43.3008C37.1257 43.1878 36.9486 43.1185 36.7629 43.1008C36.5771 43.083 36.3901 43.1175 36.2229 43.2003C36.0557 43.2832 35.915 43.4111 35.8166 43.5696C35.7182 43.7282 35.6661 43.911 35.6661 44.0976V46.0659H25.5788C24.7083 46.0659 24.0001 46.7741 24.0001 47.6445V51.2143C24.0001 52.0847 24.7083 52.7928 25.5788 52.7928H35.6661V54.7611C35.6661 54.9477 35.7182 55.1306 35.8166 55.2891C35.915 55.4477 36.0557 55.5755 36.2229 55.6584C36.3901 55.7412 36.5771 55.7757 36.7629 55.758C36.9486 55.7402 37.1257 55.6709 37.2741 55.5579L44.2765 50.2261C44.3992 50.1327 44.4986 50.0121 44.5671 49.8739C44.6355 49.7357 44.6711 49.5836 44.6711 49.4294C44.6711 49.2751 44.6355 49.123 44.5671 48.9848C44.4986 48.8466 44.3992 48.7261 44.2765 48.6326ZM37.6688 52.74V51.7915C37.6688 51.5259 37.5633 51.2712 37.3755 51.0834C37.1877 50.8956 36.933 50.7901 36.6675 50.7901H26.003V48.0688H36.6675C36.933 48.0688 37.1877 47.9633 37.3755 47.7755C37.5633 47.5877 37.6688 47.333 37.6688 47.0674V46.1189L42.0168 49.4296L37.6688 52.74ZM42.6028 58.9398H32.5155V56.9715C32.5155 56.7849 32.4633 56.602 32.365 56.4435C32.2666 56.2849 32.1259 56.157 31.9587 56.0742C31.7915 55.9914 31.6045 55.9569 31.4187 55.9746C31.233 55.9924 31.0559 56.0616 30.9074 56.1746L23.9051 61.5065C23.7824 61.5999 23.6829 61.7205 23.6144 61.8587C23.546 61.9969 23.5104 62.1491 23.5104 62.3033C23.5104 62.4575 23.546 62.6097 23.6144 62.7479C23.6829 62.8861 23.7824 63.0067 23.9051 63.1001L30.9074 68.4319C31.0559 68.545 31.233 68.6143 31.4188 68.6321C31.6045 68.6499 31.7916 68.6154 31.9587 68.5325C32.1259 68.4496 32.2666 68.3217 32.365 68.1631C32.4634 68.0046 32.5155 67.8217 32.5155 67.6351V65.6707H42.6028C43.4733 65.6707 44.1814 64.9608 44.1814 64.0883V60.5185C44.1814 59.6479 43.4733 58.9398 42.6028 58.9398ZM42.1787 63.6677H31.5143C31.2487 63.6677 30.994 63.7732 30.8062 63.961C30.6184 64.1488 30.5129 64.4035 30.5129 64.6691V65.6138L26.165 62.3032L30.5129 58.9925V59.941C30.5129 60.2066 30.6184 60.4613 30.8062 60.6491C30.994 60.8369 31.2487 60.9424 31.5143 60.9424H42.1787V63.6677ZM63.9172 56.6305C65.2716 55.2384 66.1082 53.3401 66.1082 51.2491V50.6681C66.1082 48.086 65.2807 45.8919 63.7152 44.3229C62.3133 42.9177 60.4265 42.125 58.4022 42.0906H58.3683C56.3441 42.1249 54.4572 42.9177 53.0553 44.3229C51.4897 45.8919 50.6622 48.0861 50.6622 50.6681V51.2491C50.6622 53.3406 51.4991 55.2392 52.854 56.6314C50.1973 57.8915 48.414 60.594 48.414 63.6445V67.7307C48.414 68.6703 49.1784 69.4346 50.118 69.4346H56.3876C56.6532 69.4346 56.9079 69.3291 57.0957 69.1413C57.2835 68.9536 57.389 68.6989 57.389 68.4333C57.389 68.1677 57.2835 67.913 57.0957 67.7252C56.9079 67.5374 56.6532 67.4319 56.3876 67.4319H50.4168V63.6446C50.4168 61.001 52.2222 58.7096 54.7575 58.0648C55.8734 58.6618 57.1196 58.9736 58.3851 58.9723C59.6961 58.9723 60.9313 58.643 62.014 58.0642C64.5484 58.7077 66.3534 60.9996 66.3534 63.6445V67.4318H61.0243C60.7588 67.4318 60.5041 67.5373 60.3163 67.7251C60.1285 67.9129 60.023 68.1676 60.023 68.4331C60.023 68.6987 60.1285 68.9534 60.3163 69.1412C60.5041 69.329 60.7588 69.4345 61.0243 69.4345H66.6523C67.5919 69.4345 68.3562 68.6701 68.3562 67.7306V63.6443C68.3562 60.5931 66.5733 57.8899 63.9172 56.6305ZM58.3853 44.0936C60.9963 44.1458 63.7897 46.0108 64.0804 49.9768C62.4897 50.3926 60.4014 49.862 58.3739 49.3468C56.9185 48.9769 55.4384 48.601 54.1192 48.601C53.6847 48.601 53.2676 48.6418 52.8747 48.737C53.5966 45.62 56.063 44.1399 58.3853 44.0936ZM58.3853 56.9695C55.2312 56.9695 52.6651 54.4033 52.6651 51.2493V51.0466C53.5306 50.2639 55.3225 50.6381 57.8807 51.2881C59.4615 51.6897 61.1748 52.125 62.7988 52.125C63.224 52.125 63.6425 52.0928 64.0514 52.0247C63.6714 54.8132 61.2761 56.9695 58.3853 56.9695ZM19.6661 39.6419H32.1712C32.4367 39.6419 32.6915 39.5364 32.8792 39.3486C33.067 39.1608 33.1725 38.9061 33.1725 38.6406C33.1725 38.375 33.067 38.1203 32.8792 37.9325C32.6915 37.7447 32.4367 37.6392 32.1712 37.6392H20.151V33.4722C20.151 30.6092 20.8585 28.6684 22.3777 27.3642C23.481 26.417 24.9624 25.8348 26.5819 25.3137L28.494 30.3169C28.5491 30.4612 28.6369 30.5907 28.7504 30.6955C28.8639 30.8002 29.0001 30.8773 29.1483 30.9206C29.2965 30.964 29.4528 30.9725 29.6048 30.9454C29.7569 30.9184 29.9006 30.8565 30.0248 30.7647L34.1766 27.6956L38.332 30.7649C38.4563 30.8567 38.6001 30.9185 38.7523 30.9454C38.9045 30.9723 39.0608 30.9637 39.209 30.9202C39.3573 30.8766 39.4935 30.7994 39.6069 30.6944C39.7204 30.5895 39.808 30.4597 39.8629 30.3153L41.7663 25.3115C43.3888 25.8331 44.8732 26.4156 45.978 27.3638C47.4975 28.6679 48.2054 30.6088 48.2054 33.472V37.639H36.8118C36.5462 37.639 36.2915 37.7446 36.1037 37.9324C35.9159 38.1201 35.8104 38.3748 35.8104 38.6404C35.8104 38.906 35.9159 39.1607 36.1037 39.3485C36.2915 39.5363 36.5462 39.6418 36.8118 39.6418H48.6903C49.5273 39.6418 50.2082 38.9609 50.2082 38.1238V33.4719C50.2082 26.3829 46.2312 24.6145 42.0606 23.3029C41.7029 23.1905 39.9969 22.6721 39.4993 22.5114V19.192C41.3512 17.4883 42.6247 15.1395 42.6247 13.0446V8.45357C42.6247 5.53758 40.4347 2.90745 37.0457 1.75294C34.0877 0.745433 31.1463 1.21127 29.5559 2.89838C27.9258 3.19011 25.6515 4.48761 25.7305 9.46882C25.7312 9.51355 25.7318 13.0449 25.7318 13.0449C25.7318 15.1386 27.0037 17.4863 28.8534 19.19V22.5118C28.3557 22.6726 26.4169 23.2621 25.9449 23.4143C21.9054 24.7178 18.1483 26.581 18.1483 33.472V38.124C18.1483 38.961 18.8292 39.6419 19.6661 39.6419ZM34.1763 25.2018L30.8562 22.7307V20.6371C31.2168 20.8341 31.5865 21.0061 31.9634 21.146C32.7703 21.4451 33.4734 21.5844 34.1762 21.5844C34.8835 21.5844 35.5873 21.4449 36.3888 21.146C36.7657 21.0062 37.1356 20.8344 37.4962 20.6377V22.7307L34.1763 25.2018ZM39.8485 24.7199L38.4602 28.3696L35.8575 26.4472L38.6759 24.3496C39.0693 24.4785 39.4614 24.6012 39.8485 24.7199ZM30.1559 4.83702C30.2937 4.82482 30.4274 4.78419 30.5487 4.71771C30.6701 4.65123 30.7763 4.56034 30.8607 4.45076C31.8271 3.19692 34.1047 2.867 36.3997 3.64873C38.3475 4.31217 40.6218 5.96857 40.6218 8.45343V10.9876H39.7738C38.0023 10.9876 36.5991 10.3058 35.2422 9.64653C34.1189 9.10085 32.9712 8.54316 31.7673 8.54316C31.1036 8.54316 30.4229 8.71259 29.72 9.14691C28.5867 9.84627 28.445 9.95215 27.8822 10.3972L27.7346 10.5138V9.57764C27.7346 9.54212 27.7339 9.49486 27.733 9.43704C27.6869 6.53121 28.5022 4.98362 30.1559 4.83702ZM27.7346 13.0448V13.038C28.203 12.6879 28.6663 12.3313 29.1246 11.9681C29.6137 11.5813 29.7018 11.5116 30.7722 10.851C31.7674 10.2361 32.6892 10.6329 34.3667 11.4479C35.781 12.1351 37.5414 12.9904 39.7737 12.9904H40.6217V13.0448C40.6217 15.3451 38.2722 18.3114 35.6908 19.2687C35.1184 19.4822 34.6371 19.5816 34.1762 19.5816C33.7185 19.5816 33.2366 19.482 32.6601 19.2682C30.0823 18.311 27.7346 15.3447 27.7346 13.0448ZM29.6767 24.3496L32.4953 26.4475L29.8943 28.3703L28.4998 24.7214C28.8883 24.6024 29.2819 24.4792 29.6767 24.3496ZM15.5036 56.785C16.8577 55.393 17.694 53.4949 17.694 51.4041V50.8231C17.694 48.2391 16.8665 46.044 15.301 44.4749C13.8987 43.0694 12.0115 42.2777 9.98698 42.2456C9.97639 42.2455 9.9658 42.2455 9.95521 42.2456C7.93071 42.2777 6.04359 43.0694 4.64114 44.4749C3.07567 46.044 2.24814 48.2391 2.24814 50.8231V51.4041C2.24814 53.4945 3.08422 55.3921 4.43766 56.784C1.78244 58.0459 0 60.7481 0 63.7957V67.8857C0.000133516 68.8231 0.764512 69.5858 1.70406 69.5858H7.96983C8.23541 69.5858 8.49011 69.4803 8.6779 69.2925C8.86569 69.1047 8.9712 68.85 8.9712 68.5844C8.9712 68.3188 8.86569 68.0641 8.6779 67.8763C8.49011 67.6885 8.23541 67.583 7.96983 67.583H2.003V63.7957C2.003 61.156 3.806 58.8654 6.33813 58.2169C7.45539 58.8158 8.7036 59.1285 9.97123 59.1272C11.2384 59.1285 12.4862 58.8159 13.6031 58.2174C16.1362 58.867 17.9395 61.1569 17.9395 63.7956V67.5829H12.6104C12.3449 67.5829 12.0902 67.6884 11.9024 67.8762C11.7146 68.064 11.6091 68.3187 11.6091 68.5843C11.6091 68.8499 11.7146 69.1046 11.9024 69.2924C12.0902 69.4801 12.3449 69.5856 12.6104 69.5856H18.2384C19.1778 69.5856 19.9422 68.823 19.9422 67.8855V63.7955C19.9422 60.749 18.1595 58.0473 15.5036 56.785ZM9.9711 44.2485C12.582 44.2971 15.3755 46.1607 15.6663 50.1312C14.0759 50.5454 11.9887 50.0154 9.96215 49.501C8.50656 49.1314 7.02627 48.7556 5.7066 48.7556C5.27134 48.7556 4.8537 48.7964 4.46023 48.892C5.18175 45.771 7.64859 44.2917 9.9711 44.2485ZM9.9711 57.1245C6.81705 57.1245 4.25101 54.5583 4.25101 51.4041V51.2015C5.11726 50.4181 6.91011 50.7924 9.46934 51.4422C11.05 51.8435 12.7633 52.2785 14.3871 52.2785C14.8114 52.2785 15.2291 52.2465 15.6374 52.1787C15.2579 54.9677 12.8624 57.1245 9.9711 57.1245Z" fill="#D3BC80"/>
<path d="M15.5801 1L53.5801 33" stroke="#C1A761" stroke-width="2" stroke-linecap="round"/>
<path d="M53.5801 1L15.5801 33" stroke="#C1A761" stroke-width="2" stroke-linecap="round"/>
</svg>
