<svg width="48" height="48" viewBox="0 0 48 48" fill="none" xmlns="http://www.w3.org/2000/svg">
<g id="Group">
<path id="Vector" d="M5.89502 38.0096C5.45439 38.0096 5.16064 37.7159 5.16064 37.2753V32.0612C5.16064 31.6206 5.45439 31.3268 5.89502 31.3268C6.33565 31.3268 6.6294 31.6206 6.6294 32.0612V37.2753C6.6294 37.7159 6.33565 38.0096 5.89502 38.0096ZM10.8153 23.8362C7.65752 23.8362 5.16064 20.0909 5.16064 17.0065C5.16064 13.9221 7.73096 11.3518 10.8153 11.3518C13.8997 11.3518 16.47 13.9221 16.47 17.0065C16.47 20.0909 13.9732 23.8362 10.8153 23.8362ZM10.8153 12.8206C8.53877 12.8206 6.6294 14.7299 6.6294 17.0065C6.6294 19.3565 8.61221 22.3674 10.8153 22.3674C13.0185 22.3674 15.0013 19.3565 15.0013 17.0065C15.0013 14.7299 13.0919 12.8206 10.8153 12.8206Z" fill="#BEA86D"/>
<path id="Vector_2" d="M6.11514 19.2095C5.96826 19.2095 5.82139 19.1361 5.67451 19.0626C5.30733 18.8423 5.23389 18.4017 5.4542 18.0345L7.2167 15.4642C7.36358 15.3173 7.51045 15.1705 7.73076 15.1705C7.95108 15.1705 8.17139 15.1705 8.31827 15.3173C8.46514 15.3908 9.64014 16.272 10.962 15.3173C11.9167 14.6564 13.1651 14.4361 14.2667 14.8767C15.3683 15.3173 16.1761 16.272 16.3964 17.5205C16.4698 17.8876 16.2495 18.3283 15.8089 18.4017C15.4417 18.4751 15.0011 18.2548 14.9276 17.8142C14.7808 17.0798 14.3401 16.4923 13.6792 16.272C13.0917 16.0517 12.3573 16.1251 11.8433 16.4923C10.448 17.5205 9.05264 17.3001 8.09795 16.8595L6.70264 18.8423C6.55576 19.0626 6.33545 19.2095 6.11514 19.2095ZM6.11514 26.7736H6.0417C5.60108 26.7736 5.30733 26.4798 5.30733 26.0392C5.30733 25.5986 5.60108 25.3048 6.0417 25.3048H6.11514C6.55576 25.3048 6.92295 25.158 7.2167 24.8642C7.51045 24.5705 7.65733 24.2033 7.65733 23.7626V22.147C7.65733 21.7064 7.95108 21.4126 8.3917 21.4126C8.83233 21.4126 9.12608 21.7064 9.12608 22.147V23.7626C9.12608 24.6439 8.83233 25.3048 8.24483 25.8923C7.65733 26.4798 6.99639 26.7736 6.11514 26.7736ZM2.66357 37.9361C2.22295 37.9361 1.9292 37.6423 1.9292 37.2017V30.4455C1.9292 30.2986 1.9292 30.1517 2.00264 30.0048V29.7845C2.00264 29.3439 2.29639 29.0501 2.73701 29.0501C3.17764 29.0501 3.47139 29.3439 3.47139 29.7845C3.47139 29.9314 3.47139 30.0783 3.39795 30.2251V37.2017C3.39795 37.6423 3.1042 37.9361 2.66357 37.9361ZM18.9667 38.0095C18.5261 38.0095 18.2323 37.7158 18.2323 37.2752V30.5189C18.2323 28.8298 17.0573 27.2876 15.4417 26.847C13.8261 26.7736 12.5042 25.4517 12.5042 23.8361V22.2205C12.5042 21.7798 12.798 21.4861 13.2386 21.4861C13.6792 21.4861 13.973 21.7798 13.973 22.2205V23.8361C13.973 24.6439 14.7073 25.3783 15.5151 25.3783H15.662C18.012 25.9658 19.7011 28.0955 19.7011 30.5189V37.2752C19.7011 37.7158 19.4073 38.0095 18.9667 38.0095Z" fill="#BEA86D"/>
<path id="Vector_3" d="M15.7358 38.0098C15.2952 38.0098 15.0015 37.7161 15.0015 37.2755V32.0614C15.0015 31.6208 15.2952 31.327 15.7358 31.327C16.1765 31.327 16.4702 31.6208 16.4702 32.0614V37.2755C16.4702 37.7161 16.1765 38.0098 15.7358 38.0098ZM24.6218 22.8083C21.3171 22.8083 18.5999 18.7692 18.5999 15.4645C18.5999 12.1598 21.3171 9.44263 24.6218 9.44263C27.9265 9.44263 30.6437 12.1598 30.6437 15.4645C30.6437 18.7692 27.9265 22.8083 24.6218 22.8083ZM24.6218 10.9114C22.0515 10.9114 20.0687 12.8942 20.0687 15.4645C20.0687 18.1083 22.1983 21.3395 24.6218 21.3395C27.0452 21.3395 29.1749 18.1083 29.1749 15.4645C29.1749 12.8942 27.1921 10.9114 24.6218 10.9114Z" fill="#BEA86D"/>
<path id="Vector_4" d="M19.5543 17.7409C19.4074 17.7409 19.2606 17.6674 19.1137 17.594C18.7465 17.3737 18.6731 16.9331 18.8934 16.5659L20.8027 13.7752C20.9496 13.6284 21.0965 13.4815 21.3168 13.4815C21.5371 13.4815 21.7574 13.4815 21.9043 13.6284C22.0512 13.7752 23.3731 14.7299 24.9153 13.6284C25.8699 12.894 27.1918 12.6737 28.3668 13.1143C29.6153 13.5549 30.4231 14.6565 30.7168 15.9784C30.7903 16.3456 30.4965 16.7862 30.1293 16.8596C29.7621 16.9331 29.3215 16.6393 29.2481 16.2721C29.1012 15.4643 28.5871 14.8034 27.8528 14.5096C27.1184 14.2159 26.384 14.3627 25.7965 14.8034C24.2543 15.9784 22.6387 15.6846 21.684 15.244L20.1418 17.4471C19.9949 17.594 19.7746 17.7409 19.5543 17.7409ZM16.984 27.5081C16.8371 27.5081 16.6168 27.4346 16.4699 27.2878C16.1762 26.994 16.1762 26.5534 16.3965 26.2596C17.2043 25.3784 18.2324 24.7174 19.2606 24.4971H19.4074C19.9215 24.4971 20.2887 24.3503 20.6559 23.9831C20.9496 23.6893 21.1699 23.1753 21.1699 22.7346V21.0456C21.1699 20.6049 21.4637 20.3112 21.9043 20.3112C22.3449 20.3112 22.6387 20.6049 22.6387 21.0456V22.7346C22.6387 23.5424 22.2715 24.4237 21.684 25.0112C21.0965 25.5987 20.3621 25.9659 19.4809 25.9659C18.7465 26.1862 18.0121 26.6268 17.4246 27.2878C17.3512 27.4346 17.2043 27.5081 16.984 27.5081ZM32.259 27.5815C32.0387 27.5815 31.8918 27.5081 31.7449 27.3612C31.2309 26.7737 30.4965 26.3331 29.6887 26.0393C27.9262 25.9659 26.6043 24.5706 26.6043 22.8081V21.0456C26.6043 20.6049 26.8981 20.3112 27.3387 20.3112C27.7793 20.3112 28.0731 20.6049 28.0731 21.0456V22.8081C28.0731 23.7628 28.8809 24.5706 29.8356 24.5706H30.0559C31.1574 24.9378 32.1856 25.5253 32.8465 26.3331C33.1403 26.6268 33.0668 27.0674 32.7731 27.3612C32.6262 27.5081 32.4059 27.5815 32.259 27.5815ZM3.17774 30.3721C2.66367 30.3721 2.14961 30.1518 1.70898 29.7846L1.48867 29.5643C0.680859 28.7565 0.680859 27.4346 1.48867 26.6268L3.03086 25.0846C3.83867 24.2768 5.16055 24.2768 5.96836 25.0846L6.18868 25.3049C6.55586 25.6721 6.77618 26.1862 6.77618 26.7737C6.77618 27.3612 6.55586 27.8753 6.18868 28.2424L4.64649 29.7846C4.2793 30.1518 3.76524 30.3721 3.17774 30.3721ZM2.73711 28.7565C3.03086 28.9768 3.39805 28.9768 3.61836 28.7565L5.16055 27.2143C5.23399 27.0674 5.30742 26.9206 5.30742 26.7737C5.30742 26.6268 5.23399 26.4799 5.16055 26.3331L4.94024 26.1128C4.71992 25.8924 4.2793 25.8924 4.05899 26.1128L2.5168 27.6549C2.29649 27.8753 2.29649 28.3159 2.5168 28.5362L2.73711 28.7565ZM33.5074 38.0096C33.0668 38.0096 32.7731 37.7159 32.7731 37.2753V32.0612C32.7731 31.6206 33.0668 31.3268 33.5074 31.3268C33.9481 31.3268 34.2418 31.6206 34.2418 32.0612V37.2753C34.2418 37.7159 33.9481 38.0096 33.5074 38.0096ZM38.4278 23.8362C35.2699 23.8362 32.7731 20.0909 32.7731 17.0065C32.7731 13.9221 35.3434 11.3518 38.4278 11.3518C41.5121 11.3518 44.0825 13.9221 44.0825 17.0065C44.0825 20.0909 41.5856 23.8362 38.4278 23.8362ZM38.4278 12.8206C36.1512 12.8206 34.2418 14.7299 34.2418 17.0065C34.2418 19.3565 36.2246 22.3674 38.4278 22.3674C40.6309 22.3674 42.6137 19.3565 42.6137 17.0065C42.6137 14.7299 40.7043 12.8206 38.4278 12.8206Z" fill="#BEA86D"/>
<path id="Vector_5" d="M33.7279 19.2095C33.5811 19.2095 33.4342 19.1361 33.2873 19.0626C32.9201 18.8423 32.8467 18.4017 33.067 18.0345L34.8295 15.4642C34.9764 15.3173 35.1232 15.1705 35.3436 15.1705C35.5639 15.1705 35.7842 15.1705 35.9311 15.3173C36.0779 15.3908 37.2529 16.272 38.5748 15.3173C39.5295 14.6564 40.7779 14.4361 41.8795 14.8767C42.9811 15.3173 43.7889 16.272 44.0092 17.5205C44.0826 17.8876 43.8623 18.3283 43.4217 18.4017C43.0545 18.4751 42.6139 18.2548 42.5404 17.8142C42.3936 17.0798 41.9529 16.4923 41.292 16.272C40.7045 16.0517 39.9701 16.1251 39.4561 16.4923C38.0607 17.5205 36.6654 17.3001 35.7107 16.8595L34.3154 18.8423C34.1686 19.0626 33.9482 19.2095 33.7279 19.2095ZM30.2764 37.9361C29.8357 37.9361 29.542 37.6423 29.542 37.2017V30.4455C29.542 28.022 31.1576 25.8923 33.5811 25.3048H33.7279C34.5357 25.3048 35.2701 24.5705 35.2701 23.7626V22.147C35.2701 21.7064 35.5639 21.4126 36.0045 21.4126C36.4451 21.4126 36.7389 21.7064 36.7389 22.147V23.7626C36.7389 25.3783 35.417 26.7001 33.8014 26.7736C32.1123 27.2142 31.0107 28.7564 31.0107 30.4455V37.2017C31.0107 37.6423 30.717 37.9361 30.2764 37.9361ZM46.5061 38.0095C46.0654 38.0095 45.7717 37.7158 45.7717 37.2752V30.5189C45.7717 30.2251 45.6983 29.9314 45.6248 29.5642C45.5514 29.197 45.7717 28.7564 46.2123 28.683C46.5795 28.6095 47.0201 28.8298 47.0936 29.2705C47.167 29.6376 47.2404 30.0783 47.2404 30.5189V37.2752C47.2404 37.7158 46.9467 38.0095 46.5061 38.0095ZM42.9076 26.7736H42.8342C41.292 26.5533 40.117 25.3048 40.117 23.7626V22.147C40.117 21.7064 40.4107 21.4126 40.8514 21.4126C41.292 21.4126 41.5858 21.7064 41.5858 22.147V23.7626C41.5858 24.5705 42.1732 25.2314 42.9811 25.3048C43.3482 25.3783 43.642 25.7455 43.642 26.1126C43.5686 26.4798 43.2748 26.7736 42.9076 26.7736ZM43.3482 38.0095C42.9076 38.0095 42.6139 37.7158 42.6139 37.2752V32.0611C42.6139 31.6205 42.9076 31.3267 43.3482 31.3267C43.7889 31.3267 44.0826 31.6205 44.0826 32.0611V37.2752C44.0826 37.7158 43.7889 38.0095 43.3482 38.0095Z" fill="#BEA86D"/>
<path id="Vector_6" d="M45.6246 30.3723C45.1106 30.3723 44.5965 30.152 44.1559 29.7848L42.6137 28.2426C42.2465 27.8754 42.0262 27.3613 42.0262 26.7738C42.0262 26.1863 42.2465 25.6723 42.6137 25.3051L42.834 25.0848C43.6418 24.277 44.9637 24.277 45.7715 25.0848L47.3137 26.627C48.1215 27.4348 48.1215 28.7567 47.3137 29.5645L47.0934 29.7848C46.6528 30.2254 46.1387 30.3723 45.6246 30.3723ZM44.3027 25.966C44.1559 25.966 44.009 26.0395 43.8621 26.1129L43.6418 26.3332C43.5684 26.4801 43.4949 26.627 43.4949 26.7738C43.4949 26.9207 43.5684 27.0676 43.6418 27.2145L45.184 28.7567C45.4043 28.977 45.7715 28.977 46.0652 28.7567L46.2856 28.5363C46.5059 28.316 46.5059 27.8754 46.2856 27.6551L44.7434 26.1129C44.5965 26.0395 44.4496 25.966 44.3027 25.966ZM8.09804 7.60665C7.87772 7.60665 7.73085 7.53321 7.58397 7.38633C7.29022 7.09258 7.36366 6.65196 7.65741 6.35821C11.9902 2.39258 17.5715 0.189453 23.373 0.189453C28.5137 0.189453 33.5074 1.87852 37.4731 4.88946C37.7668 5.10977 37.8402 5.62383 37.6199 5.91758C37.3996 6.21133 36.8856 6.28477 36.5918 6.06446C32.8465 3.20039 28.2199 1.6582 23.373 1.6582C17.9387 1.6582 12.6512 3.71446 8.6121 7.38633C8.46522 7.53321 8.24491 7.60665 8.09804 7.60665Z" fill="#BEA86D"/>
<path id="Vector_7" d="M38.6481 9.66304C37.1059 9.66304 35.8575 8.4146 35.8575 6.87241C35.8575 5.33023 37.1059 4.08179 38.6481 4.08179C40.2638 4.08179 41.4388 5.25679 41.4388 6.87241C41.4388 8.4146 40.1903 9.66304 38.6481 9.66304ZM38.6481 5.55054C37.9872 5.55054 37.3263 6.21148 37.3263 6.87241C37.3263 7.53335 37.9872 8.19429 38.6481 8.19429C39.3091 8.19429 39.97 7.53335 39.97 6.87241C39.97 6.13804 39.3825 5.55054 38.6481 5.55054ZM25.3559 47.1896C20.2153 47.1896 15.2216 45.5006 11.2559 42.4896C10.9622 42.2693 10.8887 41.7553 11.1091 41.4615C11.3294 41.1677 11.8434 41.0943 12.1372 41.3146C15.8825 44.1787 20.5091 45.7209 25.3559 45.7209C30.8638 45.7209 36.1513 43.6646 40.1903 39.9927C40.4841 39.699 40.9247 39.7724 41.2184 40.0662C41.5122 40.3599 41.4388 40.8006 41.145 41.0943C36.8122 44.9865 31.2309 47.1896 25.3559 47.1896Z" fill="#BEA86D"/>
<path id="Vector_8" d="M10.1544 43.2973C8.61221 43.2973 7.36377 42.0489 7.36377 40.5067C7.36377 38.9645 8.61221 37.7161 10.1544 37.7161C11.6966 37.7161 12.945 38.9645 12.945 40.5067C12.945 42.0489 11.6966 43.2973 10.1544 43.2973ZM10.1544 39.1848C9.49346 39.1848 8.83252 39.8458 8.83252 40.5067C8.83252 41.2411 9.42002 41.8286 10.1544 41.8286C10.8153 41.8286 11.4763 41.1676 11.4763 40.5067C11.4763 39.8458 10.8153 39.1848 10.1544 39.1848Z" fill="#BEA86D"/>
</g>
</svg>
