<svg width="41" height="44" viewBox="0 0 41 44" fill="none" xmlns="http://www.w3.org/2000/svg">
<g id="Group">
<path id="Vector" d="M20.4807 23.0873C22.7638 23.0873 24.9957 22.4103 26.894 21.1419C28.7923 19.8734 30.2719 18.0706 31.1456 15.9612C32.0194 13.8519 32.248 11.5309 31.8025 9.29161C31.3571 7.05236 30.2577 4.99547 28.6433 3.38106C27.0289 1.76665 24.972 0.667228 22.7327 0.221814C20.4935 -0.223601 18.1724 0.00500114 16.0631 0.878713C13.9538 1.75243 12.1509 3.23201 10.8825 5.13035C9.61405 7.0287 8.93703 9.26054 8.93703 11.5437C8.94058 14.6041 10.1579 17.5383 12.322 19.7023C14.4861 21.8664 17.4202 23.0838 20.4807 23.0873ZM20.4807 2.23426C22.3219 2.23426 24.1218 2.78025 25.6527 3.80318C27.1836 4.82611 28.3768 6.28004 29.0815 7.98111C29.7861 9.68218 29.9704 11.554 29.6112 13.3598C29.252 15.1657 28.3654 16.8245 27.0634 18.1264C25.7615 19.4284 24.1027 20.315 22.2969 20.6742C20.491 21.0334 18.6192 20.849 16.9181 20.1444C15.2171 19.4398 13.7631 18.2466 12.7402 16.7157C11.7173 15.1848 11.1713 13.3849 11.1713 11.5437C11.174 9.0755 12.1557 6.70922 13.901 4.96397C15.6462 3.21872 18.0125 2.23702 20.4807 2.23426ZM40.9614 42.8233C40.9562 38.1831 39.1107 33.7345 35.8296 30.4534C32.5485 27.1723 28.0999 25.3267 23.4597 25.3216H17.5017C15.203 25.3204 12.9266 25.7723 10.8027 26.6514C8.67876 27.5306 6.74892 28.8197 5.1235 30.4451C3.49809 32.0705 2.20897 34.0003 1.32985 36.1243C0.45072 38.2482 -0.00117241 40.5246 2.28434e-06 42.8233V43.9404H40.9614V42.8233ZM2.27448 41.7061C2.55457 37.8598 4.28073 34.2622 7.10578 31.6369C9.93082 29.0117 13.6452 27.5536 17.5017 27.5558H23.4597C27.3143 27.5602 31.0249 29.0206 33.8486 31.6445C36.6722 34.2684 38.4003 37.8622 38.6869 41.7061H2.27448Z" fill="#BAA264"/>
</g>
</svg>
