<svg width="48" height="47" viewBox="0 0 48 47" fill="none" xmlns="http://www.w3.org/2000/svg">
<g id="Group">
<path id="Vector" d="M21.645 8.22749H26.3743C26.8128 8.22661 27.2332 8.05189 27.5431 7.74161C27.8531 7.43134 28.0274 7.01083 28.0278 6.57226V1.84468C28.0274 1.40611 27.8531 0.985599 27.5431 0.675325C27.2332 0.365052 26.8128 0.190328 26.3743 0.189453H21.645C21.2063 0.19011 20.7858 0.364736 20.4756 0.675033C20.1655 0.985331 19.9911 1.40597 19.9906 1.84468V6.57143C19.9911 7.01015 20.1655 7.43078 20.4756 7.74108C20.7858 8.05137 21.2063 8.22683 21.645 8.22749ZM21.645 1.84468H26.3743V6.57143H21.645V1.84468ZM43.1572 19.337C37.8468 19.5057 37.8484 27.2056 43.1572 27.3734C48.4685 27.2056 48.4669 19.5049 43.1572 19.337ZM43.1572 25.719C42.5411 25.7027 41.9558 25.4465 41.5258 25.005C41.0958 24.5635 40.8551 23.9715 40.8551 23.3552C40.8551 22.7389 41.0958 22.147 41.5258 21.7054C41.9558 21.2639 42.5411 21.0077 43.1572 20.9914C43.7733 21.0077 44.3587 21.2639 44.7887 21.7054C45.2187 22.147 45.4593 22.7389 45.4593 23.3552C45.4593 23.9715 45.2187 24.5635 44.7887 25.005C44.3587 25.4465 43.7733 25.7027 43.1572 25.719ZM8.61404 26.5334C8.77395 26.2771 8.86518 25.9839 8.87893 25.6822C8.89269 25.3804 8.82851 25.0802 8.69258 24.8104L6.44537 20.3176C6.2954 20.027 6.06834 19.7833 5.78907 19.6132C5.5098 19.443 5.18909 19.353 4.86207 19.353C4.53506 19.353 4.21435 19.443 3.93508 19.6132C3.65581 19.7833 3.42875 20.027 3.27877 20.3176L1.03156 24.8104C0.899674 25.0806 0.838338 25.3799 0.853273 25.6803C0.868207 25.9806 0.958926 26.2723 1.11698 26.5282C1.27503 26.784 1.49527 26.9957 1.75718 27.1435C2.01909 27.2913 2.31415 27.3704 2.61486 27.3734H7.10846C7.41042 27.3744 7.70755 27.2977 7.97125 27.1506C8.23494 27.0034 8.45631 26.7909 8.61404 26.5334ZM2.61486 25.7182C2.59502 25.7191 2.57533 25.7144 2.55796 25.7048C2.54059 25.6952 2.52623 25.6809 2.51648 25.6636C2.50528 25.6469 2.4989 25.6274 2.49802 25.6073C2.49715 25.5871 2.50181 25.5672 2.51152 25.5495L4.75872 21.0568C4.77691 20.9881 4.94062 20.9633 4.96542 21.0568L7.21263 25.5495C7.24984 25.5975 7.19527 25.7355 7.10846 25.7182H2.61486ZM26.6165 39.6463C26.4714 39.3943 26.2625 39.1851 26.0108 39.0395C25.7591 38.894 25.4736 38.8172 25.1829 38.817H22.8364C22.5461 38.817 22.2608 38.8934 22.0093 39.0385C21.7578 39.1837 21.5489 39.3924 21.4036 39.6438L20.2304 41.676C20.0859 41.9278 20.0099 42.213 20.0099 42.5032C20.0099 42.7935 20.0859 43.0787 20.2304 43.3304L21.4028 45.3602C21.5479 45.6121 21.7568 45.8213 22.0085 45.9669C22.2602 46.1125 22.5457 46.1892 22.8364 46.1895H25.1829C25.4732 46.1892 25.7583 46.1126 26.0096 45.9673C26.261 45.8221 26.4697 45.6132 26.6149 45.3618L27.7889 43.3304C27.9334 43.0787 28.0094 42.7935 28.0094 42.5032C28.0094 42.213 27.9334 41.9278 27.7889 41.676L26.6165 39.6463ZM25.1829 44.5342H22.8373L21.6632 42.5028L22.8364 40.4722H25.182L26.3553 42.5028L25.1829 44.5342ZM29.6484 5.92405C29.5533 5.72673 29.54 5.49989 29.6112 5.29278C29.6824 5.08566 29.8324 4.91499 30.0287 4.81781L33.101 3.32215C33.2983 3.226 33.5256 3.21214 33.7331 3.28362C33.9405 3.3551 34.1111 3.50606 34.2073 3.7033C34.3034 3.90054 34.3173 4.1279 34.2458 4.33536C34.1743 4.54282 34.0233 4.71339 33.8261 4.80954L32.681 5.36763C37.268 7.57796 40.8376 11.4566 42.6603 16.2109C42.7387 16.416 42.7325 16.6437 42.6429 16.8441C42.5534 17.0446 42.3879 17.2012 42.1829 17.2796C41.9778 17.358 41.7501 17.3517 41.5497 17.2622C41.3493 17.1726 41.1926 17.0071 41.1142 16.8021C39.4389 12.4407 36.1591 8.88522 31.9468 6.86411L32.6339 8.2713C32.6815 8.36891 32.7094 8.47494 32.716 8.58334C32.7227 8.69174 32.7079 8.80039 32.6725 8.90307C32.6372 9.00576 32.5819 9.10047 32.51 9.18181C32.438 9.26315 32.3508 9.32952 32.2531 9.37713C32.1555 9.42474 32.0495 9.45266 31.9411 9.45929C31.8327 9.46593 31.7241 9.45115 31.6214 9.41579C31.5187 9.38044 31.424 9.3252 31.3426 9.25324C31.2613 9.18128 31.1949 9.09401 31.1473 8.9964L29.6484 5.92405ZM3.97493 14.2655C3.87878 14.0684 3.86487 13.8411 3.93627 13.6337C4.00767 13.4264 4.15853 13.2558 4.35567 13.1597C4.5528 13.0635 4.78005 13.0496 4.98743 13.121C5.19482 13.1924 5.36534 13.3433 5.46149 13.5404L6.0204 14.6855C8.23016 10.0986 12.1087 6.52916 16.8629 4.70702C16.9644 4.66832 17.0726 4.64998 17.1812 4.65307C17.2898 4.65616 17.3967 4.68061 17.4959 4.72502C17.595 4.76944 17.6844 4.83295 17.7591 4.91192C17.8337 4.9909 17.892 5.0838 17.9307 5.18532C17.9694 5.28684 17.9877 5.39498 17.9846 5.50359C17.9816 5.61219 17.9571 5.71912 17.9127 5.81828C17.8683 5.91743 17.8048 6.00686 17.7258 6.08147C17.6468 6.15608 17.5539 6.21441 17.4524 6.25312C13.0918 7.92808 9.53672 11.2069 7.51524 15.4181L8.92408 14.7318C9.12047 14.6421 9.34417 14.6326 9.54744 14.7055C9.75071 14.7783 9.91745 14.9278 10.0121 15.1219C10.1067 15.316 10.1217 15.5394 10.0539 15.7444C9.98611 15.9494 9.84086 16.1198 9.64917 16.2192L6.57849 17.7157C6.38113 17.8105 6.15437 17.8237 5.94732 17.7526C5.74027 17.6814 5.56959 17.5315 5.47224 17.3354L3.97493 14.2655ZM18.371 40.7872C18.466 40.9845 18.4793 41.2114 18.4081 41.4185C18.3369 41.6256 18.1869 41.7963 17.9906 41.8935C17.8278 41.9365 14.6405 43.619 14.557 43.4751C14.372 43.4713 14.1936 43.4059 14.05 43.2892C13.9063 43.1726 13.8057 43.0114 13.7639 42.8312C13.7222 42.6509 13.7418 42.4619 13.8195 42.294C13.8972 42.1261 14.0287 41.989 14.1932 41.9042L15.3391 41.3453C10.7522 39.135 7.18253 35.2563 5.3598 30.502C5.28823 30.2984 5.29897 30.075 5.38973 29.8793C5.48049 29.6835 5.6441 29.531 5.8457 29.4541C6.04729 29.3773 6.27094 29.3822 6.46898 29.4678C6.66701 29.5534 6.82379 29.713 6.90589 29.9125C8.58144 34.2734 11.8608 37.8288 16.0725 39.8505L15.3863 38.4425C15.29 38.2453 15.276 38.018 15.3473 37.8106C15.4186 37.6031 15.5694 37.4325 15.7666 37.3362C15.9637 37.2399 16.191 37.2259 16.3985 37.2973C16.6059 37.3686 16.7766 37.5194 16.8728 37.7165L18.371 40.7872ZM44.0444 32.4466C44.092 32.5442 44.12 32.6503 44.1267 32.7588C44.1333 32.8673 44.1186 32.976 44.0832 33.0788C44.0479 33.1815 43.9926 33.2763 43.9206 33.3577C43.8486 33.4391 43.7613 33.5056 43.6636 33.5532C43.566 33.6009 43.4599 33.6289 43.3514 33.6355C43.2429 33.6422 43.1342 33.6274 43.0315 33.5921C42.9287 33.5567 42.8339 33.5015 42.7525 33.4295C42.6711 33.3575 42.6047 33.2702 42.557 33.1725L41.9989 32.0274C39.7885 36.6139 35.9098 40.183 31.1556 42.0051C30.9516 42.0788 30.7268 42.0694 30.5296 41.9791C30.3324 41.8887 30.1786 41.7245 30.1012 41.5219C30.0238 41.3193 30.0291 41.0944 30.1159 40.8956C30.2027 40.6968 30.364 40.54 30.5653 40.459C34.9266 38.784 38.4821 35.5044 40.5032 31.2924L39.0952 31.9786C38.8982 32.0749 38.671 32.0889 38.4636 32.0177C38.2562 31.9464 38.0857 31.7957 37.9894 31.5987C37.8931 31.4017 37.8791 31.1745 37.9503 30.9671C38.0216 30.7597 38.1723 30.5891 38.3693 30.4929L41.4408 28.9947C41.6382 28.8999 41.8649 28.8867 42.072 28.9579C42.279 29.0291 42.4497 29.1789 42.5471 29.3751L44.0444 32.4466ZM11.2151 23.1899C11.2151 24.8701 11.5461 26.5338 12.189 28.0861C12.832 29.6384 13.7745 31.0489 14.9625 32.237C16.1506 33.4251 17.5611 34.3675 19.1134 35.0105C20.6657 35.6535 22.3294 35.9844 24.0097 35.9844C25.6899 35.9844 27.3536 35.6535 28.9059 35.0105C30.4582 34.3675 31.8687 33.4251 33.0568 32.237C34.2448 31.0489 35.1873 29.6384 35.8303 28.0861C36.4733 26.5338 36.8042 24.8701 36.8042 23.1899C36.1014 6.21839 11.9162 6.21922 11.2151 23.1899ZM24.0097 34.33C22.4171 34.3291 20.8434 33.9858 19.3952 33.3233C17.947 32.6608 16.6582 31.6947 15.6161 30.4904C15.6542 29.8514 15.8822 29.2383 16.2709 28.7296C16.6596 28.221 17.1914 27.84 17.798 27.6355C19.1175 27.2692 22.6521 25.7843 24.0097 25.8852C25.3482 25.7794 28.9241 27.2767 30.2188 27.6355C30.826 27.8395 31.3583 28.2203 31.7475 28.729C32.1367 29.2377 32.3651 29.851 32.4032 30.4904C31.3612 31.6947 30.0723 32.6608 28.6241 33.3233C27.1759 33.9858 25.6022 34.3291 24.0097 34.33ZM24.0097 16.2655C29.268 16.4325 29.2738 24.0539 24.0179 24.23C18.7496 24.0737 18.7422 16.4334 24.0097 16.2655ZM35.149 23.1899C35.1485 25.1401 34.6322 27.0555 33.6525 28.7417C33.382 28.1172 32.9834 27.5563 32.4825 27.0954C31.9816 26.6346 31.3896 26.2839 30.7447 26.0663L27.206 24.8864C31.7054 21.8339 29.5227 14.6012 24.0097 14.6111C18.4958 14.6028 16.3131 21.8331 20.8141 24.8864L17.273 26.0663C16.6282 26.284 16.0364 26.6347 15.5356 27.0956C15.0349 27.5564 14.6364 28.1172 14.366 28.7417C13.3863 27.0555 12.87 25.1401 12.8695 23.1899C13.4822 8.41103 34.5396 8.41599 35.149 23.1899Z" fill="#BEA86D"/>
</g>
</svg>
