<svg width="40" height="49" viewBox="0 0 40 49" fill="none" xmlns="http://www.w3.org/2000/svg">
<g id="Group">
<path id="Vector" d="M19.5696 29.1037C18.5958 29.1037 17.6451 28.9646 16.7177 28.6631C15.5119 28.269 14.4222 27.6661 13.4715 26.8546C12.5672 26.0662 11.8252 25.1155 11.2455 24.0489C10.6891 22.9591 10.3644 21.823 10.2485 20.6173C10.1326 19.3652 10.2717 18.1363 10.6659 16.9305C11.06 15.7248 11.6629 14.635 12.4745 13.6844C13.2628 12.7801 14.2135 12.0381 15.2801 11.4584C16.3699 10.9019 17.506 10.5773 18.7117 10.4614C19.9638 10.3455 21.1927 10.4846 22.3985 10.8788C22.8158 11.0179 23.0709 11.4816 22.9318 11.899C22.7926 12.3164 22.3289 12.5714 21.9115 12.4323C20.9145 12.1077 19.8943 11.9917 18.874 12.0845C17.877 12.1772 16.9263 12.4555 16.022 12.9192C15.1178 13.3829 14.3526 14.009 13.7034 14.751C13.0309 15.5393 12.5208 16.4436 12.2194 17.4175C11.8948 18.4145 11.7788 19.4347 11.8716 20.455C11.9643 21.452 12.2426 22.4027 12.7063 23.307C13.1701 24.2112 13.7729 24.9764 14.5381 25.6256C15.3264 26.2981 16.2307 26.8082 17.2046 27.1096C18.2016 27.4342 19.2218 27.5502 20.2421 27.4574C21.2391 27.3647 22.1898 27.0864 23.0941 26.6227C23.9984 26.1589 24.7635 25.5329 25.4128 24.7909C26.0852 24.0026 26.5953 23.0983 26.8967 22.1244C27.2213 21.1274 27.3373 20.1072 27.2445 19.0869C27.1981 18.6464 27.5228 18.2522 27.9865 18.2058C28.4271 18.1595 28.8212 18.4841 28.8676 18.9478C28.9835 20.1999 28.8444 21.4288 28.4502 22.6345C28.0561 23.8403 27.4532 24.93 26.6417 25.8807C25.8533 26.785 24.9026 27.5502 23.836 28.1066C22.7463 28.6631 21.5869 28.9877 20.4044 29.1037C20.1261 29.0805 19.8479 29.1037 19.5696 29.1037Z" fill="#BEA86D"/>
<path id="Vector_2" d="M19.5698 39.3522C17.8771 39.3522 16.5555 38.0073 15.4193 36.8248C14.6773 36.0596 13.9585 35.3176 13.2629 35.0394C12.5209 34.738 11.408 34.738 10.3414 34.738C8.64872 34.7612 6.88652 34.7612 5.72717 33.625C4.56782 32.4656 4.59101 30.7266 4.6142 29.0108C4.6142 27.9442 4.63738 26.8312 4.31277 26.0892C4.03452 25.3936 3.29254 24.6748 2.52737 23.9329C1.34484 22.7735 0 21.475 0 19.7592C0 18.0666 1.34484 16.7449 2.52737 15.6088C3.29254 14.8668 4.03452 14.148 4.31277 13.4524C4.6142 12.7104 4.6142 11.5974 4.6142 10.5308C4.59101 8.83817 4.59101 7.07597 5.72717 5.91662C6.88652 4.75728 8.62553 4.78046 10.3414 4.80365C11.408 4.80365 12.5209 4.82684 13.2629 4.50222C13.9585 4.22398 14.6773 3.482 15.4193 2.71683C16.5786 1.53429 17.8771 0.189453 19.5929 0.189453C21.2856 0.189453 22.6072 1.53429 23.7434 2.71683C24.4854 3.482 25.2042 4.22398 25.8998 4.50222C26.6418 4.80365 27.7547 4.80365 28.8213 4.80365C30.514 4.78046 32.2762 4.78046 33.4355 5.91662C34.5949 7.07597 34.5717 8.81499 34.5485 10.5308C34.5485 11.5974 34.5253 12.7104 34.8499 13.4524C35.1282 14.148 35.8702 14.8668 36.6353 15.6088C37.8179 16.7681 39.1627 18.0666 39.1627 19.7824C39.1627 21.475 37.8179 22.7967 36.6353 23.9329C35.8702 24.6748 35.1282 25.3936 34.8499 26.0892C34.5485 26.8312 34.5485 27.9442 34.5485 29.0108C34.5717 30.7034 34.5717 32.4656 33.4355 33.625C32.2762 34.7843 30.5372 34.7612 28.8213 34.738C27.7547 34.738 26.6418 34.7148 25.8998 35.0394C25.2042 35.3176 24.4854 36.0596 23.7434 36.8248C22.5841 37.9841 21.2624 39.3522 19.5698 39.3522ZM10.8979 33.0917C11.9413 33.0917 12.9847 33.1381 13.8658 33.5091C14.8628 33.9264 15.7439 34.8075 16.5555 35.6654C17.5293 36.6625 18.5495 37.7059 19.5466 37.7059C20.5668 37.7059 21.5638 36.6625 22.5377 35.6654C23.3724 34.8075 24.2303 33.9264 25.2274 33.5091C26.2708 33.0685 27.5461 33.0917 28.775 33.0917C30.2126 33.1149 31.5574 33.1149 32.2298 32.4425C32.9022 31.77 32.8791 30.4252 32.8791 28.9876C32.8791 27.7587 32.8559 26.4834 33.2964 25.44C33.7138 24.443 34.5949 23.5619 35.4528 22.7503C36.4498 21.7765 37.4933 20.7563 37.4933 19.7592C37.4933 18.739 36.4498 17.742 35.4528 16.7681C34.5949 15.9334 33.7138 15.0755 33.2964 14.0784C32.8559 13.035 32.8791 11.7597 32.8791 10.5308C32.9022 9.09323 32.9022 7.74839 32.2298 7.07597C31.5574 6.40355 30.2126 6.42674 28.775 6.42674C27.5461 6.42674 26.2708 6.44992 25.2274 6.00937C24.2303 5.59201 23.3492 4.7109 22.5377 3.85299C21.5638 2.85595 20.5668 1.81254 19.5466 1.81254C18.5264 1.81254 17.5293 2.85595 16.5555 3.85299C15.7207 4.7109 14.8628 5.59201 13.8658 6.00937C12.8224 6.44992 11.5471 6.42674 10.3182 6.42674C8.88059 6.40355 7.53575 6.40355 6.86333 7.07597C6.19091 7.74839 6.2141 9.09323 6.2141 10.5308C6.2141 11.7597 6.23728 13.035 5.79673 14.0784C5.37937 15.0755 4.49826 15.9566 3.64035 16.7681C2.64331 17.742 1.5999 18.739 1.5999 19.7592C1.5999 20.7794 2.64331 21.7765 3.64035 22.7503C4.49826 23.5851 5.37937 24.443 5.79673 25.44C6.23728 26.4834 6.2141 27.7587 6.2141 28.9876C6.19091 30.4252 6.19091 31.77 6.86333 32.4425C7.53575 33.1149 8.88059 33.0917 10.3182 33.0917H10.8979Z" fill="#BEA86D"/>
<path id="Vector_3" d="M28.1491 48.1863C27.9868 48.1863 27.8013 48.1399 27.6621 48.0703L19.6858 43.8503L11.7095 48.0703C11.3849 48.2326 10.9907 48.2326 10.6893 48.0471C10.3647 47.8617 10.1792 47.5138 10.1792 47.1429V38.1463C10.1792 37.7058 10.5502 37.3348 10.9907 37.3348C11.4313 37.3348 11.8023 37.7058 11.8023 38.1463V46.169L19.6858 41.9954L27.5694 46.169V38.1463C27.5694 37.7058 27.9404 37.3348 28.3809 37.3348C28.8215 37.3348 29.1925 37.7058 29.1925 38.1463V47.1429C29.1925 47.5138 29.007 47.8385 28.6824 48.0471C28.5201 48.1399 28.3346 48.1863 28.1491 48.1863ZM19.4076 22.9821L14.5383 18.1128C14.2137 17.7882 14.2137 17.2781 14.5383 16.9767C14.863 16.6521 15.3731 16.6521 15.6745 16.9767L19.3844 20.6866L28.1954 11.8987C28.5201 11.5741 29.0302 11.5741 29.3548 11.8987C29.6794 12.2234 29.6794 12.7335 29.3548 13.0349L19.4076 22.9821Z" fill="#BEA86D"/>
</g>
</svg>
