<svg width="239" height="60" viewBox="0 0 239 60" fill="none" xmlns="http://www.w3.org/2000/svg">
<path d="M188.516 42.0438L196.828 51.3242H191.428L184.999 44.1746V51.3266H180.523V34.0196H184.999V40.2995L191.322 34.0196H196.615L188.516 42.0438ZM54.5805 38.6939C57.8487 38.6939 59.3409 37.159 59.3409 34.8559C59.3409 32.5529 57.8487 31.0143 54.5805 31.0143H48.1136V38.6951H54.5781M54.7206 26.9023C60.3337 26.9023 64.027 29.7282 64.027 34.8571C64.027 39.986 60.3337 42.8119 54.7206 42.8119H48.1136V51.3242H43.4238V26.9023H54.7206ZM74.6136 47.6967C77.2423 47.6967 79.6944 45.8471 79.6944 42.6719C79.6944 39.4967 77.2423 37.6471 74.6136 37.6471C71.9849 37.6471 69.5341 39.4955 69.5341 42.6719C69.5341 45.8483 71.9862 47.6967 74.6136 47.6967ZM74.6136 33.5315C79.4447 33.5315 84.2367 36.6015 84.2367 42.6719C84.2367 48.7424 79.441 51.8135 74.6136 51.8135C69.7862 51.8135 64.9905 48.7424 64.9905 42.6719C64.9905 36.6015 69.7862 33.5315 74.6136 33.5315ZM95.6675 47.6967C92.9682 47.6967 90.979 45.7765 90.979 42.6719C90.979 39.602 93.0388 37.6471 95.6675 37.6471C97.2669 37.6471 98.6519 38.3793 99.7531 40.0195L103.59 37.8565C102.311 35.1706 99.5399 33.5267 95.704 33.5267C90.6952 33.5267 86.4318 37.1554 86.4318 42.6671C86.4318 48.1789 90.482 51.8087 95.704 51.8087C99.4692 51.8087 101.991 50.1338 103.767 47.1679L100.073 45.1795C99.0064 46.6451 97.8699 47.692 95.6675 47.692M143.325 43.8193C143.112 46.4704 142.578 47.0639 141.655 47.0639C141.195 47.0726 140.736 47.0121 140.294 46.8844L140.317 51.3625C140.317 51.3625 140.874 51.5288 141.901 51.5288C145.702 51.5288 147.123 49.1216 147.479 43.9915L147.905 37.9558H152.948V51.2907H157.425V34.0196H144.07L143.325 43.8193ZM135.07 40.3653C134.643 38.201 132.973 36.8754 130.487 36.8754C128.142 36.8754 126.366 38.4116 125.727 40.3653H135.07ZM130.629 33.5267C135.673 33.5267 139.226 37.1159 139.226 42.179V43.714H125.656C125.94 46.3652 127.859 48.0401 130.487 48.0401C132.867 48.0401 133.861 47.0292 134.963 45.6677L138.515 47.412C136.739 50.3778 134.288 51.8075 130.417 51.8075C125.514 51.8075 121.358 48.1454 121.358 42.6671C121.358 37.1889 125.514 33.5267 130.629 33.5267ZM173.645 40.3653C173.219 38.201 171.549 36.8754 169.063 36.8754C166.718 36.8754 164.942 38.4116 164.302 40.3653H173.645ZM169.204 33.5267C174.248 33.5267 177.801 37.1159 177.801 42.179V43.714H164.23C164.515 46.3652 166.434 48.0401 169.063 48.0401C171.443 48.0401 172.437 47.0292 173.538 45.6677L177.09 47.412C175.314 50.3778 172.863 51.8075 168.991 51.8075C164.089 51.8075 159.933 48.1454 159.933 42.6671C159.933 37.1889 164.089 33.5267 169.204 33.5267ZM105.159 37.8577H110.416V51.3242H114.893V37.8577H120.15V34.0196H105.159V37.8577ZM205.714 47.6967C208.343 47.6967 210.794 45.8471 210.794 42.6719C210.794 39.4967 208.343 37.6471 205.714 37.6471C203.086 37.6471 200.635 39.4967 200.635 42.6719C200.635 45.8471 203.086 47.6967 205.714 47.6967ZM205.714 33.5315C210.545 33.5315 215.337 36.6015 215.337 42.6719C215.337 48.7424 210.542 51.8135 205.714 51.8135C200.887 51.8135 196.091 48.7436 196.091 42.6719C196.091 36.6003 200.887 33.5315 205.714 33.5315ZM233.15 34.0101L228.292 46.1295L223.435 34.0101H217.589V51.2895H221.843V40.3545L226.559 51.2895H230.034L234.749 40.3545V51.2895H239.004V34.0161L233.15 34.0101Z" fill="#1D1D1B"/>
<path d="M29.0788 60.0083H4.2293C2.4338 60.0083 1.37891 58.4339 1.37891 57.0568C1.37822 56.669 1.45569 56.2848 1.60684 55.9265C1.75799 55.5682 1.97984 55.2428 2.25961 54.9691L13.1008 44.3213L29.0788 60.0083Z" fill="#FF4F12"/>
<path d="M4.22553 60.0088C2.34963 60.0088 0.00354511 58.5348 0.00354511 55.6049V22.7916C0.00354511 18.3578 -0.22546 15.2388 2.99767 12.0732L15.0948 0.189453L36.547 21.2937L2.25584 54.9696C1.97607 55.2433 1.75422 55.5687 1.60307 55.927C1.45192 56.2853 1.37445 56.6695 1.37514 57.0573C1.37514 58.4343 2.43368 60.0088 4.22553 60.0088Z" fill="#7700FF"/>
</svg>
