<svg width="250" height="69" viewBox="0 0 250 69" fill="none" xmlns="http://www.w3.org/2000/svg">
<path fill-rule="evenodd" clip-rule="evenodd" d="M131.583 45.0799H139.974L154.99 56.4786V45.0799H161.888V67.5252H154.62L138.335 55.1501V67.5119H131.583V45.0799ZM5.2058 53.9943C-13.5899 27.145 25.1709 24.3817 17.3487 0.189453C36.4219 28.4934 0.772781 26.0357 5.2058 53.9943ZM177.195 54.1338H190.204V58.4249H177.195V63.1942H194.736V67.4853H177.195V67.5252H166.882V45.0799H194.762V49.371H177.195V54.1338ZM209.534 54.5456H220.574V58.8367H209.534V67.5252H199.195V45.0799H250V49.371H241.464V67.5252H231.125V49.371H209.534V54.5456Z" fill="#1AB374"/>
<path fill-rule="evenodd" clip-rule="evenodd" d="M43.2859 45.0801H70.7032V49.3712H62.1675V67.5253H51.8216V49.3712H43.2859V45.0801ZM15.6439 68.1896C11.2109 40.231 46.86 42.6888 27.7868 14.3848C35.609 38.577 -3.15847 41.3403 15.6439 68.1896ZM119.063 49.3712V67.5253H108.744V49.3712H100.188V45.0801H127.606V49.3712H119.063ZM78.281 59.6074H88.1446L83.2161 50.341L78.281 59.6074ZM90.4239 63.8985L92.353 67.5253H102.692L90.8005 45.0801H79.7542L67.7831 67.5253H74.0461L75.9819 63.8985H90.4239Z" fill="#EE3A43"/>
</svg>
