<svg width="38" height="38" viewBox="0 0 38 38" fill="none" xmlns="http://www.w3.org/2000/svg">
<g id="Group 3">
<g id="Rectangle 163">
<rect class="social__border" x="3.35645" y="3.40741" width="30.6866" height="30.6866" fill="white"/>
<rect class="social__border" x="3.85645" y="3.90741" width="29.6866" height="29.6866" stroke="#DBDBDB" stroke-opacity="0.13"/>
</g>
<g id="Layer 2">
<g id="Vector">
<path d="M26.0789 13.1845L16.6415 20.8986L16.1974 21.2623C16.0999 21.3396 16.0362 21.4519 16.0198 21.5753L15.9204 22.3957L15.6476 24.7006C15.6501 24.7287 15.6414 24.7566 15.6234 24.7782C15.6053 24.7998 15.5794 24.8134 15.5514 24.8159C15.5234 24.8184 15.4955 24.8097 15.4739 24.7916C15.4522 24.7736 15.4387 24.7477 15.4362 24.7197L14.6686 22.4148L13.8756 20.057C13.8418 19.9513 13.8461 19.8371 13.8878 19.7343C13.9296 19.6315 14.0061 19.5467 14.104 19.4945L23.9242 13.8654L25.7723 12.8081C26.0409 12.6517 26.3158 12.99 26.0789 13.1845Z" fill="#70767A"/>
<path d="M14.3587 19.9248L23.3438 14.7744L16.325 20.5115L16.3247 20.5118L15.8831 20.8734C15.686 21.0312 15.5574 21.259 15.5241 21.5094L15.5241 21.5094L15.5234 21.5151L15.424 22.3356L15.4239 22.337L15.3572 22.9002L15.143 22.2568L15.1425 22.2554L14.3587 19.9248Z" stroke="#DBDBDB" stroke-opacity="0.13"/>
</g>
<g id="Vector_2">
<path d="M32.1419 0H5.07504C3.72905 0 2.4382 0.53469 1.48644 1.48644C0.53469 2.4382 0 3.72905 0 5.07504L0 32.1419C0 33.4879 0.53469 34.7787 1.48644 35.7305C2.4382 36.6822 3.72905 37.2169 5.07504 37.2169H32.1419C33.4879 37.2169 34.7787 36.6822 35.7305 35.7305C36.6822 34.7787 37.2169 33.4879 37.2169 32.1419V5.07504C37.2169 3.72905 36.6822 2.4382 35.7305 1.48644C34.7787 0.53469 33.4879 0 32.1419 0ZM30.2155 10.7718L26.5826 26.8237C26.4113 27.5765 25.4555 27.9169 24.7852 27.4581L19.2999 23.7364L16.5066 26.3775C16.3926 26.4844 16.2544 26.5618 16.1038 26.6032C15.9531 26.6445 15.7947 26.6485 15.6422 26.6148C15.4897 26.581 15.3477 26.5106 15.2286 26.4095C15.1095 26.3085 15.0168 26.1799 14.9587 26.0349L13.95 23.0745L12.9413 20.1141L7.53431 18.6338C7.38313 18.6008 7.24709 18.5188 7.14734 18.4005C7.04759 18.2822 6.98972 18.1343 6.98273 17.9797C6.97574 17.8251 7.02001 17.6725 7.10867 17.5457C7.19733 17.4189 7.32541 17.3249 7.47299 17.2784L28.361 9.75253L28.7458 9.61508C29.5557 9.33172 30.3931 9.98725 30.2155 10.7718Z" fill="#70767A"/>
<path d="M27.0702 26.9346L27.0703 26.934L30.7031 10.8822C30.7032 10.8822 30.7032 10.8821 30.7032 10.8821C30.8406 10.2751 30.5775 9.72781 30.1599 9.39977C29.7446 9.07357 29.1553 8.94209 28.5807 9.14312L28.5777 9.14421L28.1928 9.28165L28.1915 9.28213L7.31172 16.805C7.06365 16.8858 6.84848 17.0452 6.69888 17.2592C6.54707 17.4764 6.47127 17.7376 6.48324 18.0023C6.49521 18.267 6.5943 18.5203 6.76509 18.7228L7.14734 18.4005L6.76509 18.7228C6.9327 18.9216 7.16014 19.0606 7.41321 19.1191L12.5536 20.5263L13.4767 23.2358L14.4854 26.1962L14.4897 26.2088L14.4946 26.2211C14.5831 26.4416 14.724 26.6371 14.9052 26.7908L15.2286 26.4095L14.9052 26.7908C15.0863 26.9445 15.3022 27.0516 15.5341 27.1029C15.7661 27.1543 16.007 27.1482 16.2361 27.0854C16.4652 27.0225 16.6755 26.9047 16.8487 26.7421L16.8501 26.7408L19.3516 24.3756L24.5028 27.8706C24.5031 27.8709 24.5034 27.8711 24.5037 27.8713C25.4325 28.5061 26.8121 28.0689 27.0702 26.9346ZM5.07504 0.5H32.1419C33.3553 0.5 34.5189 0.982011 35.3769 1.84C36.2349 2.69798 36.7169 3.86166 36.7169 5.07504V32.1419C36.7169 33.3553 36.2349 34.5189 35.3769 35.3769C34.5189 36.2349 33.3553 36.7169 32.1419 36.7169H5.07504C3.86166 36.7169 2.69798 36.2349 1.84 35.3769C0.982011 34.5189 0.5 33.3553 0.5 32.1419V5.07504C0.5 3.86166 0.982011 2.69798 1.84 1.84C2.69798 0.982011 3.86166 0.5 5.07504 0.5Z" stroke="#DBDBDB" stroke-opacity="0.13"/>
</g>
</g>
</g>
</svg>
