<svg width="38" height="38" viewBox="0 0 38 38" fill="none" xmlns="http://www.w3.org/2000/svg">
<g id="Group">
<g id="Layer 2">
<g id="Vector">
<path d="M32.9251 0H5.85824C3.05537 0 0.783203 2.27217 0.783203 5.07504V32.1419C0.783203 34.9448 3.05537 37.2169 5.85824 37.2169H32.9251C35.728 37.2169 38.0001 34.9448 38.0001 32.1419V5.07504C38.0001 2.27217 35.728 0 32.9251 0Z" fill="#70767A"/>
<path d="M5.85824 0.5H32.9251C35.4518 0.5 37.5001 2.54831 37.5001 5.07504V32.1419C37.5001 34.6686 35.4518 36.7169 32.9251 36.7169H5.85824C3.33152 36.7169 1.2832 34.6686 1.2832 32.1419V5.07504C1.2832 2.54831 3.33152 0.5 5.85824 0.5Z" stroke="#DBDBDB" stroke-opacity="0.13"/>
</g>
<g id="Group_2">
<g id="Vector_2">
<path d="M27.5965 10.4038C25.6605 8.44845 23.0894 7.24929 20.3471 7.02263C17.6047 6.79597 14.8717 7.55674 12.6408 9.16772C10.41 10.7787 8.82831 13.1338 8.18101 15.8083C7.53371 18.4828 7.86343 21.3005 9.11071 23.7533L7.88635 29.6974C7.87365 29.7566 7.87329 29.8177 7.8853 29.877C7.8973 29.9363 7.92142 29.9925 7.95613 30.0421C8.00699 30.1173 8.07958 30.1752 8.16422 30.2081C8.24886 30.241 8.34151 30.2472 8.42981 30.2261L14.2555 28.8452C16.7014 30.0609 19.4993 30.3695 22.1513 29.7159C24.8033 29.0624 27.1374 27.4891 28.7383 25.2761C30.3392 23.0632 31.1031 20.354 30.894 17.6307C30.685 14.9073 29.5165 12.3465 27.5965 10.4038ZM25.7801 24.9015C24.4405 26.2373 22.7156 27.1191 20.8483 27.4226C18.9811 27.7261 17.0657 27.436 15.372 26.5932L14.56 26.1914L10.9885 27.0373L10.999 26.9928L11.7392 23.398L11.3416 22.6135C10.4762 20.914 10.171 18.9841 10.4695 17.1004C10.7681 15.2167 11.6552 13.4759 13.0037 12.1272C14.6981 10.4333 16.996 9.48172 19.3919 9.48172C21.7878 9.48172 24.0856 10.4333 25.7801 12.1272C25.7945 12.1438 25.8101 12.1593 25.8266 12.1737C27.5 13.872 28.4342 16.163 28.4255 18.5472C28.4168 20.9314 27.4659 23.2155 25.7801 24.9015Z" fill="white"/>
<path d="M9.60043 23.8542L9.63574 23.6827L9.55639 23.5266C8.36316 21.1802 8.04773 18.4845 8.66698 15.9259C9.28623 13.3673 10.7994 11.1142 12.9336 9.57307C15.0677 8.0319 17.6824 7.30409 20.3059 7.52093C22.9294 7.73777 25.3891 8.88497 27.2412 10.7556C29.0778 12.6141 30.1955 15.0638 30.3955 17.6689C30.5955 20.2742 29.8647 22.866 28.3332 24.9831C26.8017 27.1001 24.5687 28.6052 22.0316 29.2304C19.4946 29.8557 16.8179 29.5605 14.4781 28.3975L14.3162 28.317L14.1402 28.3587L8.39195 29.7212L9.60043 23.8542ZM26.1331 25.2556L26.1337 25.255C27.9128 23.4757 28.9163 21.0652 28.9255 18.549C28.9347 16.0329 27.9488 13.6151 26.1828 11.8228L26.1695 11.8093L26.1561 11.7977L26.1457 11.7857L26.1336 11.7736C24.3454 9.98597 21.9204 8.98172 19.3919 8.98172C16.8634 8.98172 14.4384 9.98597 12.6502 11.7736L12.6501 11.7737C11.2269 13.197 10.2908 15.0342 9.97568 17.0222C9.66062 19.0099 9.98271 21.0464 10.8958 22.8399C10.8959 22.8401 10.896 22.8402 10.896 22.8404L11.2142 23.4683L10.5109 26.8845L10.5021 26.9214L10.3141 27.7108L11.1037 27.5238L14.4998 26.7195L15.1493 27.0408C15.1495 27.0409 15.1497 27.041 15.1499 27.0411C16.9371 27.9303 18.9582 28.2363 20.9286 27.9161C22.8991 27.5958 24.7195 26.6652 26.1331 25.2556Z" stroke="#DBDBDB" stroke-opacity="0.13"/>
</g>
<g id="Vector_3">
<path d="M25.4632 22.2646C25.0255 22.954 24.334 23.7977 23.4649 24.0071C21.9424 24.375 19.6058 24.0198 16.6982 21.3088L16.6622 21.2771C14.1057 18.9067 13.4417 16.9337 13.6024 15.3689C13.6912 14.4808 14.4313 13.6773 15.0551 13.1528C15.1538 13.0687 15.2707 13.0087 15.3966 12.9778C15.5226 12.947 15.654 12.946 15.7804 12.9749C15.9067 13.0039 16.0246 13.0621 16.1245 13.1447C16.2244 13.2274 16.3035 13.3323 16.3556 13.451L17.2966 15.5656C17.3578 15.7027 17.3804 15.8539 17.3622 16.0029C17.3439 16.1519 17.2854 16.2931 17.193 16.4114L16.7172 17.0289C16.6151 17.1564 16.5535 17.3115 16.5403 17.4743C16.5271 17.6371 16.563 17.8001 16.6432 17.9424C16.9096 18.4097 17.5483 19.097 18.2566 19.7335C19.0517 20.4524 19.9335 21.1101 20.4918 21.3342C20.6412 21.3952 20.8054 21.4101 20.9633 21.377C21.1212 21.3438 21.2656 21.2641 21.3778 21.1481L21.9297 20.592C22.0362 20.487 22.1686 20.4121 22.3135 20.3749C22.4584 20.3378 22.6105 20.3397 22.7544 20.3805L24.9895 21.0149C25.1128 21.0527 25.2258 21.1183 25.3199 21.2065C25.414 21.2946 25.4867 21.4032 25.5324 21.5238C25.5781 21.6444 25.5956 21.7738 25.5836 21.9022C25.5717 22.0306 25.5305 22.1546 25.4632 22.2646Z" fill="white"/>
<path d="M23.3478 23.521L23.3475 23.5211C22.0344 23.8384 19.8632 23.5762 17.0392 20.9431L17.0393 20.943L17.029 20.9339L16.9977 20.9063C14.5124 18.6003 13.9609 16.7727 14.0998 15.42L14.0999 15.4187C14.1324 15.0941 14.2884 14.7548 14.5327 14.4183C14.7752 14.0844 15.084 13.7818 15.3769 13.5356L15.3769 13.5356L15.3797 13.5332C15.419 13.4996 15.4656 13.4758 15.5158 13.4635C15.5659 13.4511 15.6183 13.4507 15.6686 13.4623C15.719 13.4738 15.7659 13.497 15.8057 13.5299C15.8455 13.5628 15.877 13.6046 15.8978 13.6519L15.8978 13.6519L15.8988 13.6543L16.8398 15.7689L16.84 15.7693C16.8641 15.8234 16.8731 15.8832 16.8659 15.9421C16.8587 16.001 16.8356 16.0568 16.799 16.1036L16.799 16.1036L16.7969 16.1063L16.3237 16.7205C16.1612 16.9251 16.0631 17.1734 16.042 17.4339C16.0207 17.6962 16.0784 17.9588 16.2077 18.188L16.2077 18.188L16.2088 18.1901C16.5179 18.7321 17.2089 19.4642 17.9218 20.1048C18.719 20.8256 19.6565 21.5371 20.3041 21.7977C20.5455 21.896 20.8109 21.9199 21.0661 21.8663C21.3206 21.8128 21.5533 21.6847 21.7346 21.4984L22.2823 20.9465C22.3256 20.9044 22.3792 20.8743 22.4377 20.8593C22.4969 20.8441 22.5591 20.8449 22.6179 20.8615C22.6179 20.8615 22.6179 20.8616 22.618 20.8616L24.8468 21.4942C24.8957 21.5098 24.9405 21.5361 24.978 21.5712C25.0165 21.6073 25.0462 21.6517 25.0649 21.701L25.5324 21.5238L25.0649 21.701C25.0835 21.7503 25.0907 21.8032 25.0858 21.8557C25.081 21.9071 25.0648 21.9567 25.0383 22.001C24.8324 22.3247 24.5755 22.6707 24.2793 22.9554C23.9795 23.2437 23.6653 23.4445 23.3478 23.521Z" stroke="#DBDBDB" stroke-opacity="0.13"/>
</g>
</g>
</g>
</g>
</svg>
