<svg width="51" height="46" viewBox="0 0 51 46" fill="none" xmlns="http://www.w3.org/2000/svg">
<g id="Group">
<path id="Vector" d="M30.4045 29.4403C30.267 29.3998 30.1224 29.3898 29.9807 29.411C29.9642 29.4102 29.9476 29.4098 29.9311 29.4091C31.206 28.1635 31.9996 26.4271 31.9996 24.5081V14.7258C31.9996 14.1835 31.5598 13.7437 31.0175 13.7437H23.7419C20.7348 13.7437 18.2882 16.1902 18.2882 19.1973V24.508C18.2882 26.427 19.0819 28.1634 20.3568 29.409C20.3403 29.4097 20.3237 29.4101 20.3072 29.4109C20.1655 29.3898 20.0209 29.3998 19.8834 29.4402C14.8059 29.8961 10.8127 34.1744 10.8127 39.3686V44.1914C10.8127 44.7337 11.2526 45.1736 11.7949 45.1736H38.4931C39.0354 45.1736 39.4752 44.7337 39.4752 44.1914V39.3687C39.475 34.1746 35.482 29.8962 30.4045 29.4403ZM20.2524 20.5731V19.1973C20.2524 17.2733 21.8178 15.708 23.7417 15.708H30.0351V18.3364C30.0351 19.6646 28.9546 20.7451 27.6265 20.7451H20.2524V20.5731ZM20.2524 24.5081V22.7094H27.6265C28.4833 22.7102 29.3213 22.4578 30.0351 21.9838V24.508C30.0351 27.2051 27.8408 29.3994 25.1437 29.3994C22.4466 29.3994 20.2524 27.2052 20.2524 24.5081ZM27.7523 31.3637L25.1438 33.9722L22.5353 31.3637H27.7523ZM37.5107 43.2092H12.7769V40.3825H20.7919C21.3343 40.3825 21.7741 39.9426 21.7741 39.4003C21.7741 38.8579 21.3343 38.4181 20.7919 38.4181H12.8354C13.2695 34.7676 16.1688 31.8644 19.8174 31.424L24.4493 36.0558C24.6411 36.2476 24.8925 36.3435 25.1438 36.3435C25.3951 36.3435 25.6465 36.2476 25.8383 36.0558L30.4702 31.424C34.4306 31.902 37.5107 35.2814 37.5107 39.3687V43.2092Z" fill="#BEA86D"/>
<path id="Vector_2" d="M25.8382 38.7058C25.6556 38.5231 25.4022 38.418 25.1439 38.418C24.8856 38.418 24.6322 38.5231 24.4495 38.7058C24.2668 38.8885 24.1617 39.1419 24.1617 39.4002C24.1617 39.6585 24.2667 39.9119 24.4495 40.0946C24.6322 40.2772 24.8856 40.3824 25.1439 40.3824C25.4022 40.3824 25.6556 40.2773 25.8382 40.0946C26.0209 39.9119 26.1261 39.6585 26.1261 39.4002C26.1261 39.1419 26.021 38.8885 25.8382 38.7058ZM25.1564 0.189453C23.0984 0.189453 21.4241 1.86378 21.4241 3.92175C21.4241 5.63979 22.5913 7.08959 24.1742 7.52195V9.92074C24.1742 10.4631 24.614 10.9029 25.1564 10.9029C25.6988 10.9029 26.1386 10.4631 26.1386 9.92074V7.52195C27.7215 7.08959 28.8887 5.63979 28.8887 3.92175C28.8887 1.86378 27.2144 0.189453 25.1564 0.189453ZM25.1564 5.68969C24.1816 5.68969 23.3885 4.89657 23.3885 3.92175C23.3885 2.94694 24.1816 2.15382 25.1564 2.15382C26.1312 2.15382 26.9243 2.94694 26.9243 3.92175C26.9243 4.89657 26.1312 5.68969 25.1564 5.68969ZM44.8743 7.85059C44.1693 7.14568 43.2321 6.75742 42.2352 6.75742C41.2383 6.75742 40.3011 7.14568 39.5961 7.85069C38.3813 9.06555 38.1815 10.916 38.995 12.341L37.2987 14.0373C36.9152 14.4208 36.9152 15.0427 37.2987 15.4264C37.3899 15.5177 37.4982 15.5901 37.6174 15.6394C37.7366 15.6888 37.8643 15.7141 37.9934 15.714C38.1224 15.7141 38.2501 15.6888 38.3693 15.6394C38.4885 15.59 38.5967 15.5176 38.6879 15.4263L40.3833 13.7308C40.9412 14.0507 41.5748 14.2221 42.2352 14.2221C43.2321 14.2221 44.1693 13.8339 44.8742 13.1289C45.5794 12.424 45.9676 11.4867 45.9676 10.4898C45.9676 9.4929 45.5794 8.5556 44.8743 7.85059ZM43.4854 11.74C42.7961 12.4293 41.6745 12.4293 40.9853 11.74C40.2959 11.0506 40.2959 9.92899 40.9852 9.23969C41.3298 8.89495 41.7825 8.72267 42.2353 8.72267C42.6881 8.72267 43.1408 8.89495 43.4854 9.23969C43.8194 9.57364 44.0033 10.0176 44.0033 10.4899C44.0033 10.9622 43.8194 11.4061 43.4854 11.74ZM46.5555 23.8437C44.8375 23.8437 43.3877 25.0109 42.9553 26.5938H40.5566C40.0142 26.5938 39.5744 27.0336 39.5744 27.576C39.5744 28.1184 40.0142 28.5582 40.5566 28.5582H42.9553C43.3877 30.1411 44.8375 31.3083 46.5555 31.3083C48.6135 31.3083 50.2878 29.634 50.2878 27.576C50.2878 25.518 48.6135 23.8437 46.5555 23.8437ZM46.5555 29.3439C45.5807 29.3439 44.7876 28.5508 44.7876 27.576C44.7876 26.6012 45.5807 25.8081 46.5555 25.8081C47.5304 25.8081 48.3235 26.6012 48.3235 27.576C48.3235 28.5508 47.5304 29.3439 46.5555 29.3439ZM37.5262 26.8813C37.3436 26.6986 37.0902 26.5935 36.8319 26.5935C36.5736 26.5935 36.3202 26.6985 36.1375 26.8813C35.954 27.0659 35.8506 27.3154 35.8497 27.5757C35.8497 27.835 35.9547 28.0874 36.1375 28.27C36.3202 28.4538 36.5736 28.5579 36.8319 28.5579C37.0902 28.5579 37.3436 28.4537 37.5262 28.27C37.7089 28.0874 37.8141 27.834 37.8141 27.5757C37.8141 27.3174 37.709 27.065 37.5262 26.8813ZM9.73129 26.5689H7.3325C6.90014 24.986 5.45034 23.8188 3.7323 23.8188C1.67433 23.8188 0 25.4931 0 27.5511C0 29.609 1.67433 31.2834 3.7323 31.2834C5.45034 31.2834 6.90014 30.1161 7.3325 28.5332H9.73129C10.2736 28.5332 10.7135 28.0934 10.7135 27.5511C10.7135 27.0087 10.2737 26.5689 9.73129 26.5689ZM3.7323 29.319C2.75748 29.319 1.96437 28.5259 1.96437 27.5511C1.96437 26.5762 2.75748 25.7831 3.7323 25.7831C4.70712 25.7831 5.50023 26.5762 5.50023 27.5511C5.50023 28.5259 4.70712 29.319 3.7323 29.319ZM12.9296 13.9425L11.2341 12.2471C11.5541 11.6893 11.7254 11.0556 11.7254 10.3951C11.7254 9.39822 11.3372 8.46092 10.6321 7.75591C9.92714 7.05099 8.98993 6.66274 7.99302 6.66274C6.9961 6.66274 6.0589 7.05099 5.35389 7.75601C3.89878 9.21121 3.89878 11.5791 5.35389 13.0343C6.0589 13.7392 6.9961 14.1274 7.99312 14.1274C8.65354 14.1274 9.28724 13.956 9.84512 13.6361L11.5406 15.3316C11.7324 15.5233 11.9837 15.6193 12.2351 15.6193C12.4864 15.6193 12.7378 15.5233 12.9296 15.3316C13.3131 14.9481 13.3131 14.3261 12.9296 13.9425ZM9.24373 11.6449L9.24324 11.6454C8.55394 12.3349 7.43229 12.3349 6.74309 11.6454C6.05369 10.956 6.05369 9.83431 6.74299 9.14501C6.90704 8.98074 7.10194 8.8505 7.31647 8.76178C7.53101 8.67305 7.76096 8.62758 7.99312 8.62799C8.4459 8.62799 8.89859 8.80036 9.24324 9.14501C9.57718 9.47895 9.76115 9.9229 9.76115 10.3952C9.76115 10.8672 9.57728 11.311 9.24373 11.6449Z" fill="#BEA86D"/>
</g>
</svg>
