<svg width="230" height="231" viewBox="0 0 230 231" fill="none" xmlns="http://www.w3.org/2000/svg">
<g id="Group">
<path id="Vector" d="M227.124 224.438H215.984V22.8297C215.983 22.0672 215.681 21.336 215.141 20.7969C214.602 20.2578 213.871 19.9548 213.109 19.9547C153.291 19.9547 126.891 49.1554 125.796 50.3991C125.334 50.9238 125.079 51.5993 125.079 52.2988V92.7281H94.7157V3.06419C94.7158 2.68674 94.6416 2.31296 94.4973 1.9642C94.353 1.61543 94.1414 1.29851 93.8745 1.03154C93.6077 0.764564 93.2909 0.552765 92.9422 0.408237C92.5936 0.263709 92.2198 0.189283 91.8424 0.189209L18.1542 0.189209C17.3918 0.189507 16.6607 0.492614 16.1218 1.03187C15.5829 1.57112 15.2802 2.30235 15.2803 3.06475V224.438H2.87582C2.11311 224.438 1.38163 224.741 0.842309 225.28C0.302987 225.819 0 226.551 0 227.313C0 228.076 0.302987 228.808 0.842309 229.347C1.38163 229.886 2.11311 230.189 2.87582 230.189H227.124C227.887 230.189 228.618 229.886 229.158 229.347C229.697 228.808 230 228.076 230 227.313C230 226.551 229.697 225.819 229.158 225.28C228.618 224.741 227.887 224.438 227.124 224.438ZM210.233 25.7288V224.438H191.786V195.55C191.786 195.173 191.712 194.799 191.567 194.45C191.422 194.102 191.211 193.785 190.944 193.518C190.677 193.251 190.36 193.039 190.011 192.895C189.662 192.751 189.288 192.677 188.911 192.677H152.15C151.773 192.677 151.399 192.751 151.051 192.896C150.702 193.04 150.385 193.252 150.118 193.518C149.852 193.785 149.64 194.102 149.496 194.451C149.351 194.799 149.277 195.173 149.277 195.55V224.438H130.828V53.4521C135.245 49.0391 160.183 26.5632 210.232 25.7299L210.233 25.7288ZM186.037 224.436H155.026V198.425H186.037L186.037 224.436ZM125.079 224.436H75.4073V98.4775H125.079V224.436ZM21.0297 5.93917H88.9668V92.7276H72.5312C71.7686 92.7276 71.0373 93.0305 70.4981 93.5696C69.9588 94.1088 69.6558 94.84 69.6556 95.6026V224.438H57.875V195.55C57.8749 195.173 57.8004 194.799 57.6558 194.45C57.5112 194.101 57.2993 193.784 57.0322 193.518C56.7651 193.251 56.4481 193.039 56.0992 192.895C55.7503 192.751 55.3764 192.677 54.9989 192.677H35.4973C35.1198 192.677 34.746 192.751 34.3971 192.895C34.0483 193.039 33.7313 193.251 33.4643 193.518C33.1972 193.785 32.9854 194.102 32.8408 194.45C32.6963 194.799 32.6218 195.173 32.6217 195.55V224.438H21.0292L21.0297 5.93917ZM52.1233 224.438H38.3728V198.426H52.1233V224.438Z" fill="white"/>
<path id="Vector_2" d="M91.8423 125.546C92.2198 125.546 92.5936 125.472 92.9423 125.327C93.291 125.183 93.6078 124.971 93.8746 124.704C94.1415 124.437 94.3531 124.12 94.4974 123.771C94.6417 123.422 94.7158 123.048 94.7156 122.671V115.189C94.7156 114.427 94.4127 113.696 93.8737 113.156C93.3346 112.617 92.6035 112.315 91.8412 112.315C91.0788 112.315 90.3477 112.617 89.8086 113.156C89.2696 113.696 88.9668 114.427 88.9668 115.189V122.671C88.9668 123.433 89.2696 124.165 89.8088 124.704C90.3479 125.243 91.0792 125.546 91.8417 125.546H91.8423ZM108.613 125.546C109.376 125.546 110.107 125.243 110.646 124.704C111.185 124.165 111.488 123.433 111.488 122.671V115.189C111.488 114.426 111.185 113.695 110.646 113.156C110.107 112.617 109.376 112.314 108.613 112.313C107.851 112.314 107.12 112.617 106.581 113.156C106.043 113.695 105.74 114.426 105.74 115.188V122.671C105.74 123.433 106.042 124.164 106.581 124.703C107.12 125.243 107.851 125.546 108.613 125.546ZM91.8423 146.818C92.2198 146.818 92.5936 146.744 92.9423 146.599C93.291 146.455 93.6078 146.243 93.8746 145.976C94.1415 145.709 94.3531 145.392 94.4974 145.043C94.6417 144.694 94.7158 144.32 94.7156 143.943V136.461C94.7156 135.699 94.4127 134.968 93.8737 134.429C93.3346 133.889 92.6035 133.587 91.8412 133.587C91.0788 133.587 90.3477 133.889 89.8086 134.429C89.2696 134.968 88.9668 135.699 88.9668 136.461V143.943C88.9669 144.705 89.2698 145.436 89.809 145.975C90.3481 146.515 91.0793 146.818 91.8417 146.818L91.8423 146.818ZM108.613 146.818C109.376 146.818 110.107 146.515 110.646 145.976C111.185 145.437 111.488 144.705 111.488 143.943V136.461C111.488 136.083 111.414 135.709 111.269 135.361C111.125 135.012 110.913 134.695 110.646 134.428C110.379 134.16 110.062 133.949 109.714 133.804C109.365 133.659 108.991 133.585 108.613 133.585C107.851 133.585 107.12 133.889 106.581 134.428C106.042 134.967 105.74 135.699 105.74 136.461V143.943C105.74 144.705 106.043 145.436 106.581 145.975C107.12 146.514 107.851 146.817 108.613 146.818V146.818ZM91.8423 168.09C92.2198 168.09 92.5936 168.016 92.9423 167.871C93.291 167.727 93.6078 167.515 93.8746 167.248C94.1415 166.981 94.3531 166.664 94.4974 166.315C94.6417 165.966 94.7158 165.592 94.7156 165.215V157.733C94.7156 156.97 94.4127 156.239 93.8737 155.7C93.3346 155.161 92.6035 154.858 91.8412 154.858C91.0788 154.858 90.3477 155.161 89.8086 155.7C89.2696 156.239 88.9668 156.97 88.9668 157.733V165.215C88.9669 165.977 89.2698 166.708 89.809 167.248C90.3481 167.787 91.0793 168.09 91.8417 168.09L91.8423 168.09ZM108.613 168.09C109.376 168.09 110.107 167.787 110.646 167.248C111.185 166.709 111.488 165.977 111.488 165.215V157.733C111.488 156.97 111.185 156.239 110.646 155.7C110.107 155.161 109.376 154.858 108.613 154.858C107.851 154.858 107.12 155.161 106.581 155.7C106.043 156.239 105.74 156.97 105.74 157.733V165.215C105.74 165.977 106.043 166.708 106.581 167.247C107.12 167.786 107.851 168.089 108.613 168.09V168.09ZM91.8423 189.362C92.2198 189.362 92.5937 189.288 92.9424 189.143C93.2912 188.999 93.608 188.787 93.8748 188.52C94.1417 188.253 94.3533 187.935 94.4975 187.587C94.6418 187.238 94.7159 186.864 94.7156 186.486V179.005C94.7156 178.243 94.4127 177.512 93.8737 176.973C93.3346 176.434 92.6035 176.131 91.8412 176.131C91.0788 176.131 90.3477 176.434 89.8086 176.973C89.2696 177.512 88.9668 178.243 88.9668 179.005V186.487C88.9667 186.864 89.041 187.238 89.1854 187.587C89.3299 187.936 89.5416 188.253 89.8086 188.52C90.0755 188.787 90.3925 188.999 90.7414 189.144C91.0902 189.288 91.4641 189.363 91.8417 189.363L91.8423 189.362ZM108.613 189.362C108.991 189.362 109.365 189.288 109.714 189.143C110.062 188.999 110.379 188.787 110.646 188.52C110.913 188.253 111.125 187.936 111.269 187.587C111.414 187.238 111.488 186.864 111.488 186.486V179.005C111.488 178.243 111.185 177.512 110.646 176.972C110.107 176.433 109.376 176.13 108.613 176.13C107.851 176.131 107.12 176.434 106.581 176.973C106.043 177.512 105.74 178.243 105.74 179.005V186.487C105.74 187.249 106.042 187.98 106.581 188.52C107.12 189.059 107.851 189.362 108.613 189.363V189.362ZM91.8423 210.634C92.2197 210.634 92.5935 210.559 92.9422 210.415C93.2908 210.27 93.6076 210.058 93.8745 209.792C94.1413 209.525 94.3529 209.208 94.4972 208.859C94.6415 208.51 94.7157 208.136 94.7156 207.759V200.277C94.7156 199.514 94.4127 198.783 93.8737 198.244C93.3346 197.705 92.6035 197.402 91.8412 197.402C91.0788 197.402 90.3477 197.705 89.8086 198.244C89.2696 198.783 88.9668 199.514 88.9668 200.277V207.758C88.9668 208.521 89.2696 209.252 89.8088 209.791C90.3479 210.331 91.0792 210.634 91.8417 210.634H91.8423ZM108.613 210.634C109.376 210.634 110.107 210.331 110.646 209.792C111.185 209.252 111.488 208.521 111.488 207.759V200.277C111.488 199.514 111.185 198.783 110.646 198.243C110.107 197.704 109.376 197.401 108.613 197.401C107.851 197.402 107.12 197.705 106.581 198.244C106.042 198.783 105.74 199.514 105.74 200.277V207.758C105.74 208.521 106.042 209.252 106.581 209.791C107.12 210.33 107.851 210.633 108.613 210.634ZM35.4972 46.1266C36.2597 46.1265 36.991 45.8234 37.5301 45.2842C38.0693 44.7449 38.3722 44.0136 38.3722 43.2511V36.6263C38.3616 35.8707 38.054 35.1496 37.516 34.619C36.9779 34.0884 36.2526 33.7909 35.4969 33.7909C34.7412 33.7909 34.0159 34.0884 33.4779 34.619C32.9398 35.1496 32.6322 35.8707 32.6217 36.6263V43.25C32.6216 43.6276 32.6959 44.0015 32.8403 44.3504C32.9848 44.6993 33.1965 45.0164 33.4635 45.2834C33.7305 45.5505 34.0474 45.7624 34.3963 45.907C34.7451 46.0515 35.119 46.126 35.4966 46.1261L35.4972 46.1266ZM53.6034 46.1266C53.9809 46.1266 54.3548 46.0522 54.7036 45.9077C55.0523 45.7632 55.3692 45.5513 55.6361 45.2843C55.903 45.0173 56.1146 44.7002 56.259 44.3514C56.4033 44.0025 56.4775 43.6286 56.4772 43.2511V36.6263C56.4772 35.8639 56.1744 35.1328 55.6353 34.5938C55.0963 34.0547 54.3652 33.7519 53.6028 33.7519C52.8405 33.7519 52.1094 34.0547 51.5703 34.5938C51.0312 35.1328 50.7284 35.8639 50.7284 36.6263V43.25C50.7283 43.6276 50.8026 44.0015 50.9471 44.3504C51.0915 44.6993 51.3033 45.0164 51.5702 45.2834C51.8372 45.5505 52.1542 45.7624 52.503 45.907C52.8519 46.0515 53.2258 46.1265 53.6034 46.1266ZM35.4972 64.9527C35.8746 64.9528 36.2484 64.8786 36.5972 64.7343C36.946 64.59 37.2629 64.3784 37.5298 64.1115C37.7968 63.8447 38.0086 63.5279 38.1531 63.1792C38.2977 62.8306 38.3721 62.4568 38.3722 62.0794V55.4551C38.3616 54.6995 38.054 53.9785 37.516 53.4479C36.9779 52.9172 36.2526 52.6198 35.4969 52.6198C34.7412 52.6198 34.0159 52.9172 33.4779 53.4479C32.9398 53.9785 32.6322 54.6995 32.6217 55.4551V62.0794C32.6217 62.4568 32.6962 62.8306 32.8407 63.1792C32.9852 63.5279 33.197 63.8447 33.464 64.1115C33.731 64.3784 34.0479 64.59 34.3966 64.7343C34.7454 64.8786 35.1197 64.9528 35.4972 64.9527ZM53.6034 64.9527C53.9808 64.9529 54.3546 64.8787 54.7033 64.7344C55.052 64.5901 55.3689 64.3785 55.6358 64.1116C55.9027 63.8448 56.1144 63.528 56.2588 63.1793C56.4032 62.8305 56.4774 62.4568 56.4772 62.0794V55.4551C56.4772 54.6928 56.1744 53.9617 55.6353 53.4226C55.0963 52.8836 54.3652 52.5807 53.6028 52.5807C52.8405 52.5807 52.1094 52.8836 51.5703 53.4226C51.0312 53.9617 50.7284 54.6928 50.7284 55.4551V62.0794C50.7285 62.4568 50.8029 62.8306 50.9474 63.1792C51.092 63.5279 51.3038 63.8447 51.5707 64.1115C51.8377 64.3784 52.1546 64.59 52.5034 64.7343C52.8522 64.8786 53.2259 64.9528 53.6034 64.9527ZM72.5311 46.1266C73.2937 46.1266 74.0251 45.8237 74.5644 45.2844C75.1037 44.7451 75.4066 44.0137 75.4066 43.2511V36.6263C75.4066 35.8636 75.1037 35.1322 74.5644 34.593C74.0251 34.0537 73.2937 33.7507 72.5311 33.7507C71.7684 33.7507 71.037 34.0537 70.4978 34.593C69.9585 35.1322 69.6555 35.8636 69.6555 36.6263V43.25C69.6555 43.6276 69.7298 44.0016 69.8743 44.3505C70.0187 44.6995 70.2305 45.0166 70.4976 45.2836C70.7646 45.5507 71.0816 45.7626 71.4305 45.9071C71.7794 46.0517 72.1534 46.1266 72.5311 46.1266ZM72.5311 64.9527C72.9086 64.9529 73.2824 64.8787 73.6312 64.7345C73.9801 64.5902 74.2971 64.3786 74.5641 64.1117C74.8311 63.8449 75.043 63.5281 75.1875 63.1794C75.3321 62.8307 75.4065 62.4569 75.4066 62.0794V55.4551C75.4066 54.6925 75.1037 53.9611 74.5644 53.4218C74.0251 52.8826 73.2937 52.5796 72.5311 52.5796C71.7684 52.5796 71.037 52.8826 70.4978 53.4218C69.9585 53.9611 69.6555 54.6925 69.6555 55.4551V62.0794C69.6556 62.4569 69.7301 62.8307 69.8746 63.1794C70.0192 63.5281 70.231 63.8449 70.4981 64.1117C70.7651 64.3786 71.0821 64.5902 71.4309 64.7345C71.7797 64.8787 72.1536 64.9529 72.5311 64.9527ZM35.4972 83.7832C36.2597 83.7831 36.991 83.4801 37.5301 82.9408C38.0693 82.4016 38.3722 81.6702 38.3722 80.9077V74.2835C38.3722 73.5208 38.0692 72.7894 37.5299 72.2501C36.9907 71.7109 36.2593 71.4079 35.4966 71.4079C34.734 71.4079 34.0026 71.7109 33.4633 72.2501C32.9241 72.7894 32.6211 73.5208 32.6211 74.2835V80.9077C32.6211 81.2854 32.6955 81.6593 32.84 82.0082C32.9846 82.3572 33.1964 82.6742 33.4635 82.9412C33.7306 83.2082 34.0477 83.42 34.3966 83.5645C34.7455 83.709 35.1195 83.7833 35.4972 83.7832ZM53.6034 83.7832C53.9809 83.7832 54.3548 83.7088 54.7036 83.5643C55.0523 83.4198 55.3692 83.2079 55.6361 82.9409C55.903 82.6739 56.1146 82.3568 56.259 82.008C56.4033 81.6591 56.4775 81.2852 56.4772 80.9077V74.2835C56.4772 73.5214 56.1745 72.7906 55.6357 72.2517C55.0968 71.7129 54.366 71.4102 53.6039 71.4102C52.8417 71.41 52.1105 71.7126 51.5713 72.2514C51.032 72.7902 50.7289 73.5212 50.7284 74.2835V80.9077C50.7284 81.6702 51.0313 82.4016 51.5704 82.9408C52.1096 83.4801 52.8408 83.7831 53.6034 83.7832ZM72.5311 83.7832C72.9087 83.7832 73.2826 83.7089 73.6315 83.5643C73.9804 83.4198 74.2974 83.208 74.5644 82.941C74.8314 82.674 75.0432 82.357 75.1877 82.0081C75.3322 81.6592 75.4066 81.2853 75.4066 80.9077V74.2835C75.4066 72.6977 74.1191 71.4102 72.5311 71.4102C70.9431 71.4102 69.6555 72.6977 69.6555 74.2835V80.9077C69.6555 81.2853 69.7299 81.6592 69.8744 82.0081C70.0189 82.357 70.2307 82.674 70.4978 82.941C70.7648 83.208 71.0818 83.4198 71.4307 83.5643C71.7795 83.7089 72.1535 83.7832 72.5311 83.7832ZM151.418 143.572C152.18 143.572 152.912 143.269 153.451 142.73C153.99 142.191 154.293 141.459 154.293 140.697V133.807C154.293 133.044 153.991 132.313 153.451 131.774C152.912 131.235 152.181 130.932 151.419 130.932C150.657 130.932 149.925 131.235 149.386 131.774C148.847 132.313 148.545 133.044 148.545 133.807V140.697C148.544 141.074 148.619 141.448 148.763 141.797C148.907 142.145 149.119 142.462 149.386 142.729C149.652 142.996 149.969 143.208 150.318 143.353C150.667 143.497 151.04 143.571 151.418 143.572V143.572ZM169.525 143.572C170.287 143.572 171.019 143.269 171.558 142.73C172.097 142.191 172.4 141.459 172.4 140.697V133.807C172.4 133.044 172.097 132.313 171.558 131.773C171.019 131.234 170.287 130.931 169.525 130.931C168.762 130.931 168.031 131.234 167.491 131.773C166.952 132.313 166.649 133.044 166.649 133.807V140.697C166.649 141.459 166.952 142.19 167.491 142.73C168.031 143.269 168.762 143.572 169.525 143.572V143.572ZM151.418 163.159C152.18 163.159 152.912 162.856 153.451 162.317C153.99 161.778 154.293 161.047 154.293 160.284V153.394C154.293 152.632 153.991 151.901 153.451 151.362C152.912 150.823 152.181 150.52 151.419 150.52C150.657 150.52 149.925 150.823 149.386 151.362C148.847 151.901 148.545 152.632 148.545 153.394V160.284C148.544 160.662 148.619 161.035 148.763 161.384C148.907 161.733 149.119 162.05 149.386 162.317C149.652 162.584 149.969 162.796 150.318 162.94C150.667 163.085 151.04 163.159 151.418 163.159ZM169.525 163.159C170.287 163.159 171.018 162.856 171.558 162.317C172.097 161.778 172.4 161.047 172.4 160.284V153.394C172.4 152.632 172.097 151.9 171.558 151.361C171.019 150.822 170.287 150.519 169.525 150.519C168.762 150.519 168.031 150.822 167.491 151.361C166.952 151.9 166.649 152.632 166.649 153.394V160.284C166.649 161.047 166.952 161.778 167.491 162.317C168.031 162.856 168.762 163.159 169.525 163.159ZM188.454 143.572C189.217 143.572 189.948 143.269 190.487 142.73C191.027 142.191 191.329 141.459 191.329 140.697V133.807C191.329 133.044 191.027 132.313 190.487 131.773C189.948 131.234 189.217 130.931 188.454 130.931C187.691 130.931 186.96 131.234 186.421 131.773C185.881 132.313 185.578 133.044 185.578 133.807V140.697C185.579 141.459 185.882 142.19 186.421 142.73C186.96 143.269 187.691 143.572 188.454 143.572V143.572ZM188.454 163.159C189.216 163.159 189.948 162.856 190.487 162.317C191.026 161.778 191.329 161.047 191.329 160.284V153.394C191.329 152.632 191.027 151.9 190.487 151.361C189.948 150.822 189.217 150.519 188.454 150.519C187.691 150.519 186.96 150.822 186.421 151.361C185.881 151.9 185.578 152.632 185.578 153.394V160.284C185.579 161.047 185.882 161.778 186.421 162.317C186.96 162.856 187.691 163.159 188.454 163.159ZM151.418 182.747C151.795 182.747 152.169 182.673 152.518 182.528C152.867 182.384 153.184 182.172 153.451 181.906C153.718 181.639 153.93 181.322 154.074 180.973C154.219 180.625 154.293 180.251 154.293 179.873V172.982C154.293 172.219 153.991 171.488 153.451 170.949C152.912 170.41 152.181 170.107 151.419 170.107C150.657 170.107 149.925 170.41 149.386 170.949C148.847 171.488 148.545 172.219 148.545 172.982V179.873C148.544 180.251 148.619 180.624 148.763 180.973C148.907 181.322 149.119 181.638 149.386 181.905C149.653 182.172 149.969 182.384 150.318 182.528C150.667 182.672 151.04 182.747 151.418 182.747ZM169.525 182.747C169.902 182.747 170.276 182.673 170.625 182.528C170.974 182.384 171.291 182.172 171.558 181.906C171.825 181.639 172.036 181.322 172.181 180.973C172.326 180.625 172.4 180.251 172.4 179.873V172.982C172.4 172.219 172.097 171.488 171.558 170.948C171.019 170.409 170.287 170.106 169.525 170.106C168.762 170.106 168.031 170.409 167.491 170.948C166.952 171.488 166.649 172.219 166.649 172.982V179.873C166.649 180.251 166.724 180.625 166.868 180.973C167.013 181.322 167.225 181.639 167.492 181.906C167.759 182.172 168.076 182.384 168.424 182.528C168.773 182.673 169.147 182.747 169.525 182.747ZM188.454 182.747C188.831 182.747 189.205 182.673 189.554 182.528C189.903 182.384 190.22 182.172 190.487 181.906C190.754 181.639 190.966 181.322 191.11 180.973C191.255 180.625 191.329 180.251 191.329 179.873V172.982C191.329 172.219 191.027 171.488 190.487 170.948C189.948 170.409 189.217 170.106 188.454 170.106C187.691 170.106 186.96 170.409 186.421 170.948C185.881 171.488 185.578 172.219 185.578 172.982V179.873C185.578 180.251 185.653 180.625 185.797 180.973C185.942 181.322 186.154 181.639 186.421 181.906C186.688 182.172 187.005 182.384 187.354 182.528C187.703 182.673 188.076 182.747 188.454 182.747ZM151.418 104.395C151.795 104.395 152.169 104.321 152.518 104.177C152.867 104.032 153.184 103.821 153.451 103.554C153.718 103.287 153.93 102.97 154.074 102.622C154.219 102.273 154.293 101.899 154.293 101.522V94.6318C154.293 93.8694 153.991 93.1383 153.451 92.5993C152.912 92.0602 152.181 91.7574 151.419 91.7574C150.657 91.7574 149.925 92.0602 149.386 92.5993C148.847 93.1383 148.545 93.8694 148.545 94.6318V101.522C148.544 101.899 148.619 102.273 148.763 102.621C148.907 102.97 149.119 103.287 149.386 103.554C149.653 103.821 149.969 104.032 150.318 104.177C150.667 104.321 151.04 104.395 151.418 104.395ZM169.525 104.395C169.902 104.395 170.276 104.321 170.625 104.177C170.974 104.032 171.291 103.821 171.558 103.554C171.825 103.287 172.036 102.97 172.181 102.622C172.326 102.273 172.4 101.899 172.4 101.522V94.6318C172.4 93.8691 172.097 93.1377 171.558 92.5985C171.019 92.0592 170.287 91.7563 169.525 91.7563C168.762 91.7563 168.031 92.0592 167.491 92.5985C166.952 93.1377 166.649 93.8691 166.649 94.6318V101.522C166.649 101.899 166.724 102.273 166.868 102.622C167.013 102.97 167.225 103.287 167.492 103.554C167.759 103.821 168.076 104.032 168.424 104.177C168.773 104.321 169.147 104.395 169.525 104.395ZM188.454 104.395C188.831 104.395 189.205 104.321 189.554 104.177C189.903 104.032 190.22 103.821 190.487 103.554C190.754 103.287 190.966 102.97 191.11 102.622C191.255 102.273 191.329 101.899 191.329 101.522V94.6318C191.329 93.8691 191.027 93.1377 190.487 92.5985C189.948 92.0592 189.217 91.7563 188.454 91.7563C187.691 91.7563 186.96 92.0592 186.421 92.5985C185.881 93.1377 185.578 93.8691 185.578 94.6318V101.522C185.578 101.899 185.653 102.273 185.797 102.622C185.942 102.97 186.154 103.287 186.421 103.554C186.688 103.821 187.005 104.032 187.354 104.177C187.703 104.321 188.076 104.395 188.454 104.395ZM151.418 123.985C152.18 123.985 152.912 123.682 153.451 123.142C153.99 122.603 154.293 121.872 154.293 121.109V114.219C154.293 113.457 153.991 112.726 153.451 112.187C152.912 111.648 152.181 111.345 151.419 111.345C150.657 111.345 149.925 111.648 149.386 112.187C148.847 112.726 148.545 113.457 148.545 114.219V121.109C148.544 121.487 148.619 121.86 148.763 122.209C148.907 122.558 149.119 122.875 149.386 123.142C149.652 123.409 149.969 123.621 150.318 123.765C150.667 123.91 151.04 123.985 151.418 123.985ZM169.525 123.985C170.287 123.985 171.019 123.682 171.558 123.142C172.097 122.603 172.4 121.872 172.4 121.109V114.219C172.4 113.457 172.097 112.725 171.558 112.186C171.019 111.647 170.287 111.344 169.525 111.344C168.762 111.344 168.031 111.647 167.491 112.186C166.952 112.725 166.649 113.457 166.649 114.219V121.109C166.649 121.872 166.952 122.603 167.491 123.142C168.031 123.681 168.762 123.985 169.525 123.985ZM188.454 123.985C189.217 123.985 189.948 123.682 190.487 123.142C191.027 122.603 191.329 121.872 191.329 121.109V114.219C191.329 113.457 191.027 112.725 190.487 112.186C189.948 111.647 189.217 111.344 188.454 111.344C187.691 111.344 186.96 111.647 186.421 112.186C185.881 112.725 185.578 113.457 185.578 114.219V121.109C185.579 121.872 185.882 122.603 186.421 123.142C186.96 123.681 187.691 123.985 188.454 123.985ZM169.525 65.2205C169.902 65.2205 170.276 65.1461 170.625 65.0016C170.974 64.857 171.291 64.6452 171.558 64.3781C171.825 64.111 172.037 63.794 172.181 63.445C172.326 63.0961 172.4 62.7221 172.4 62.3444V55.4546C172.4 54.6919 172.097 53.9605 171.558 53.4213C171.019 52.882 170.287 52.579 169.525 52.579C168.762 52.579 168.031 52.882 167.491 53.4213C166.952 53.9605 166.649 54.6919 166.649 55.4546V62.3444C166.649 63.1071 166.952 63.8385 167.491 64.3777C168.031 64.917 168.762 65.22 169.525 65.22V65.2205ZM188.454 65.2205C188.832 65.2205 189.206 65.1461 189.555 65.0016C189.903 64.857 190.22 64.6452 190.487 64.3781C190.754 64.111 190.966 63.794 191.111 63.445C191.255 63.0961 191.33 62.7221 191.329 62.3444V55.4546C191.329 54.6919 191.027 53.9605 190.487 53.4213C189.948 52.882 189.217 52.579 188.454 52.579C187.691 52.579 186.96 52.882 186.421 53.4213C185.881 53.9605 185.578 54.6919 185.578 55.4546V62.3444C185.578 63.1071 185.881 63.8385 186.421 64.3777C186.96 64.917 187.691 65.22 188.454 65.22V65.2205ZM151.418 84.8103C151.795 84.8103 152.169 84.7359 152.518 84.5913C152.867 84.4468 153.184 84.2349 153.451 83.9678C153.718 83.7007 153.93 83.3837 154.075 83.0347C154.219 82.6858 154.293 82.3118 154.293 81.9342V75.0426C154.293 74.2803 153.991 73.5492 153.451 73.0101C152.912 72.471 152.181 72.1682 151.419 72.1682C150.657 72.1682 149.925 72.471 149.386 73.0101C148.847 73.5492 148.545 74.2803 148.545 75.0426V81.9342C148.544 82.3116 148.618 82.6855 148.763 83.0343C148.907 83.3831 149.119 83.7001 149.385 83.9672C149.652 84.2342 149.969 84.446 150.318 84.5906C150.667 84.7352 151.04 84.8102 151.418 84.8103ZM169.525 84.8103C169.902 84.8103 170.276 84.7359 170.625 84.5913C170.974 84.4468 171.291 84.2349 171.558 83.9678C171.825 83.7007 172.037 83.3837 172.181 83.0347C172.326 82.6858 172.4 82.3118 172.4 81.9342V75.0426C172.4 74.28 172.097 73.5486 171.558 73.0093C171.019 72.47 170.287 72.1671 169.525 72.1671C168.762 72.1671 168.031 72.47 167.491 73.0093C166.952 73.5486 166.649 74.28 166.649 75.0426V81.9342C166.649 82.6968 166.952 83.4282 167.491 83.9675C168.031 84.5067 168.762 84.8103 169.525 84.8103ZM188.454 84.8103C188.832 84.8103 189.206 84.7359 189.555 84.5913C189.903 84.4468 190.22 84.2349 190.487 83.9678C190.754 83.7007 190.966 83.3837 191.111 83.0347C191.255 82.6858 191.33 82.3118 191.329 81.9342V75.0426C191.329 74.28 191.027 73.5486 190.487 73.0093C189.948 72.47 189.217 72.1671 188.454 72.1671C187.691 72.1671 186.96 72.47 186.421 73.0093C185.881 73.5486 185.578 74.28 185.578 75.0426V81.9342C185.578 82.6968 185.881 83.4282 186.421 83.9675C186.96 84.5067 187.691 84.8103 188.454 84.8103ZM35.4972 102.609C35.8746 102.609 36.2484 102.535 36.5972 102.391C36.946 102.247 37.2629 102.035 37.5298 101.768C37.7968 101.501 38.0086 101.185 38.1531 100.836C38.2977 100.487 38.3721 100.113 38.3722 99.736V93.1118C38.3616 92.3561 38.054 91.6351 37.516 91.1045C36.9779 90.5739 36.2526 90.2764 35.4969 90.2764C34.7412 90.2764 34.0159 90.5739 33.4779 91.1045C32.9398 91.6351 32.6322 92.3561 32.6217 93.1118V99.736C32.6217 100.113 32.6962 100.487 32.8407 100.836C32.9852 101.185 33.197 101.501 33.464 101.768C33.731 102.035 34.0479 102.247 34.3966 102.391C34.7454 102.535 35.1197 102.609 35.4972 102.609ZM53.6034 102.609C53.9808 102.61 54.3546 102.535 54.7033 102.391C55.052 102.247 55.3689 102.035 55.6358 101.768C55.9027 101.501 56.1144 101.185 56.2588 100.836C56.4032 100.487 56.4774 100.113 56.4772 99.736V93.1118C56.4772 92.3494 56.1744 91.6183 55.6353 91.0792C55.0963 90.5402 54.3652 90.2373 53.6028 90.2373C52.8405 90.2373 52.1094 90.5402 51.5703 91.0792C51.0312 91.6183 50.7284 92.3494 50.7284 93.1118V99.736C50.7285 100.113 50.8029 100.487 50.9474 100.836C51.092 101.185 51.3038 101.501 51.5707 101.768C51.8377 102.035 52.1546 102.247 52.5034 102.391C52.8522 102.535 53.2259 102.609 53.6034 102.609ZM35.4972 121.44C36.2597 121.44 36.991 121.137 37.5301 120.598C38.0693 120.059 38.3722 119.327 38.3722 118.565V111.941C38.3722 111.178 38.0692 110.447 37.5299 109.907C36.9907 109.368 36.2593 109.065 35.4966 109.065C34.734 109.065 34.0026 109.368 33.4633 109.907C32.9241 110.447 32.6211 111.178 32.6211 111.941V118.565C32.6212 118.942 32.6956 119.316 32.8402 119.665C32.9848 120.014 33.1966 120.331 33.4637 120.598C33.7308 120.865 34.0478 121.077 34.3967 121.221C34.7456 121.366 35.1196 121.44 35.4972 121.44V121.44ZM53.6034 121.44C53.9809 121.44 54.3548 121.366 54.7036 121.221C55.0523 121.077 55.3692 120.865 55.6361 120.598C55.903 120.331 56.1146 120.014 56.259 119.665C56.4033 119.316 56.4775 118.942 56.4772 118.565V111.941C56.4773 111.563 56.4031 111.19 56.2587 110.841C56.1143 110.492 55.9027 110.175 55.6359 109.909C55.3691 109.642 55.0523 109.43 54.7036 109.286C54.355 109.141 53.9813 109.067 53.6039 109.067C52.8416 109.067 52.1103 109.369 51.5711 109.908C51.0318 110.447 50.7287 111.178 50.7284 111.941V118.565C50.7286 119.327 51.0315 120.058 51.5706 120.598C52.1098 121.137 52.8409 121.44 53.6034 121.44V121.44ZM35.4972 140.266C35.8746 140.266 36.2483 140.192 36.5971 140.048C36.9458 139.903 37.2627 139.692 37.5296 139.425C37.7966 139.158 38.0084 138.841 38.153 138.493C38.2975 138.144 38.372 137.771 38.3722 137.393V130.769C38.3616 130.013 38.054 129.292 37.516 128.762C36.9779 128.231 36.2526 127.934 35.4969 127.934C34.7412 127.934 34.0159 128.231 33.4779 128.762C32.9398 129.292 32.6322 130.013 32.6217 130.769V137.393C32.6217 137.771 32.6962 138.144 32.8407 138.493C32.9852 138.842 33.197 139.159 33.464 139.425C33.731 139.692 34.0479 139.904 34.3966 140.048C34.7454 140.192 35.1192 140.267 35.4966 140.266L35.4972 140.266ZM53.6034 140.266C53.9808 140.266 54.3545 140.192 54.7032 140.048C55.0519 139.903 55.3687 139.692 55.6356 139.425C55.9025 139.158 56.1142 138.842 56.2586 138.493C56.403 138.144 56.4773 137.771 56.4772 137.393V130.769C56.4772 130.007 56.1744 129.275 55.6353 128.736C55.0963 128.197 54.3652 127.895 53.6028 127.895C52.8405 127.895 52.1094 128.197 51.5703 128.736C51.0312 129.275 50.7284 130.007 50.7284 130.769V137.393C50.7285 137.771 50.8029 138.144 50.9474 138.493C51.092 138.842 51.3038 139.159 51.5707 139.425C51.8377 139.692 52.1546 139.904 52.5034 140.048C52.8522 140.192 53.2259 140.266 53.6034 140.266ZM35.4972 159.097C36.2597 159.097 36.991 158.794 37.5301 158.255C38.0693 157.715 38.3722 156.984 38.3722 156.221V149.597C38.3722 148.835 38.0692 148.103 37.5299 147.564C36.9907 147.025 36.2593 146.722 35.4966 146.722C34.734 146.722 34.0026 147.025 33.4633 147.564C32.9241 148.103 32.6211 148.835 32.6211 149.597V156.221C32.6211 156.599 32.6955 156.973 32.84 157.322C32.9846 157.671 33.1964 157.988 33.4635 158.255C33.7306 158.522 34.0477 158.734 34.3966 158.878C34.7455 159.023 35.1195 159.097 35.4972 159.097ZM53.6034 159.097C53.9809 159.097 54.3548 159.023 54.7036 158.878C55.0523 158.734 55.3692 158.522 55.6361 158.255C55.903 157.988 56.1146 157.671 56.259 157.322C56.4033 156.973 56.4775 156.599 56.4772 156.221V149.597C56.4772 149.22 56.4029 148.846 56.2585 148.498C56.1141 148.149 55.9025 147.832 55.6357 147.566C55.3689 147.299 55.0521 147.087 54.7035 146.943C54.3549 146.798 53.9813 146.724 53.6039 146.724C52.8417 146.724 52.1105 147.026 51.5713 147.565C51.032 148.104 50.7289 148.835 50.7284 149.597V156.221C50.7284 156.984 51.0313 157.715 51.5704 158.255C52.1096 158.794 52.8408 159.097 53.6034 159.097ZM35.4972 177.923C35.8746 177.923 36.2484 177.849 36.5972 177.705C36.946 177.56 37.2629 177.349 37.5298 177.082C37.7968 176.815 38.0086 176.498 38.1531 176.15C38.2977 175.801 38.3721 175.427 38.3722 175.05V168.426C38.3616 167.67 38.054 166.949 37.516 166.419C36.9779 165.888 36.2526 165.591 35.4969 165.591C34.7412 165.591 34.0159 165.888 33.4779 166.419C32.9398 166.949 32.6322 167.67 32.6217 168.426V175.05C32.6217 175.428 32.6962 175.802 32.8407 176.15C32.9852 176.499 33.197 176.816 33.464 177.083C33.731 177.349 34.0479 177.561 34.3966 177.705C34.7454 177.85 35.1192 177.924 35.4966 177.924L35.4972 177.923ZM53.6034 177.923C53.9808 177.923 54.3546 177.849 54.7033 177.705C55.052 177.561 55.3689 177.349 55.6358 177.082C55.9027 176.815 56.1144 176.498 56.2588 176.15C56.4032 175.801 56.4774 175.427 56.4772 175.05V168.426C56.4772 167.664 56.1744 166.933 55.6353 166.394C55.0963 165.855 54.3652 165.552 53.6028 165.552C52.8405 165.552 52.1094 165.855 51.5703 166.394C51.0312 166.933 50.7284 167.664 50.7284 168.426V175.05C50.7285 175.428 50.8029 175.802 50.9474 176.15C51.092 176.499 51.3038 176.816 51.5707 177.083C51.8377 177.349 52.1546 177.561 52.5034 177.705C52.8522 177.85 53.2259 177.923 53.6034 177.923Z" fill="white"/>
</g>
</svg>
