<svg width="39" height="45" viewBox="0 0 39 45" fill="none" xmlns="http://www.w3.org/2000/svg">
<g id="Group">
<path id="Vector" d="M6.08831 23.0285C5.24459 23.0285 5.30605 24.2952 6.14921 24.2952H15.3597C16.2381 24.2952 16.2381 23.0257 15.3597 23.0285C12.6676 23.0464 8.50324 23.0285 6.08831 23.0285ZM6.08831 28.6914C5.24459 28.6914 5.30605 29.9576 6.14921 29.9576H12.3072C13.1856 29.9576 13.1856 28.6859 12.3072 28.6914C9.61852 28.7088 8.50324 28.6914 6.08831 28.6914ZM6.08831 34.3544C5.24459 34.3544 5.30605 35.6239 6.14921 35.6239H12.3072C13.1856 35.6239 13.1856 34.3522 12.3072 34.3544C9.61852 34.3723 8.50324 34.3544 6.08831 34.3544ZM6.08831 17.3655C5.24459 17.3655 5.30605 18.6311 6.14921 18.6311H18.2004C19.0788 18.6311 19.0788 17.3594 18.2004 17.3655C15.5083 17.3828 8.50324 17.3655 6.08831 17.3655Z" fill="#BEA86D"/>
<g id="Group_2">
<path id="Vector_2" fill-rule="evenodd" clip-rule="evenodd" d="M9.86312 0.189453C9.67985 0.189453 9.50496 0.271031 9.38315 0.407926L0.154775 11.0187C0.0554363 11.1349 0.000587367 11.2826 0 11.4355V44.2092C0 44.5584 0.282729 44.8439 0.63195 44.8439H16.3206C16.4062 44.8479 16.4917 44.8346 16.5719 44.8046C16.6522 44.7747 16.7255 44.7288 16.7875 44.6698C16.8496 44.6107 16.899 44.5397 16.9328 44.461C16.9667 44.3824 16.9842 44.2976 16.9844 44.212C16.9844 43.851 16.6822 43.5633 16.3206 43.5772H1.26558V12.0663H10.9806C11.3299 12.0663 11.6148 11.7842 11.6148 11.4349V4.17672C11.6148 4.00889 11.5481 3.84794 11.4295 3.72927C11.3108 3.6106 11.1499 3.54393 10.982 3.54393C10.8142 3.54393 10.6532 3.6106 10.5346 3.72927C10.4159 3.84794 10.3492 4.00889 10.3492 4.17672V10.8002H2.02381L10.1509 1.45503H31.5964V15.8144C31.5923 15.8999 31.6056 15.9852 31.6355 16.0654C31.6653 16.1455 31.7111 16.2188 31.7701 16.2807C31.829 16.3427 31.9 16.392 31.9785 16.4258C32.0571 16.4595 32.1417 16.477 32.2272 16.4771C32.5882 16.4771 32.8765 16.1748 32.8625 15.8144V0.82755C32.8625 0.478329 32.5798 0.192806 32.2306 0.189453H9.86312Z" fill="#BEA86D"/>
<path id="Vector_3" fill-rule="evenodd" clip-rule="evenodd" d="M18.7419 29.9576H37.387V40.2163C37.3893 40.6516 37.3052 41.0831 37.1395 41.4857C36.9739 41.8883 36.7301 42.2541 36.4221 42.5618C36.1141 42.8695 35.7482 43.1131 35.3454 43.2783C34.9427 43.4436 34.5111 43.5274 34.0758 43.5247H22.0508C21.6156 43.5274 21.1841 43.4437 20.7814 43.2785C20.3788 43.1132 20.0129 42.8696 19.7051 42.5618C19.3973 42.2541 19.1537 41.8883 18.9883 41.4857C18.823 41.083 18.7392 40.6516 18.7419 40.2163V29.9576ZM28.0664 22.7636C29.5035 22.7636 30.607 23.8085 30.607 25.0422V28.692H25.5257V25.0422C25.5257 23.8085 26.6259 22.7636 28.0664 22.7636ZM28.0664 18.8496C31.634 18.8496 34.4714 21.521 34.4714 24.7774V28.6915H31.8732V25.0417C31.8732 23.0598 30.1327 21.4981 28.0664 21.4981C26.0001 21.4981 24.2568 23.0598 24.2568 25.0417V28.6915H21.6586V24.7774C21.658 21.521 24.4987 18.8496 28.0664 18.8496ZM28.0664 17.584C23.8584 17.584 20.3925 20.7879 20.3925 24.7779V28.692H18.1083C17.9406 28.693 17.7801 28.7603 17.6618 28.879C17.5434 28.9978 17.4768 29.1585 17.4763 29.3262V40.2169C17.4763 42.7391 19.5247 44.7914 22.0514 44.7914H34.0763C36.5997 44.7914 38.6531 42.7396 38.6531 40.2169V29.3256C38.6531 28.977 38.3681 28.6915 38.0189 28.6915H35.737V24.7774C35.7375 20.7879 32.271 17.584 28.0664 17.584Z" fill="#BEA86D"/>
<path id="Vector_4" fill-rule="evenodd" clip-rule="evenodd" d="M28.0662 33.4731C28.9513 33.4731 29.7022 34.2531 29.7022 35.2835C29.7022 35.8975 29.4139 36.4647 28.9658 36.7932C28.8672 36.864 28.7914 36.9618 28.7474 37.0749C28.7035 37.188 28.6933 37.3114 28.7183 37.4302L29.2424 40.0088H26.8906L27.4147 37.4302C27.4388 37.3115 27.4282 37.1883 27.3844 37.0754C27.3405 36.9625 27.2651 36.8645 27.1672 36.7932C26.7162 36.4647 26.4285 35.9003 26.4285 35.2835C26.4279 34.2531 27.1789 33.4731 28.0662 33.4731ZM28.0662 32.2075C26.4425 32.2075 25.1624 33.6156 25.1624 35.2835C25.1624 36.0747 25.6423 36.7094 26.1513 37.2793L25.4909 40.5184C25.4727 40.6101 25.475 40.7047 25.4976 40.7954C25.5203 40.8862 25.5628 40.9707 25.622 41.043C25.6813 41.1154 25.7558 41.1737 25.8403 41.2138C25.9248 41.2539 26.0171 41.2748 26.1106 41.275H30.0162C30.1101 41.2755 30.2028 41.2552 30.2878 41.2153C30.3727 41.1755 30.4477 41.1172 30.5073 41.0447C30.5669 40.9723 30.6095 40.8874 30.6322 40.7964C30.6548 40.7053 30.6568 40.6104 30.6381 40.5184L29.9777 37.276C30.4873 36.706 30.9672 36.0713 30.9672 35.2835C30.9678 33.6156 29.6866 32.2075 28.0662 32.2075Z" fill="#BEA86D"/>
</g>
</g>
</svg>
