<svg width="213" height="207" viewBox="0 0 213 207" fill="none" xmlns="http://www.w3.org/2000/svg">
<g id="Group">
<g id="Layer 33">
<path id="Vector" d="M106.502 27.9184C105.591 27.9184 104.718 27.5564 104.073 26.9122C103.429 26.2679 103.067 25.3941 103.067 24.483V3.87047C103.067 2.95934 103.429 2.08553 104.073 1.44127C104.718 0.797003 105.591 0.435059 106.502 0.435059C107.414 0.435059 108.287 0.797003 108.932 1.44127C109.576 2.08553 109.938 2.95934 109.938 3.87047V24.483C109.938 25.3941 109.576 26.2679 108.932 26.9122C108.287 27.5564 107.414 27.9184 106.502 27.9184ZM13.7463 158.464C12.9206 158.464 12.1225 158.166 11.4984 157.625C10.8742 157.085 10.4657 156.337 10.3476 155.52C10.2295 154.703 10.4098 153.87 10.8554 153.175C11.3011 152.48 11.9822 151.968 12.7741 151.734L30.2295 146.581C30.6643 146.445 31.1219 146.398 31.5754 146.441C32.0289 146.484 32.4693 146.616 32.871 146.831C33.2728 147.046 33.6278 147.338 33.9155 147.691C34.2031 148.045 34.4177 148.452 34.5466 148.888C34.6755 149.325 34.7163 149.784 34.6665 150.236C34.6167 150.689 34.4773 151.128 34.2565 151.526C34.0357 151.924 33.7379 152.275 33.3803 152.557C33.0228 152.839 32.6127 153.048 32.1739 153.17L14.7186 158.323C14.403 158.417 14.0755 158.464 13.7463 158.464ZM54.9713 199.689C54.4371 199.689 53.9103 199.564 53.4327 199.325C52.9551 199.086 52.5399 198.738 52.22 198.31C51.9002 197.883 51.6846 197.386 51.5903 196.86C51.4959 196.334 51.5256 195.794 51.6767 195.281L56.8299 177.823C57.0882 176.949 57.683 176.213 58.4835 175.778C59.284 175.343 60.2246 175.244 61.0984 175.502C61.9721 175.76 62.7075 176.355 63.1427 177.156C63.5779 177.956 63.6773 178.897 63.419 179.77L58.2659 197.226C58.056 197.937 57.6218 198.561 57.028 199.005C56.4342 199.449 55.7127 199.689 54.9713 199.689ZM66.9952 28.2001C66.3916 28.2007 65.7985 28.0422 65.2756 27.7406C64.7527 27.4391 64.3185 27.0051 64.0167 26.4824L53.7105 8.61821C53.2621 7.82959 53.1439 6.89562 53.3816 6.02013C53.6192 5.14464 54.1936 4.39871 54.9792 3.94511C55.7649 3.49151 56.698 3.36707 57.5751 3.59894C58.4521 3.83082 59.2018 4.40019 59.6606 5.1828L69.9669 23.0469C70.2682 23.5689 70.427 24.161 70.4271 24.7638C70.4273 25.3665 70.2689 25.9587 69.9678 26.4808C69.6667 27.003 69.2335 27.4367 68.7117 27.7385C68.19 28.0403 67.598 28.1994 66.9952 28.2001ZM146.01 28.2001C145.407 28.1994 144.815 28.0403 144.293 27.7385C143.771 27.4367 143.338 27.003 143.037 26.4808C142.736 25.9587 142.578 25.3665 142.578 24.7638C142.578 24.161 142.737 23.5689 143.038 23.0469L153.344 5.1828C153.803 4.40019 154.553 3.83082 155.43 3.59894C156.307 3.36707 157.24 3.49151 158.026 3.94511C158.811 4.39871 159.386 5.14464 159.623 6.02013C159.861 6.89562 159.743 7.82959 159.294 8.61821L148.988 26.4824C148.686 27.0051 148.252 27.4391 147.729 27.7406C147.206 28.0422 146.613 28.2007 146.01 28.2001ZM30.9234 182.512C30.244 182.512 29.58 182.31 29.0152 181.933C28.4504 181.555 28.0101 181.019 27.7502 180.391C27.4902 179.763 27.4222 179.073 27.5547 178.407C27.6872 177.74 28.0143 177.128 28.4946 176.648L42.2362 162.906C42.8841 162.28 43.7519 161.934 44.6527 161.942C45.5534 161.95 46.4151 162.311 47.052 162.948C47.689 163.585 48.0503 164.446 48.0581 165.347C48.0659 166.248 47.7197 167.116 47.0939 167.764L33.3522 181.505C32.7081 182.15 31.8345 182.512 30.9234 182.512ZM199.259 158.464C198.929 158.464 198.602 158.417 198.286 158.323L180.831 153.17C180.392 153.048 179.982 152.839 179.625 152.557C179.267 152.275 178.969 151.924 178.748 151.526C178.528 151.128 178.388 150.689 178.339 150.236C178.289 149.784 178.329 149.325 178.458 148.888C178.587 148.452 178.802 148.045 179.09 147.691C179.377 147.338 179.732 147.046 180.134 146.831C180.536 146.616 180.976 146.484 181.43 146.441C181.883 146.398 182.341 146.445 182.776 146.581L200.231 151.734C201.023 151.968 201.704 152.48 202.15 153.175C202.595 153.87 202.775 154.703 202.657 155.52C202.539 156.337 202.131 157.085 201.507 157.625C200.882 158.166 200.084 158.464 199.259 158.464ZM158.034 199.689C157.292 199.689 156.571 199.449 155.977 199.005C155.383 198.561 154.949 197.937 154.739 197.226L149.586 179.77C149.328 178.897 149.427 177.956 149.862 177.156C150.297 176.355 151.033 175.76 151.907 175.502C152.78 175.244 153.721 175.343 154.521 175.778C155.322 176.213 155.917 176.949 156.175 177.823L161.328 195.281C161.479 195.794 161.509 196.334 161.415 196.86C161.32 197.386 161.105 197.883 160.785 198.31C160.465 198.738 160.05 199.086 159.572 199.325C159.095 199.564 158.568 199.689 158.034 199.689ZM182.082 182.512C181.171 182.512 180.297 182.15 179.653 181.505L165.911 167.764C165.285 167.116 164.939 166.248 164.947 165.347C164.955 164.446 165.316 163.585 165.953 162.948C166.59 162.311 167.452 161.95 168.352 161.942C169.253 161.934 170.121 162.28 170.769 162.906L184.51 176.648C184.991 177.128 185.318 177.74 185.45 178.407C185.583 179.073 185.515 179.763 185.255 180.391C184.995 181.019 184.555 181.555 183.99 181.933C183.425 182.31 182.761 182.512 182.082 182.512ZM212.485 91.3704L178.131 36.4038C177.819 35.9114 177.387 35.5054 176.877 35.2233C176.367 34.9411 175.794 34.7919 175.211 34.7892H37.7942C37.2111 34.7919 36.6381 34.9411 36.1278 35.2233C35.6175 35.5054 35.1864 35.9114 34.8741 36.4038L0.519997 91.3704C0.119028 92.0174 -0.0578549 92.7784 0.0166515 93.5358C0.0911579 94.2933 0.412911 95.0052 0.932246 95.5617L104.75 205.495C105.074 205.836 105.464 206.107 105.897 206.291C106.33 206.475 106.796 206.568 107.266 206.565C107.736 206.562 108.2 206.462 108.631 206.272C109.061 206.082 109.447 205.806 109.766 205.461L212.073 95.5273C212.589 94.976 212.909 94.2701 212.983 93.5187C213.058 92.7673 212.883 92.0123 212.485 91.3704ZM169.027 41.66L140.857 86.6983L112.686 41.66H169.027ZM134.673 89.7558H78.3321L106.502 44.7175L134.673 89.7558ZM100.319 41.66L72.1484 86.6983L43.978 41.66H100.319ZM37.7942 44.7175L65.9646 89.7558H9.62384L37.7942 44.7175ZM11.4103 96.6266H69.6405L98.4293 188.764L11.4103 96.6266ZM106.502 191.616L76.8205 96.6266H136.184L106.502 191.616ZM113.923 190.929L143.364 96.6266H201.663L113.923 190.929ZM147.04 89.7558L175.211 44.7175L203.381 89.7558H147.04Z" fill="#D3BD82"/>
</g>
</g>
</svg>
