<svg width="154" height="76" viewBox="0 0 154 76" fill="none" xmlns="http://www.w3.org/2000/svg">
<path d="M47.791 49.6875H57.4896V52.9121H52.8759V75.5689H47.791V49.6875Z" fill="#0079C2"/>
<path d="M63.2405 65.8528L64.112 52.9121H64.4038L65.2753 65.8528H63.2405ZM57.6094 75.5689H62.5879L63.0591 68.6955H65.4567L65.9299 75.5689H70.9064L68.2545 49.6875H60.2613L57.6094 75.5689Z" fill="#0079C2"/>
<path d="M78.1886 66.5104V71.3897C78.1886 72.0473 78.6889 72.2382 78.9808 72.2382C79.4603 72.2382 79.7939 71.8352 79.7939 71.3897V65.3648C79.7939 64.5587 79.6479 63.6677 77.7507 63.6677H75.6867V60.825H77.8341C79.2727 60.825 79.7939 60.4855 79.7939 58.8945V53.7606C79.7939 53.3151 79.4603 52.9121 78.9808 52.9121C78.6889 52.9121 78.1886 53.0818 78.1886 53.7606V57.9823H73.1016V54.3122C73.1016 52.509 73.31 49.6875 76.8751 49.6875H81.0865C84.6515 49.6875 84.8809 52.509 84.8809 54.3122V58.449C84.8809 61.2705 82.942 62.0342 81.42 61.9705V62.2251C84.8392 62.1403 84.8809 64.8133 84.8809 65.7255V70.9442C84.8809 72.7686 84.6515 75.5689 81.0865 75.5689H76.8751C73.31 75.5689 73.1016 72.7686 73.1016 70.9442V66.5104H78.1886Z" fill="#0079C2"/>
<path d="M88.2168 49.6875H99.9961V75.5689H94.9091V52.9121H93.3038V75.5689H88.2168V49.6875Z" fill="#0079C2"/>
<path d="M108.419 63.9223V52.9121H109.086C109.628 52.9121 110.024 53.3788 110.024 54.2061V62.6282C110.024 63.4556 109.628 63.9223 109.086 63.9223H108.419ZM103.332 75.5689H108.419V66.765H111.338C114.882 66.765 115.111 63.9647 115.111 62.1403V54.3122C115.111 52.509 114.882 49.6875 111.338 49.6875H103.332V75.5689Z" fill="#0079C2"/>
<path d="M125.138 71.3897C125.138 71.8352 124.804 72.2382 124.325 72.2382C124.033 72.2382 123.532 72.0473 123.532 71.3897V53.7606C123.532 53.0818 124.033 52.9121 124.325 52.9121C124.804 52.9121 125.138 53.3151 125.138 53.7606V71.3897ZM118.445 70.9442C118.445 72.7686 118.675 75.5689 122.219 75.5689H126.451C129.995 75.5689 130.225 72.7686 130.225 70.9442V54.3122C130.225 52.509 129.995 49.6875 126.451 49.6875H122.219C118.675 49.6875 118.445 52.509 118.445 54.3122V70.9442Z" fill="#0079C2"/>
<path d="M146.78 49.6875H153.41V75.5689H148.323V59.34H148.135L145.509 75.5689H141.443L138.837 59.34H138.649V75.5689H133.562V49.6875H140.171L143.486 67.8893L146.78 49.6875Z" fill="#0079C2"/>
<path d="M41.1994 14.3018C39.6421 7.36476 35.7393 1.72178 35.2014 0.80957C34.3507 2.10364 31.2381 7.08898 29.6557 12.6047C27.9274 18.778 27.673 24.2513 28.2693 29.6185C28.8614 35.0069 31.0984 40.5438 31.0984 40.5438C32.2868 43.4289 34.0672 46.5475 35.2264 48.0749C36.9255 45.8262 40.8304 39.1225 42.048 30.3822C42.7255 25.5029 42.7547 21.2389 41.1994 14.3018ZM35.2014 46.3353C34.4362 44.8715 33.2479 42.0925 33.1353 37.7648C33.1061 33.6068 34.7469 30.0216 35.2264 29.2791C35.6538 30.0216 37.0673 33.1401 37.2362 37.4041C37.3508 41.5621 35.9915 44.8503 35.2014 46.3353ZM40.747 26.0757C40.6886 28.7275 40.378 31.5278 39.9819 33.2037C40.1236 30.3186 39.7838 26.2666 39.1334 23.0845C38.4829 19.9236 36.642 14.62 35.1722 12.1804C33.815 14.514 32.1429 19.0962 31.2673 23.0633C30.3875 27.0304 30.3625 31.846 30.3625 33.2886C30.129 32.0793 29.5452 27.7304 29.7099 23.3815C29.8475 19.7963 30.6731 16.0838 31.1255 14.3867C32.8518 8.72248 34.8052 5.09484 35.1722 4.52205C35.5391 5.09484 37.9992 9.57104 39.2751 14.2594C40.5448 18.9477 40.8012 23.4452 40.747 26.0757Z" fill="#0079C2"/>
<path d="M37.8426 49.6876H26.0028V57.7702C26.0133 57.7702 26.0216 57.749 26.032 57.749C28.8215 54.9063 33.3456 54.9063 36.1372 57.749C38.9267 60.5705 38.9267 65.174 36.1372 68.0167C36.1247 68.0379 36.1122 68.0379 36.0997 68.0591C36.0851 68.0591 36.0705 68.0803 36.058 68.1015C33.2747 70.9018 29.6388 72.3019 26.0028 72.3019C22.3502 72.3019 18.6976 70.9018 15.9123 68.0591C11.0004 63.0737 10.4187 55.3305 14.1631 49.6876C14.6676 48.9238 15.2493 48.2026 15.9123 47.5237C18.6976 44.681 22.3502 43.2809 26.0028 43.2809V23.8486C11.9678 23.8486 0.59082 35.4104 0.59082 49.6876C0.59082 63.9647 11.9678 75.5477 26.0028 75.5477C33.3206 75.5477 39.9128 72.3868 44.5495 67.359V49.6876H37.8426Z" fill="#0079C2"/>
</svg>
