<svg width="194" height="189" viewBox="0 0 194 189" fill="none" xmlns="http://www.w3.org/2000/svg">
<g id="Group">
<path id="Vector" d="M79.4767 169.217L78.9081 171.993L79.4559 169.214C79.0908 169.142 78.7152 169.143 78.3504 169.216C77.9857 169.289 77.6389 169.434 77.33 169.641C77.021 169.848 76.7559 170.114 76.5498 170.424C76.3437 170.734 76.2006 171.081 76.1287 171.446C76.0568 171.811 76.0575 172.187 76.1308 172.552C76.2041 172.916 76.3485 173.263 76.5557 173.572C76.763 173.881 77.0291 174.146 77.3389 174.352C77.6486 174.558 77.9959 174.701 78.361 174.773C78.3651 174.775 78.4078 174.782 78.4124 174.784C78.5926 174.818 78.7713 174.835 78.9481 174.835C80.2806 174.835 81.4689 173.891 81.7269 172.533C82.0224 170.995 81.0144 169.51 79.4763 169.217H79.4767ZM101.142 170.127L101.423 172.946L101.132 170.129C100.762 170.167 100.403 170.277 100.076 170.454C99.7486 170.631 99.4593 170.87 99.2246 171.159C98.9899 171.448 98.8143 171.78 98.708 172.136C98.6016 172.493 98.5666 172.867 98.6049 173.237C98.6428 173.607 98.7532 173.966 98.9299 174.294C99.1066 174.621 99.3461 174.911 99.6347 175.146C99.9233 175.381 100.255 175.556 100.612 175.663C100.969 175.769 101.343 175.805 101.713 175.767L101.791 175.758C103.34 175.576 104.44 174.178 104.268 172.629C104.093 171.081 102.691 169.965 101.142 170.127ZM90.2942 170.484L90.2526 170.483C88.6915 170.412 87.3869 171.625 87.3159 173.188C87.2467 174.751 88.4746 176.075 90.0373 176.146C90.409 176.163 90.7805 176.107 91.1304 175.98C91.4804 175.853 91.802 175.659 92.0768 175.408C92.3516 175.157 92.5742 174.855 92.732 174.517C92.8898 174.18 92.9796 173.816 92.9963 173.444C93.0132 173.072 92.9568 172.701 92.8302 172.351C92.7035 172.001 92.5092 171.679 92.2583 171.404C92.0074 171.13 91.7047 170.907 91.3677 170.749C91.0307 170.591 90.6659 170.501 90.2942 170.484ZM69.0098 166.338L68.9743 166.324C67.5015 165.796 65.8958 166.566 65.3677 168.039C64.8376 169.512 65.62 171.141 67.0927 171.671C67.8001 171.925 68.5792 171.887 69.2589 171.567C69.9386 171.246 70.4632 170.669 70.7175 169.962C70.8435 169.612 70.8993 169.24 70.8817 168.869C70.864 168.497 70.7733 168.132 70.6147 167.796C70.4562 167.459 70.2328 167.157 69.9574 166.907C69.682 166.657 69.36 166.463 69.0098 166.338ZM111.835 168.144L112.533 170.891L111.827 168.147C111.158 168.318 110.575 168.728 110.187 169.298C109.799 169.869 109.633 170.562 109.719 171.246C109.806 171.931 110.139 172.561 110.657 173.017C111.174 173.473 111.841 173.725 112.531 173.725C112.765 173.725 113.003 173.696 113.241 173.634C113.252 173.631 113.303 173.618 113.316 173.615C114.819 173.204 115.699 171.659 115.298 170.152C114.896 168.647 113.345 167.751 111.835 168.144ZM122.079 164.571L123.202 167.171L122.07 164.574C121.382 164.874 120.84 165.436 120.565 166.135C120.29 166.834 120.304 167.614 120.603 168.303C120.824 168.809 121.187 169.24 121.649 169.543C122.111 169.846 122.652 170.007 123.204 170.006C123.58 170.006 123.965 169.929 124.333 169.77C124.344 169.764 124.39 169.745 124.402 169.739C125.823 169.097 126.45 167.432 125.816 166.008C125.181 164.583 123.508 163.944 122.079 164.571H122.079ZM58.1862 35.4008C58.6407 35.4008 59.1028 35.2912 59.529 35.0642C59.8573 34.889 60.1479 34.6508 60.3842 34.3633C60.6206 34.0758 60.7979 33.7446 60.9062 33.3885C61.0144 33.0324 61.0515 32.6585 61.0153 32.2881C60.979 31.9177 60.8701 31.5581 60.6949 31.2298C60.5199 30.9015 60.2819 30.6109 59.9946 30.3746C59.7072 30.1383 59.3761 29.961 59.0202 29.8527C58.6643 29.7444 58.2905 29.7073 57.9203 29.7436C57.55 29.7798 57.1905 29.8886 56.8624 30.0638L56.8284 30.0816C55.4486 30.8183 54.9423 32.5257 55.6787 33.9069C56.1865 34.8605 57.1722 35.4008 58.1862 35.4008ZM25.4095 67.0497C25.7391 67.2229 26.0996 67.3295 26.4705 67.3632C26.8413 67.397 27.2151 67.3573 27.5705 67.2464C27.926 67.1355 28.2561 66.9556 28.5419 66.717C28.8278 66.4784 29.0638 66.1857 29.2364 65.8558L29.2866 65.7569C29.451 65.4229 29.548 65.0599 29.572 64.6885C29.596 64.3171 29.5465 63.9445 29.4265 63.5923C29.3064 63.24 29.118 62.9148 28.8722 62.6353C28.6264 62.3559 28.3279 62.1276 27.9938 61.9636C27.3242 61.6337 26.5515 61.5815 25.8437 61.8184C25.1358 62.0553 24.5502 62.5621 24.2141 63.2285C23.8666 63.8939 23.7973 64.67 24.0214 65.3864C24.2455 66.1028 24.7448 66.701 25.4095 67.0497ZM21.4202 77.7097C21.7213 77.8117 22.027 77.8601 22.3296 77.8601C22.9219 77.8595 23.4992 77.6734 23.9804 77.3279C24.4616 76.9825 24.8225 76.495 25.0125 75.934L25.0495 75.8218C25.1589 75.4661 25.1972 75.0925 25.1622 74.722C25.1271 74.3516 25.0194 73.9917 24.8452 73.663C24.671 73.3342 24.4337 73.043 24.1469 72.806C23.8601 72.569 23.5293 72.3908 23.1736 72.2817C22.4611 72.0622 21.6907 72.1325 21.0296 72.4772C20.3685 72.8219 19.8699 73.4133 19.6419 74.1231C19.4029 74.8346 19.4559 75.6118 19.7893 76.2842C20.1227 76.9566 20.7092 77.4693 21.4202 77.7097ZM30.9996 57.1363C31.3004 57.3556 31.6414 57.5134 32.0033 57.6007C32.3651 57.688 32.7406 57.7031 33.1082 57.6451C33.4759 57.5871 33.8285 57.4572 34.1459 57.2628C34.4633 57.0684 34.7393 56.8133 34.958 56.5122L34.995 56.4619C35.904 55.1898 35.6074 53.4247 34.3384 52.5157C33.0674 51.6052 31.2966 51.8972 30.3846 53.1667L32.6677 54.846L30.3755 53.1784C29.9335 53.7861 29.751 54.5444 29.8681 55.2867C29.9853 56.0289 30.392 56.6942 30.9996 57.1363ZM48.5667 41.5206C49.1614 41.5206 49.7606 41.3332 50.2729 40.9437C51.536 40.0199 51.8091 38.2472 50.885 36.9842C50.4411 36.378 49.7746 35.9729 49.0321 35.858C48.2896 35.7432 47.5318 35.928 46.9255 36.3718L46.8549 36.4232C45.6092 37.3692 45.361 39.1506 46.3071 40.3977C46.5712 40.7469 46.9127 41.0299 47.3047 41.2248C47.6967 41.4196 48.129 41.5209 48.5667 41.5206ZM18.8908 120.683C19.0686 121.261 19.4271 121.767 19.9137 122.127C20.4003 122.487 20.9893 122.681 21.5944 122.681C21.8702 122.681 22.1524 122.639 22.4297 122.554C23.9176 122.098 24.757 120.522 24.3112 119.031C24.106 118.315 23.6267 117.708 22.9773 117.343C22.3279 116.977 21.5607 116.883 20.8418 117.079C20.1168 117.277 19.5001 117.754 19.1273 118.407C18.7545 119.06 18.6561 119.833 18.8537 120.558L18.8908 120.683ZM40.0067 48.9884C40.7434 48.9884 41.4801 48.7036 42.0363 48.1368C43.1414 47.0299 43.1414 45.2353 42.0363 44.1302C41.7731 43.8669 41.4606 43.6581 41.1167 43.5157C40.7728 43.3732 40.4042 43.2999 40.032 43.2999C39.6597 43.2999 39.2911 43.3732 38.9473 43.5157C38.6034 43.6581 38.2909 43.8669 38.0277 44.1302L37.9805 44.1774C36.8856 45.2946 36.9075 47.0862 38.025 48.181C38.5539 48.7003 39.2655 48.9904 40.0067 48.9884ZM22.0228 108.329C21.8233 106.789 20.4171 105.697 18.8757 105.88C18.1297 105.97 17.4499 106.352 16.9853 106.942C16.5208 107.533 16.3095 108.283 16.398 109.03L16.4142 109.143C16.6209 110.551 17.8295 111.561 19.2127 111.561C19.3483 111.561 19.487 111.55 19.6271 111.53C21.1693 111.305 22.2397 109.871 22.0228 108.329ZM18.4627 100.213C18.4922 100.213 18.5205 100.214 18.5485 100.214C19.2853 100.214 19.993 99.9265 20.5215 99.4129C21.0499 98.8993 21.3575 98.2001 21.379 97.4636L21.3821 97.3427C21.3821 96.5912 21.0835 95.8704 20.5521 95.339C20.0207 94.8076 19.3 94.5091 18.5485 94.5091C17.8032 94.5087 17.0879 94.8021 16.5575 95.3256C16.0271 95.849 15.7243 96.5605 15.7149 97.3056C15.6948 98.0553 15.9728 98.7822 16.4879 99.3272C17.003 99.8722 17.7132 100.191 18.4627 100.213ZM19.0842 88.8491C19.8241 88.9811 20.5862 88.814 21.203 88.3845C21.8198 87.955 22.2409 87.2982 22.3738 86.5584C22.3814 86.5172 22.387 86.476 22.3927 86.4345C22.4471 86.0663 22.4284 85.6911 22.3376 85.3302C22.2469 84.9693 22.0859 84.6298 21.8638 84.3312C21.6418 84.0325 21.363 83.7806 21.0436 83.5897C20.7241 83.3989 20.3701 83.2729 20.0019 83.2189C18.4718 82.9915 17.0387 84.0437 16.792 85.5697C16.5238 87.1074 17.5476 88.5733 19.0842 88.8491ZM152.749 58.031C153.009 58.4091 153.358 58.7182 153.764 58.9314C154.171 59.1446 154.623 59.2554 155.082 59.2543C155.635 59.2543 156.196 59.0919 156.686 58.7541C157.974 57.8685 158.3 56.1034 157.415 54.8135L155.059 56.3898L157.406 54.8003C157.197 54.4923 156.93 54.2283 156.619 54.0236C156.308 53.819 155.96 53.6775 155.594 53.6073C155.229 53.5372 154.853 53.5397 154.489 53.6147C154.124 53.6898 153.778 53.8359 153.47 54.0447C153.162 54.2535 152.898 54.521 152.693 54.8318C152.489 55.1426 152.347 55.4907 152.277 55.8562C152.207 56.2217 152.209 56.5974 152.284 56.962C152.359 57.3265 152.506 57.6727 152.714 57.9807L152.749 58.031ZM167.22 86.5452C166.851 86.5867 166.492 86.7006 166.167 86.8806C165.841 87.0605 165.554 87.3029 165.322 87.5939C165.09 87.8849 164.917 88.2188 164.814 88.5764C164.711 88.9341 164.68 89.3086 164.722 89.6784L164.737 89.8012C164.844 90.5451 165.241 91.2161 165.843 91.6669C166.444 92.1176 167.2 92.3113 167.944 92.2052C168.681 92.0993 169.347 91.7074 169.798 91.1142C170.249 90.521 170.448 89.7742 170.352 89.0353C170.173 87.4841 168.765 86.371 167.22 86.5456L167.22 86.5452ZM162.438 78.5492L162.451 78.5862C162.623 79.1733 162.981 79.6888 163.47 80.0557C163.96 80.4226 164.556 80.6211 165.167 80.6215C165.432 80.6215 165.7 80.5845 165.967 80.5047C166.324 80.3999 166.657 80.2257 166.947 79.9921C167.237 79.7585 167.478 79.4701 167.656 79.1434C167.834 78.8167 167.947 78.4581 167.986 78.088C168.026 77.7179 167.992 77.3436 167.887 76.9866L167.876 76.9495C167.771 76.5923 167.597 76.2593 167.363 75.9695C167.129 75.6797 166.841 75.4388 166.514 75.2606C166.187 75.0824 165.829 74.9704 165.458 74.931C165.088 74.8916 164.714 74.9256 164.357 75.031C163.636 75.2431 163.029 75.733 162.669 76.3928C162.309 77.0525 162.226 77.8282 162.438 78.5492ZM158.436 67.9542C158.671 68.4316 159.035 68.8337 159.487 69.1149C159.939 69.3961 160.46 69.5452 160.992 69.5452C161.41 69.5452 161.835 69.4522 162.235 69.2543C163.638 68.564 164.221 66.8756 163.529 65.4705L160.961 66.6674L163.527 65.4644C163.369 65.1276 163.146 64.8251 162.871 64.5744C162.596 64.3236 162.275 64.1295 161.925 64.003C161.575 63.8765 161.203 63.8202 160.832 63.8372C160.46 63.8543 160.095 63.9444 159.759 64.1024C159.078 64.4212 158.552 64.9973 158.296 65.7039C158.041 66.4105 158.076 67.1898 158.395 67.8703L158.436 67.9542ZM145.613 49.1819C145.876 49.4516 146.191 49.6658 146.538 49.8118C146.886 49.9578 147.259 50.0326 147.636 50.0319C148.352 50.0319 149.068 49.7633 149.62 49.2215C150.152 48.7001 150.457 47.9898 150.469 47.2447C150.482 46.4996 150.199 45.7798 149.684 45.2413C149.431 44.9683 149.127 44.7479 148.789 44.5924C148.451 44.437 148.086 44.3497 147.714 44.3355C147.342 44.3212 146.971 44.3804 146.622 44.5095C146.273 44.6387 145.953 44.8353 145.68 45.0881C145.407 45.3409 145.187 45.6451 145.032 45.9831C144.876 46.3212 144.789 46.6865 144.775 47.0583C144.76 47.4301 144.82 47.801 144.949 48.15C145.078 48.4989 145.274 48.819 145.527 49.092L145.613 49.1819ZM168.142 98.3771C166.584 98.3371 165.281 99.5578 165.226 101.115C165.209 101.498 165.269 101.88 165.404 102.239C165.538 102.598 165.744 102.926 166.009 103.203C166.274 103.48 166.592 103.7 166.945 103.851C167.297 104.001 167.677 104.079 168.06 104.078C169.552 104.078 170.802 102.911 170.886 101.401L170.891 101.284C170.935 99.7214 169.704 98.4228 168.141 98.3771H168.142ZM127.493 35.2678L127.56 35.3045C127.967 35.5214 128.42 35.6349 128.881 35.6351C129.393 35.6347 129.896 35.4955 130.335 35.2322C130.775 34.969 131.135 34.5915 131.377 34.1401C132.115 32.7663 131.595 31.0484 130.226 30.3045L128.854 32.7837L130.217 30.2985C129.89 30.1196 129.532 30.0068 129.162 29.9664C128.792 29.9261 128.418 29.959 128.061 30.0633C127.703 30.1676 127.37 30.3412 127.08 30.5743C126.79 30.8074 126.548 31.0953 126.37 31.4217C125.618 32.7928 126.12 34.5164 127.492 35.2678H127.493ZM137.076 41.4824L137.121 41.5164C137.613 41.8904 138.214 42.0925 138.831 42.0919C139.425 42.0921 140.003 41.9059 140.486 41.5597C140.968 41.2135 141.329 40.7247 141.518 40.1622C141.708 39.5997 141.716 38.9919 141.541 38.4246C141.367 37.8573 141.019 37.359 140.546 37.0001L140.527 36.9869C140.231 36.7602 139.895 36.5939 139.535 36.4974C139.176 36.4009 138.801 36.3762 138.432 36.4246C138.063 36.473 137.707 36.5937 137.385 36.7796C137.063 36.9655 136.78 37.2131 136.554 37.5082C136.096 38.1046 135.894 38.8582 135.992 39.6034C136.09 40.3487 136.48 41.0246 137.076 41.4824H137.076Z" fill="#D3BC80"/>
<path id="Vector_2" d="M191.69 141.275L178.389 127.949C177.834 127.391 177.174 126.947 176.446 126.646C175.719 126.344 174.939 126.19 174.152 126.192C173.364 126.19 172.585 126.344 171.858 126.646C171.131 126.948 170.471 127.391 169.916 127.949L169.608 128.258L168.734 127.384C167.671 126.322 166.828 125.061 166.253 123.673C166.204 123.491 166.136 123.315 166.051 123.148C165.612 121.912 165.389 120.61 165.391 119.298V115.529C165.8 115.745 166.255 115.857 166.717 115.857C167.379 115.856 168.02 115.623 168.528 115.198C169.037 114.774 169.381 114.185 169.5 113.534C169.604 113.007 169.556 112.461 169.361 111.96C169.167 111.459 168.834 111.023 168.401 110.705C167.969 110.386 167.454 110.197 166.918 110.159C166.382 110.121 165.846 110.237 165.374 110.492C165.199 106.466 163.554 102.706 160.691 99.8366L147.786 86.9098C144.891 84.0097 141.04 82.4131 136.945 82.4131C133.775 82.4131 130.755 83.3738 128.208 85.1522L126.838 83.7751V51.3661C126.839 47.4618 125.42 43.6904 122.846 40.7549C121.015 38.6674 120.005 35.9847 120.007 33.2077V30.8328H120.201C123.505 30.8328 126.192 28.1454 126.192 24.8411V5.99208C126.192 2.68737 123.505 0 120.201 0H67.2711C63.9683 0 61.2806 2.68737 61.2806 5.99208V24.8411C61.2806 28.1454 63.9683 30.8332 67.2711 30.8332H67.7079V32.0754C67.7079 35.1304 66.5197 38.0025 64.3635 40.1617L58.651 45.8848C55.6195 48.9224 53.9503 52.9585 53.9503 57.2531V75.5342C53.9488 77.9338 54.5124 80.2999 55.5956 82.441C51.8383 82.6579 48.3364 84.2239 45.6532 86.9098L32.7487 99.8366C29.7171 102.874 28.0479 106.912 28.0479 111.205V119.298C28.0479 122.353 26.8616 125.225 24.7054 127.384L23.8418 128.249C23.8376 128.252 23.8342 128.255 23.8316 128.258L23.5248 127.949C22.97 127.391 22.3098 126.947 21.5825 126.646C20.8551 126.344 20.0751 126.19 19.2876 126.192C18.5004 126.19 17.7206 126.344 16.9935 126.646C16.2664 126.947 15.6064 127.391 15.052 127.949L1.74889 141.275C-0.582963 143.611 -0.582963 147.413 1.74889 149.749L6.30491 154.311C6.56767 154.574 6.87977 154.783 7.22336 154.926C7.56695 155.069 7.93531 155.143 8.30739 155.143C8.67947 155.143 9.04799 155.071 9.39187 154.928C9.73576 154.786 10.0483 154.578 10.3116 154.315C10.575 154.052 10.7841 153.74 10.9268 153.396C11.0695 153.052 11.1431 152.684 11.1434 152.311C11.1437 151.939 11.0706 151.57 10.9284 151.226C10.7862 150.882 10.5776 150.57 10.3146 150.306L5.76011 145.744C5.69851 145.682 5.6639 145.598 5.6639 145.511C5.6639 145.424 5.69851 145.341 5.76011 145.279L19.0632 131.954C19.0927 131.924 19.1278 131.9 19.1664 131.884C19.205 131.868 19.2464 131.86 19.2882 131.86C19.33 131.86 19.3714 131.868 19.41 131.884C19.4486 131.9 19.4837 131.924 19.5132 131.954L21.8261 134.271H21.8273L53.4055 165.903L56.9433 169.448C57.0718 169.577 57.0718 169.785 56.9433 169.913L43.6417 183.238C43.6121 183.268 43.5769 183.292 43.5382 183.308C43.4994 183.324 43.4578 183.333 43.4158 183.333C43.3738 183.333 43.3322 183.324 43.2934 183.308C43.2546 183.292 43.2194 183.268 43.1898 183.238L18.3374 158.342C18.0747 158.079 17.7626 157.87 17.4189 157.727C17.0753 157.584 16.7069 157.511 16.3348 157.51C15.9626 157.51 15.5941 157.583 15.2502 157.725C14.9062 157.867 14.5937 158.075 14.3304 158.338C14.0669 158.601 13.8577 158.913 13.7148 159.257C13.572 159.601 13.4983 159.969 13.4978 160.342C13.4974 160.714 13.5703 161.083 13.7124 161.427C13.8545 161.771 14.0629 162.083 14.3258 162.347L39.1801 187.242C40.3106 188.376 41.8161 189 43.4173 189C44.2044 189.002 44.9841 188.848 45.7111 188.546C46.4382 188.244 47.0981 187.801 47.6525 187.242L60.9545 173.917C63.2864 171.582 63.2864 167.781 60.9545 165.444L60.8098 165.3L62.4881 163.619C64.4454 161.655 67.0518 160.474 69.8183 160.295C73.7121 160.043 77.3803 158.38 80.1356 155.617L92.3555 143.371C95.8798 142.445 98.6234 139.575 99.3688 135.979C100.662 136.596 102.077 136.915 103.51 136.914C108.839 136.914 113.175 132.573 113.175 127.237V120.508C114.43 121.082 115.794 121.378 117.173 121.377C122.502 121.377 126.837 117.037 126.837 111.701V91.8096L135.553 100.568C135.816 100.833 136.129 101.044 136.474 101.187C136.819 101.33 137.188 101.403 137.562 101.403C137.933 101.403 138.301 101.331 138.644 101.189C138.987 101.047 139.299 100.84 139.562 100.577C140.094 100.047 140.394 99.3272 140.396 98.5757C140.397 97.8243 140.1 97.1029 139.57 96.5704L132.303 89.2681C133.725 88.4857 135.322 88.077 136.945 88.0802C139.524 88.0802 141.951 89.0867 143.775 90.9153L156.679 103.84C158.642 105.808 159.724 108.423 159.724 111.205V119.298C159.724 123.866 161.499 128.159 164.723 131.388L165.602 132.269L161.492 136.387L136.633 161.288L135.248 159.9C135.233 159.886 135.219 159.872 135.205 159.858L134.961 159.613C132.03 156.676 128.129 154.908 123.989 154.64C121.466 154.475 119.09 153.397 117.306 151.607L107.995 142.346C107.731 142.084 107.418 141.876 107.074 141.734C106.73 141.593 106.361 141.52 105.989 141.521C105.616 141.522 105.248 141.596 104.904 141.74C104.561 141.883 104.249 142.093 103.986 142.357C102.884 143.466 102.889 145.261 103.999 146.363L113.304 155.617C116.059 158.38 119.728 160.043 123.622 160.295C126.388 160.474 128.994 161.655 130.951 163.617L131.089 163.755C131.162 163.839 131.241 163.917 131.323 163.991L132.629 165.298L132.485 165.444C130.153 167.781 130.153 171.581 132.485 173.917L145.786 187.242C146.918 188.376 148.422 189 150.023 189C150.811 189.002 151.591 188.848 152.318 188.546C153.046 188.244 153.706 187.801 154.261 187.242L191.69 149.747C194.022 147.411 194.022 143.611 191.69 141.275ZM167.291 113.098L167.238 113.089L166.721 112.985L167.291 113.098ZM76.1248 151.613C74.3431 153.4 71.9709 154.476 69.4526 154.64C65.3113 154.908 61.4096 156.676 58.478 159.613L56.8058 161.288L55.3006 159.78C55.2817 159.761 55.2624 159.74 55.2432 159.723L27.8367 132.269L28.7167 131.388C31.9398 128.159 33.7151 123.866 33.7151 119.298V111.205C33.7151 108.423 34.7956 105.808 36.7599 103.841L49.6644 90.9153C51.4885 89.0867 53.9148 88.0802 56.4945 88.0802C58.1493 88.0802 59.7399 88.4962 61.1506 89.2771L53.8721 96.5677C53.3413 97.0995 53.0434 97.8204 53.044 98.5717C53.0445 99.3231 53.3435 100.043 53.8751 100.574C54.138 100.837 54.4502 101.046 54.7938 101.188C55.1374 101.33 55.5057 101.403 55.8775 101.403C56.2501 101.403 56.6191 101.33 56.9633 101.187C57.3076 101.045 57.6202 100.835 57.8833 100.571L66.5775 91.8614V127.237C66.5775 132.573 70.9132 136.914 76.2426 136.914C77.7448 136.914 79.1677 136.568 80.4367 135.954C81.0125 138.763 82.8071 141.13 85.2391 142.479L76.1248 151.613ZM121.171 111.702C121.171 113.913 119.377 115.712 117.173 115.712C114.968 115.712 113.175 113.913 113.175 111.702V80.0944C113.175 79.3429 112.877 78.6222 112.345 78.0908C111.814 77.5594 111.093 77.2608 110.342 77.2608C109.59 77.2608 108.869 77.5594 108.338 78.0908C107.807 78.6222 107.508 79.3429 107.508 80.0944V127.238C107.508 129.449 105.715 131.247 103.51 131.247C101.531 131.247 99.8883 129.797 99.571 127.901V80.0623C99.5713 79.5676 99.4421 79.0815 99.1963 78.6523C98.9504 78.2231 98.5964 77.8657 98.1695 77.6158C97.7426 77.3659 97.2577 77.2322 96.763 77.2279C96.2684 77.2236 95.7812 77.3489 95.3501 77.5914C94.8955 77.8326 94.5152 78.193 94.25 78.634C93.9848 79.0749 93.8447 79.5798 93.8449 80.0944V127.237C93.8449 127.597 93.8653 127.949 93.9038 128.299V134.009C93.9038 136.22 92.1107 138.019 89.9058 138.019C87.7024 138.019 85.9093 136.22 85.9093 134.009V80.0279C85.9093 79.2762 85.6107 78.5553 85.0792 78.0238C84.5476 77.4922 83.8267 77.1936 83.075 77.1936C82.3233 77.1936 81.6023 77.4922 81.0708 78.0238C80.5393 78.5553 80.2406 79.2762 80.2406 80.0279V127.237C80.2406 129.448 78.4475 131.247 76.2442 131.247C74.0393 131.247 72.2462 129.448 72.2462 127.237V74.5278C72.2462 73.7762 71.9476 73.0555 71.4162 72.5241C70.8848 71.9927 70.1641 71.6942 69.4126 71.6942C68.6611 71.6942 67.9403 71.9927 67.4089 72.5241C66.8775 73.0555 66.579 73.7762 66.579 74.5278V84.2768C66.3379 84.3541 66.1085 84.4639 65.897 84.6032C62.2323 83.2261 59.6174 79.6811 59.6174 75.5342V57.2531C59.6174 54.4713 60.6991 51.8561 62.6618 49.8888L68.3751 44.1654C71.5997 40.9366 73.3751 36.6431 73.3751 32.0754V30.8332H79.0717C79.8232 30.8332 80.5439 30.5346 81.0753 30.0032C81.6067 29.4718 81.9053 28.7511 81.9053 27.9996C81.9053 26.4339 80.6377 25.166 79.0717 25.166H67.2711C67.1853 25.1657 67.103 25.1314 67.0424 25.0705C66.9818 25.0097 66.9477 24.9273 66.9477 24.8415V5.99208C66.9477 5.81338 67.0924 5.66717 67.2711 5.66717H120.2C120.286 5.66717 120.369 5.7014 120.43 5.76233C120.491 5.82327 120.525 5.90591 120.525 5.99208V24.8411C120.525 25.0213 120.38 25.166 120.2 25.166H92.3748C91.6233 25.166 90.9026 25.4645 90.3712 25.9959C89.8398 26.5273 89.5412 27.2481 89.5412 27.9996C89.5412 28.7511 89.8398 29.4718 90.3712 30.0032C90.9026 30.5346 91.6233 30.8332 92.3748 30.8332H114.34V33.2077C114.34 37.3636 115.846 41.3703 118.584 44.4929C120.252 46.394 121.172 48.8369 121.171 51.3661V111.702ZM187.679 145.744L150.249 183.238C150.22 183.269 150.185 183.293 150.146 183.309C150.107 183.326 150.066 183.334 150.023 183.333C149.981 183.333 149.94 183.325 149.901 183.309C149.862 183.293 149.827 183.269 149.798 183.238L136.496 169.913C136.434 169.851 136.4 169.768 136.4 169.681C136.4 169.593 136.434 169.51 136.496 169.448L138.637 167.302L138.639 167.301L160.368 145.535L173.926 131.953C173.955 131.923 173.991 131.9 174.029 131.884C174.068 131.867 174.109 131.859 174.151 131.859C174.193 131.859 174.234 131.867 174.273 131.884C174.312 131.9 174.347 131.923 174.376 131.953L187.679 145.279C187.807 145.407 187.807 145.615 187.679 145.743L187.679 145.744Z" fill="#D3BC80"/>
<path id="Vector_3" d="M76.2424 12.3942C74.5793 12.3942 73.226 13.7505 73.226 15.4167C73.226 17.0843 74.5793 18.4392 76.2428 18.4392C77.9075 18.4392 79.2608 17.0843 79.2608 15.4167C79.2608 13.7505 77.9071 12.3942 76.2424 12.3942ZM175.079 141.562C173.414 141.562 172.061 142.918 172.061 144.584C172.061 146.25 173.414 147.607 175.079 147.607C176.742 147.607 178.096 146.25 178.096 144.584C178.096 142.918 176.742 141.562 175.079 141.562ZM47.2204 170.47C47.2204 168.804 45.8671 167.447 44.204 167.447C42.5394 167.447 41.186 168.804 41.186 170.47C41.186 172.136 42.5394 173.492 44.204 173.492C45.8671 173.492 47.2204 172.136 47.2204 170.47Z" fill="#D3BC80"/>
</g>
</svg>
