<svg width="47" height="44" viewBox="0 0 47 44" fill="none" xmlns="http://www.w3.org/2000/svg">
<g id="Group">
<path id="Vector" d="M38.2594 36.9928C38.3135 37.1648 38.4223 37.3142 38.569 37.418C38.7157 37.5219 38.8922 37.5746 39.0716 37.5679C39.2509 37.5612 39.4231 37.4956 39.5617 37.3811C39.7004 37.2666 39.7978 37.1095 39.8391 36.934L41.2606 30.5147C41.3055 30.3013 41.2648 30.0787 41.1475 29.8953C41.0301 29.7119 40.8454 29.5824 40.6336 29.5349C40.4218 29.4875 40.2 29.5259 40.0162 29.6419C39.8324 29.7579 39.7016 29.942 39.6521 30.1544L38.9615 33.2709C38.2557 31.9746 37.1721 30.9265 35.8563 30.2673C34.5404 29.6081 33.0553 29.3695 31.6006 29.5835C30.1458 29.7975 28.7911 30.4538 27.7183 31.4643C26.6456 32.4748 25.9063 33.791 25.5997 35.2362C24.8211 34.8161 23.9511 34.5962 23.0674 34.5962C22.1837 34.5962 21.3137 34.8161 20.5351 35.2362C20.2279 33.7914 19.4884 32.4755 18.4158 31.4651C17.3432 30.4547 15.9889 29.7982 14.5344 29.5835C13.08 29.3688 11.595 29.6063 10.2787 30.264C8.96232 30.9218 7.87759 31.9684 7.16999 33.2634L6.49427 30.2132C6.44356 30.0022 6.31248 29.8197 6.12923 29.7049C5.94599 29.5901 5.72523 29.5522 5.51444 29.5993C5.30365 29.6464 5.11967 29.7747 5.0021 29.9568C4.88453 30.1388 4.84274 30.36 4.88574 30.5726L6.28085 36.8711C6.74973 46.1535 19.8611 46.3896 20.6769 37.1568C21.3407 36.5787 22.1897 36.2606 23.0681 36.2609C23.9465 36.2612 24.7953 36.5799 25.4588 37.1585C25.5445 38.7175 26.1293 40.207 27.1261 41.4047C28.1228 42.6024 29.4781 43.4442 30.9898 43.8046C32.5015 44.1649 34.0885 44.0245 35.5143 43.4042C36.9401 42.7839 38.1282 41.7171 38.9014 40.3628C38.9552 40.2684 38.99 40.1642 39.0038 40.0563C39.0176 39.9484 39.0101 39.8388 38.9818 39.7338C38.9534 39.6287 38.9048 39.5304 38.8386 39.4443C38.7724 39.3581 38.69 39.286 38.5961 39.2319C38.4064 39.1226 38.1812 39.0935 37.9702 39.1511C37.7592 39.2086 37.5796 39.348 37.4708 39.5387C34.6592 44.4541 27.0912 42.4341 27.0863 36.7526C27.4422 29.1871 38.1045 29.4264 38.2594 36.9928ZM13.4863 42.3446C12.0115 42.3431 10.5975 41.7537 9.55454 40.7056C8.51161 39.6576 7.92491 38.2366 7.92316 36.7543C8.18356 29.3535 18.789 29.356 19.0494 36.7543C19.0476 38.2366 18.4609 39.6576 17.418 40.7056C16.3751 41.7537 14.9611 42.3431 13.4863 42.3446ZM41.1848 15.3537C39.9623 14.8797 38.709 14.4901 37.4337 14.1876C36.3518 11.4843 34.8199 7.53547 32.8644 2.40643C32.6658 1.89259 32.3568 1.42917 31.9594 1.04925C31.5619 0.669337 31.0859 0.382302 30.5654 0.208646C30.0448 0.0349901 29.4925 -0.0210026 28.948 0.0446667C28.4034 0.110336 27.88 0.296047 27.415 0.588538L24.2161 2.6052C23.8842 2.80831 23.5032 2.91609 23.1145 2.91682C22.7259 2.91755 22.3445 2.8112 22.0118 2.60934L18.7568 0.55541C18.2941 0.270048 17.7752 0.0892838 17.2361 0.0256594C16.6969 -0.037965 16.1504 0.0170741 15.6346 0.186958C15.1187 0.356842 14.6458 0.637503 14.2486 1.00946C13.8515 1.38143 13.5396 1.83578 13.3346 2.34101L7.59931 16.75C7.51988 16.9534 7.52366 17.1802 7.60985 17.3808C7.69604 17.5815 7.85764 17.7397 8.05943 17.8212C8.26123 17.9026 8.48686 17.9005 8.68716 17.8154C8.88745 17.7304 9.04618 17.5692 9.12874 17.367L14.8641 2.95553C14.9763 2.67305 15.1488 2.41871 15.3693 2.21041C15.5899 2.00211 15.8531 1.8449 16.1406 1.74985C16.4281 1.6548 16.7328 1.62421 17.0333 1.66024C17.3339 1.69627 17.6229 1.79803 17.8801 1.95838L21.1424 4.01645C21.7369 4.37876 22.4189 4.56999 23.1141 4.56926C23.8093 4.56853 24.491 4.37587 25.0847 4.01231L28.2877 1.99316C28.5467 1.82959 28.8384 1.72554 29.1421 1.68845C29.4457 1.65135 29.7537 1.68213 30.0442 1.77859C30.3346 1.87504 30.6002 2.03478 30.8221 2.2464C31.044 2.45802 31.2166 2.71629 31.3276 3.00274C33.3778 8.38106 36.2784 15.7247 36.2784 15.7247C36.7753 16.5976 36.8034 18.1869 38.046 17.8217C38.7959 17.4863 38.5215 16.6895 38.2207 16.1073C40.4464 16.6307 44.7001 18.5025 44.4983 20.0653C44.4983 22.7818 35.3349 25.8213 23.0732 25.8213C10.8114 25.8213 1.64808 22.7818 1.64808 20.0653C1.64808 19.0391 3.0506 17.8921 5.49471 16.9181C5.69796 16.8372 5.8609 16.6784 5.94767 16.4767C6.03444 16.275 6.03795 16.047 5.95741 15.8427C5.87687 15.6384 5.7189 15.4747 5.51823 15.3875C5.31756 15.3003 5.09064 15.2967 4.88739 15.3777C0.848763 16.9877 0 18.8155 0 20.0653C0 24.8796 11.8876 27.4777 23.0732 27.4777C34.2587 27.4777 46.1463 24.8796 46.1463 20.0653C46.1463 18.8014 45.2844 16.9579 41.1848 15.3537Z" fill="#BAA264"/>
</g>
</svg>
