<svg width="218" height="55" viewBox="0 0 218 55" fill="none" xmlns="http://www.w3.org/2000/svg">
<path fill-rule="evenodd" clip-rule="evenodd" d="M25.917 0.189453H25.949C26.3481 0.671113 26.5984 1.25943 26.6693 1.8821C26.732 2.64952 26.6296 3.42151 26.3692 4.14567C26.1731 4.74875 25.861 5.30359 25.6169 5.88656C25.4252 6.28989 25.306 6.72409 25.2648 7.16912C25.2892 7.77716 25.5193 8.35867 25.917 8.81755C26.1087 8.69018 26.2812 8.53582 26.4292 8.3592C27.1221 7.53938 27.9908 6.88785 28.97 6.45346C29.6148 6.17837 30.2732 5.93682 30.9427 5.72977C31.5509 5.53678 32.1671 5.37998 32.7713 5.17493L34.0957 4.73669C34.5052 4.60813 34.9061 4.4537 35.2961 4.27433C35.1568 4.66908 34.9897 5.05334 34.796 5.4242C34.4398 6.15594 34.0717 6.88769 33.7276 7.62747C33.5876 7.92499 33.4515 8.22251 33.3275 8.52807C33.2756 8.68741 33.2573 8.85588 33.2739 9.02271C33.2904 9.18955 33.3414 9.35109 33.4235 9.49702C34.0446 8.86556 34.7791 8.35806 35.5882 8.00138C36.2404 7.78025 36.9167 7.64757 37.5889 7.49077C38.7293 7.2415 39.8776 7.01233 41.026 6.78718C41.5225 6.69487 41.9846 6.4683 42.3625 6.13182C42.6944 5.81906 42.9996 5.4788 43.2748 5.11463C43.2828 5.54271 43.2668 5.97091 43.2267 6.39718C43.1541 6.90228 42.9695 7.38453 42.6866 7.80839C42.5067 8.16063 42.2286 8.45261 41.8863 8.64868C41.3301 8.91806 40.7259 9.07487 40.1657 9.34826C39.6945 9.5623 39.3125 9.93484 39.0854 10.4016C38.9263 10.8499 38.8596 11.3259 38.8893 11.8008C39.3359 11.4504 39.8173 11.1473 40.3258 10.8962C40.7403 10.7106 41.1851 10.603 41.6382 10.5786C41.938 10.5509 42.2404 10.5781 42.5305 10.659C43.1139 10.7963 43.6822 10.9915 44.2271 11.2419C43.5772 11.3172 42.9473 11.515 42.3705 11.8249C42.0183 11.9898 41.691 12.2037 41.3981 12.4602C41.3541 12.5084 41.2661 12.613 41.3581 12.6532C41.9756 12.9743 42.638 13.1993 43.3228 13.3206C44.7433 13.5658 46.1757 13.2804 47.5922 13.1638C48.9629 13.0223 50.3449 13.0318 51.7136 13.1919C52.3125 13.2604 52.8956 13.4303 53.4381 13.6945C54.3464 14.0965 55.2027 14.6152 56.071 15.0976C55.1387 15.0976 54.2104 15.0012 53.2701 15.0092C52.6451 15.0008 52.0212 15.0615 51.4095 15.1901C51.0487 15.2619 50.7132 15.4284 50.4371 15.6726C49.8329 16.1993 49.5648 17.0074 48.9606 17.5381C48.5163 17.8765 47.9775 18.0664 47.4201 18.0809C46.4917 18.2124 45.5501 18.2218 44.6192 18.109C44.9869 18.4483 45.4108 18.7204 45.8716 18.9131C46.5679 19.2227 47.3081 19.4318 47.9803 19.7896C48.5553 20.0801 49.047 20.5133 49.4088 21.0481C48.8006 21.2912 48.1691 21.4703 47.5242 21.5828C47.0071 21.6755 46.5084 21.852 46.0477 22.1055C45.9637 22.1537 45.8836 22.21 45.7996 22.2623C46.2383 22.5193 46.6475 22.824 47.02 23.1709C47.5442 23.6534 48.0123 24.1921 48.5205 24.6907C48.9318 25.0927 49.3733 25.4623 49.8409 25.7963C50.2176 26.0884 50.6118 26.357 51.0213 26.6004C52.1573 27.1252 53.2515 27.7368 54.2944 28.4298C54.751 28.7641 55.1854 29.1281 55.5948 29.5194C56.0425 29.944 56.3792 30.4729 56.5752 31.0592C56.6749 31.4708 56.7154 31.8946 56.6952 32.3177C56.4111 32.0885 56.135 31.8473 55.8349 31.6462C55.2361 31.3455 54.5952 31.1381 53.9343 31.0311C52.3858 30.7617 50.8053 30.8703 49.2527 30.629C48.7026 30.5533 48.1646 30.406 47.6522 30.1908C47.2162 29.928 46.7551 29.7098 46.2758 29.5395C46.4278 29.8893 46.5799 30.235 46.7279 30.5848C46.98 31.212 46.908 31.9116 47.128 32.5388C47.2 32.7284 47.3103 32.9009 47.4521 33.0454C47.3355 33.0748 47.2138 33.0774 47.0961 33.053C46.9783 33.0287 46.8675 32.978 46.7719 32.9047C46.4958 32.7479 46.2638 32.5267 45.9717 32.3739C45.5726 32.1528 45.1328 32.0159 44.6792 31.9719C45.7367 33.8445 46.2884 35.9623 46.2798 38.1153C46.2731 39.0141 46.3225 39.9124 46.4278 40.805C46.4903 41.3566 46.6014 41.9015 46.7599 42.4334C46.8544 42.7614 47.0003 43.0722 47.1921 43.3541C47.4811 43.7094 47.8055 44.0341 48.1604 44.323C47.7638 44.3889 47.3618 44.4158 46.96 44.4034C46.6976 44.4 46.4413 44.3235 46.2197 44.1823C45.8417 43.9054 45.5209 43.5572 45.2754 43.1571C44.8753 42.5459 44.5752 41.8745 44.2031 41.2473C43.8963 40.7461 43.5655 40.2582 43.2107 39.7838C42.892 39.342 42.5151 38.9457 42.0904 38.6058C41.6168 38.2417 41.0887 37.9553 40.5259 37.7575C40.7669 38.5563 40.9014 39.3837 40.926 40.218C40.95 41.3317 40.4738 42.3811 40.3898 43.4827C40.2383 42.9973 40.0273 42.5327 39.7616 42.0997C39.5605 41.7427 39.3332 41.4013 39.0814 41.0784C38.9343 40.8583 38.7192 40.693 38.4692 40.608C38.5839 41.4709 38.5906 42.3448 38.4892 43.2093C38.402 43.6996 38.268 44.1802 38.0891 44.6447C37.6089 46.0116 37.0007 47.3264 36.5325 48.6934C36.2905 49.3519 36.1227 50.0356 36.0324 50.7318C35.9043 51.8875 35.9043 53.0539 36.0324 54.2095H35.9203C35.1635 54.0607 34.4534 53.7309 33.8503 53.2481C33.2471 52.7652 32.7686 52.1434 32.4552 51.4354C32.1632 50.7222 32.0268 49.9545 32.0551 49.1839C32.1002 48.4571 32.2498 47.7407 32.4992 47.057C32.8993 45.879 33.4115 44.717 33.4795 43.4586C33.1826 43.4491 32.8888 43.5229 32.6313 43.6717C31.7077 44.2558 30.9247 45.0385 30.3385 45.9634C29.5622 47.0409 28.894 48.2109 27.9377 49.1437C28.0574 48.4718 28.1415 47.7941 28.1898 47.1133C28.2527 46.2883 28.4305 45.4763 28.718 44.701C28.8893 44.2637 29.1108 43.8482 29.3782 43.4626C29.5086 43.2186 29.6685 42.9917 29.8543 42.7872C29.4567 42.7313 29.0553 42.7071 28.6539 42.7148C28.3962 42.7377 28.1436 42.8014 27.9057 42.9038C27.3294 43.1036 26.789 43.3955 26.3052 43.7682C25.7993 44.1887 25.3258 44.647 24.8887 45.1392C24.4886 45.5412 24.0884 45.9755 23.6643 46.3655C22.2844 47.5786 20.6394 48.4477 18.8627 48.9024C18.0249 49.1389 17.168 49.3004 16.3019 49.3849C15.5963 49.4643 14.8824 49.4263 14.1892 49.2723C13.5832 49.1434 13.0477 48.7904 12.6887 48.2833C13.9165 48.157 15.1041 47.7721 16.1738 47.1535C17.1696 46.5341 18.0332 45.7224 18.7147 44.7653C18.9747 44.4235 19.2068 44.0536 19.4469 43.6958C19.7881 43.2386 20.1923 42.8325 20.6473 42.4897C21.2824 41.9855 21.974 41.5578 22.708 41.2151C21.893 41.235 21.0808 41.3197 20.2792 41.4684C19.6983 41.5793 19.1249 41.727 18.5626 41.9107C17.2264 42.3649 15.8187 42.5693 14.4092 42.5138C13.4631 42.43 12.5385 42.1824 11.6763 41.782C12.2956 41.6738 12.899 41.4887 13.4729 41.2312C13.8656 41.0417 14.224 40.7876 14.5333 40.4794C14.9534 40.0773 15.2975 39.5828 15.7337 39.2089C16.2618 38.7904 16.8689 38.4841 17.5183 38.3083C17.0735 38.0566 16.6091 37.8415 16.1298 37.665C15.5047 37.4596 14.8571 37.3313 14.2012 37.283C11.9124 37.0539 9.62365 37.3996 7.3309 37.3715C6.98856 37.3769 6.64627 37.3581 6.30656 37.3152C5.41905 37.2024 4.55713 36.9387 3.75772 36.5352C3.26768 36.2802 2.81076 35.9656 2.39727 35.5984C2.16121 35.3981 1.94298 35.1775 1.74505 34.9391C1.2729 34.344 0.827415 33.7316 0.40861 33.1017C0.231643 32.8177 0.0879736 32.5142 -0.0195312 32.197C0.292572 32.382 0.608676 32.5669 0.932783 32.7398C1.48276 33.0087 2.06516 33.2046 2.66536 33.3228C3.79989 33.5722 4.97553 33.5639 6.10649 33.2987C6.64879 33.1444 7.16527 32.91 7.639 32.6031C8.04643 32.3452 8.47013 32.1142 8.90742 31.9116C9.29313 31.7632 9.69682 31.6672 10.1078 31.6261C10.6285 31.5346 11.1629 31.5607 11.6723 31.7025C11.3962 31.3339 11.0779 30.9993 10.724 30.7054C10.272 30.3628 9.78187 30.074 9.26353 29.845C8.77267 29.611 8.2626 29.42 7.73903 29.2741C7.09057 29.1195 6.45718 28.9069 5.84641 28.6389C4.95906 28.1843 4.26958 27.4171 3.90977 26.4838C4.09026 26.5571 4.26659 26.6403 4.43794 26.7331C4.89068 26.9386 5.3976 26.9908 5.88242 26.8819C6.76271 26.7412 7.59098 26.3954 8.46727 26.2426C8.95847 26.1355 9.47042 26.1804 9.93576 26.3713C10.4171 26.6157 10.8486 26.9484 11.2082 27.3523C11.05 26.6825 10.8427 26.0253 10.588 25.3862C10.3719 24.8435 10.0398 24.357 9.78771 23.8383C9.38758 23.1267 9.01945 22.403 8.69535 21.6592C8.18224 20.5508 7.84214 19.3697 7.68701 18.1573C7.59144 17.4025 7.61439 16.6373 7.75504 15.8897C7.9136 15.1379 8.18335 14.4142 8.5553 13.7427C8.93143 13.0472 9.37557 12.3838 9.81572 11.7324C9.81572 12.5366 9.81572 13.3407 9.89174 14.1448C9.95602 15.1479 10.4084 16.0859 11.1522 16.7581C11.6335 17.2062 12.2448 17.488 12.8967 17.5622C12.8967 17.1602 12.8967 16.7179 12.8967 16.2998C12.9345 15.3834 13.0469 14.4717 13.2328 13.5739C13.3649 12.9145 13.5409 12.2632 13.697 11.6078C13.9171 10.7193 14.1331 9.83475 14.3532 8.94621C14.5664 8.21774 14.7006 7.46824 14.7533 6.71078C14.7568 6.15777 14.5966 5.61621 14.2932 5.15483C14.7377 5.13533 15.1771 5.25625 15.5496 5.5006C16.0352 5.85409 16.4336 6.31489 16.714 6.84748C16.9909 7.39477 17.1697 7.9868 17.2422 8.59642C17.3389 9.42916 17.3295 10.2709 17.2142 11.1012C17.1215 11.686 17.0946 12.2794 17.1341 12.8703C17.1377 13.0587 17.1902 13.243 17.2862 13.405C17.4599 13.6439 17.6584 13.8636 17.8784 14.0603L18.7907 11.246C18.9747 10.6911 19.1388 10.1282 19.3589 9.58547C19.675 8.78137 20.0031 7.97726 20.3592 7.17315C20.5751 6.67028 20.8196 6.18031 21.0914 5.70565C21.3883 5.26725 21.7075 4.84452 22.0478 4.43916C22.848 3.47825 23.6803 2.55755 24.5326 1.64489C25.0007 1.15438 25.4609 0.651816 25.957 0.189453H25.917ZM28.2218 12.7376C27.8217 12.7376 27.4455 12.7778 27.0614 12.822C23.5568 13.2302 20.3508 15.0015 18.1303 17.7563C15.9098 20.5111 14.8515 24.0302 15.1821 27.5596C15.5127 31.089 17.206 34.3479 19.8991 36.6379C22.5922 38.928 26.0708 40.067 29.5897 39.811C33.1085 39.555 36.3875 37.9242 38.7242 35.2682C41.0608 32.6122 42.2692 29.1422 42.0903 25.6017C41.9114 22.0613 40.3595 18.7321 37.7672 16.3275C35.1749 13.9229 31.7483 12.6342 28.2218 12.7376ZM23.0201 14.8685C23.3572 14.8865 23.692 14.935 24.0204 15.0132C25.1458 15.3529 26.2121 15.8656 27.1815 16.533C27.3094 16.485 27.445 16.4605 27.5816 16.4606C27.5548 16.471 27.5318 16.4892 27.5154 16.5128C27.499 16.5365 27.49 16.5645 27.4896 16.5933C27.5834 16.6115 27.6783 16.6236 27.7736 16.6295C27.7296 16.6978 27.6736 16.7702 27.6976 16.8546C27.724 16.9393 27.7776 17.0129 27.85 17.0638C27.9224 17.1147 28.0095 17.1401 28.0978 17.1361C28.1038 17.0945 28.0992 17.052 28.0845 17.0126C28.0699 16.9733 28.0455 16.9383 28.0137 16.9109C28.0639 16.8202 28.1471 16.7525 28.2458 16.722C28.2438 16.6965 28.2438 16.671 28.2458 16.6456L28.1258 16.5853C28.1258 16.5531 28.1578 16.5209 28.1778 16.4888L28.3618 16.4405C28.3618 16.4687 28.3818 16.4968 28.3899 16.529L28.2978 16.5933C28.298 16.691 28.3335 16.7854 28.3979 16.8586C28.3979 16.8828 28.3979 16.931 28.3979 16.9551C28.4365 16.9515 28.4755 16.9578 28.5111 16.9732C28.5468 16.9887 28.578 17.0129 28.6019 17.0436C28.5419 17.0436 28.4859 17.0074 28.4259 16.9953L28.3818 17.0878H28.2898C28.2898 17.0878 28.2898 17.1361 28.2698 17.1562L28.1098 17.1883L28.5099 17.5341L28.4219 17.5944C28.2205 17.3791 27.9886 17.1949 27.7336 17.0476C27.7336 17.0918 27.7616 17.1401 27.7776 17.1883C27.7324 17.2418 27.6726 17.281 27.6056 17.3009C27.5336 17.325 27.4295 17.321 27.4015 17.4135C27.4405 17.438 27.4779 17.4648 27.5136 17.4939L27.4335 17.5743C27.6976 17.6346 27.9657 17.6829 28.2338 17.7432L28.1898 17.8316C27.9027 17.7374 27.5952 17.7249 27.3015 17.7954C27.3015 17.7633 27.3015 17.6989 27.3255 17.6668C27.2296 17.6608 27.1333 17.6608 27.0374 17.6668C27.0228 17.6846 27.0094 17.7034 26.9974 17.7231L26.7813 17.6748C26.7813 17.7914 26.8693 17.8477 26.9454 17.904C26.9374 17.9187 26.9265 17.9315 26.9135 17.9419C26.9004 17.9523 26.8854 17.9599 26.8693 17.9643C26.8144 17.9063 26.7636 17.8445 26.7173 17.7794C26.6812 17.7885 26.6462 17.802 26.6133 17.8196C26.4652 17.7351 26.2972 17.6185 26.1211 17.6989L26.0731 17.5944L25.873 17.6708C25.873 17.5301 25.729 17.5984 25.6489 17.6225C25.6169 17.5542 25.5849 17.4899 25.5569 17.4215C25.3248 17.4014 25.0888 17.3853 24.8567 17.3612L24.8007 17.4095C24.786 17.3903 24.7726 17.3702 24.7607 17.3492C23.5331 17.2372 22.2977 17.244 21.0714 17.3693C20.3898 17.4518 19.7276 17.6532 19.1148 17.9643C19.0444 18.0116 18.9833 18.0716 18.9347 18.1412C18.3121 18.8949 17.7752 19.7162 17.3342 20.5897C16.0736 23.1305 15.6974 26.0227 16.2658 28.8037C16.3769 29.1031 16.5106 29.3934 16.666 29.6721C16.638 29.5515 16.606 29.4309 16.586 29.3103C17.0981 30.4722 17.5743 31.6543 18.0304 32.8403C18.0882 32.9687 18.1299 33.1037 18.1545 33.2424C18.0064 32.9891 17.9464 32.6916 17.7984 32.4383C17.4101 31.7016 17.0771 30.937 16.802 30.1506L16.4259 29.455C16.7972 30.902 17.4233 32.2704 18.2745 33.4957C18.2575 33.4661 18.2427 33.4351 18.2305 33.4032C18.2522 33.3707 18.2763 33.3398 18.3025 33.3107C18.3751 33.4044 18.4419 33.5024 18.5026 33.6042C18.5296 33.6339 18.5445 33.6726 18.5445 33.7128C18.5445 33.753 18.5296 33.7917 18.5026 33.8213C19.6054 35.3136 21.0169 36.5481 22.64 37.4398C22.4649 37.207 22.3222 36.9514 22.2158 36.68C21.9864 36.0092 21.8806 35.3021 21.9037 34.5933C21.0997 34.1739 20.3291 33.6927 19.5989 33.1539C19.4948 33.0623 19.3807 32.9827 19.2588 32.9167C19.2209 32.8955 19.1902 32.8633 19.1708 32.8242C19.0228 32.6071 18.8547 32.3981 18.7227 32.1689C18.5913 31.9852 18.5225 31.7638 18.5266 31.5377C18.5706 31.4935 18.6386 31.4573 18.6546 31.3929C18.6469 31.3133 18.6348 31.2341 18.6186 31.1557C18.8871 31.4207 19.1383 31.7027 19.3709 32C19.4083 32.0614 19.4328 32.1298 19.4429 32.2011C19.4949 32.4262 19.5429 32.6473 19.5949 32.8685L19.4229 32.8886C20.2032 33.4861 21.0378 34.0085 21.9157 34.4486C21.9963 33.3842 22.1514 32.3269 22.3799 31.2844H22.2038C22.1485 31.3361 22.0831 31.3758 22.0117 31.401C21.8968 31.414 21.7804 31.4003 21.6716 31.3608C21.6716 31.1959 21.6356 31.0271 21.6236 30.8622C21.768 30.8862 21.9136 30.9023 22.0598 30.9105C22.1454 30.8294 22.2219 30.739 22.2878 30.6411C22.3058 30.5454 22.3058 30.4473 22.2878 30.3516C22.3319 30.3074 22.3679 30.2591 22.4119 30.2149L22.5879 30.4803C22.644 30.2471 22.78 29.9938 22.644 29.7646C22.5239 29.6118 22.3078 29.6199 22.1398 29.5555C22.0718 29.4269 21.9837 29.3103 21.9237 29.1776C21.9051 29.0001 21.8743 28.8242 21.8317 28.6509C21.7997 28.5584 21.7397 28.478 21.7036 28.3856C21.6716 28.0559 21.6596 27.7262 21.6396 27.3965L21.8277 27.1432C21.8136 27.0217 21.8136 26.8989 21.8277 26.7773C21.8547 26.6769 21.9009 26.5827 21.9637 26.4999C22.2358 26.713 22.6159 26.5964 22.912 26.7532C23.1361 27.3844 23.7883 27.7825 23.8884 28.466C23.8151 28.5133 23.7444 28.5643 23.6763 28.6188C23.5443 28.7032 23.5202 28.8761 23.4682 29.0208C23.4162 29.1655 23.5362 29.2781 23.6163 29.3786C23.5227 29.4508 23.4462 29.5427 23.3922 29.648C23.5419 29.8662 23.6542 30.1082 23.7243 30.3637L23.5122 30.3195L23.3722 30.4803C23.1942 30.3385 22.9977 30.2222 22.788 30.1345C22.7401 30.2732 22.7118 30.4181 22.704 30.5647C22.7184 30.6793 22.758 30.7891 22.82 30.8864C22.7274 30.9307 22.6413 30.9875 22.5639 31.0552C22.2719 32.1898 22.0923 33.3507 22.0278 34.5209C22.7574 34.8762 23.5149 35.1707 24.2925 35.4014C25.7837 35.8308 27.3268 36.0513 28.878 36.0568C28.878 35.0114 28.878 33.9674 28.878 32.9248C28.878 32.5911 28.878 32.2574 28.878 31.9277C28.806 31.9987 28.7489 32.0834 28.71 32.1769H28.5259C28.4859 31.9679 28.4459 31.7749 28.4099 31.5457C28.4006 31.4308 28.4115 31.3151 28.4419 31.204L28.5659 31.2241C28.6099 31.2964 28.6379 31.401 28.726 31.4331C28.8088 31.454 28.8931 31.4688 28.978 31.4774C28.934 31.5256 28.886 31.5739 28.842 31.6261C28.863 31.6738 28.8956 31.7154 28.9369 31.747C28.9782 31.7787 29.0267 31.7993 29.0781 31.807C29.1021 31.9236 29.1181 32.0684 29.2261 32.1408C29.3342 32.2131 29.3542 32.1207 29.4102 32.0925C29.4042 31.976 29.4042 31.8592 29.4102 31.7427C29.6223 31.61 29.6863 31.3608 29.8103 31.1517C29.9115 31.0452 30.0198 30.9459 30.1344 30.8542C30.2023 30.8747 30.2691 30.8989 30.3345 30.9265C30.2786 31.1451 30.2345 31.3666 30.2024 31.5899H30.4065C30.4416 31.6874 30.4901 31.7794 30.5506 31.8633C30.6226 31.9196 30.7186 31.9076 30.8026 31.9277C30.7186 32.1448 30.5065 32.2574 30.3345 32.3941C30.2865 32.4182 30.2945 32.4825 30.2945 32.5308C30.2945 32.7519 30.4505 32.9328 30.4105 33.17C30.3225 33.0816 30.2625 32.9569 30.1424 32.9047C30.0224 32.8524 30.0544 32.9891 30.0224 33.0373C29.9891 33.0995 29.9372 33.1497 29.874 33.1807C29.8108 33.2117 29.7396 33.222 29.6703 33.2102C29.681 33.0513 29.6564 32.892 29.5982 32.7438C29.4866 32.6 29.3635 32.4655 29.2301 32.3418C29.1831 32.2042 29.1142 32.0752 29.0261 31.9598C29.0261 33.3188 29.0261 34.6777 29.0261 36.0407C29.6983 36.0045 30.3665 35.9402 31.0267 35.8517L30.0464 35.0798C30.3845 35.1215 30.7073 35.2458 30.9867 35.4416C31.1348 35.4899 31.3028 35.4778 31.4549 35.5301C31.4549 35.5743 31.4549 35.6145 31.4549 35.6587H31.5989C31.5969 35.6922 31.5969 35.7258 31.5989 35.7593C32.0351 35.6507 32.4792 35.5502 32.9153 35.4255L32.8353 35.309C32.8913 35.2527 32.9153 35.1079 33.0154 35.1562C33.144 35.2068 33.2869 35.2068 33.4155 35.1562C33.7386 34.9652 34.0127 34.7008 34.2158 34.3842C34.3638 34.3239 34.4759 34.4727 34.5799 34.5531C34.4537 34.6598 34.3583 34.7987 34.3038 34.9551C34.5879 34.8385 34.868 34.7059 35.1441 34.5732C35.1315 33.8389 35.0767 33.1059 34.98 32.378C34.98 32.3297 34.928 32.2976 34.908 32.2573H34.948C34.9378 32.1785 34.9217 32.1006 34.9 32.0242C34.9 32.0764 34.9 32.1247 34.9 32.1769C34.8543 32.2117 34.797 32.2276 34.7399 32.2212C34.7338 32.1952 34.7257 32.1696 34.7159 32.1448C34.812 32 34.756 31.8231 34.7439 31.6663L34.828 31.6221C34.8095 31.2177 34.723 30.8194 34.5719 30.4441C34.5664 30.3356 34.5448 30.2285 34.5079 30.1265C34.4519 29.9134 34.4038 29.6963 34.3438 29.4832C34.3198 29.8088 34.0957 30.0943 34.1357 30.428C33.9997 30.6411 33.8717 30.8662 33.7356 31.0753C33.6236 31.1678 33.4915 31.2321 33.3715 31.3165L33.2395 31.2763C33.2056 31.3525 33.1668 31.4264 33.1234 31.4975C32.9503 31.5641 32.7924 31.6653 32.6593 31.795L32.6072 31.7387C32.4707 31.7601 32.3367 31.7951 32.2071 31.8432C32.0522 31.7155 31.8814 31.6088 31.6989 31.5256C31.6389 31.4975 31.5789 31.5256 31.5269 31.5618C31.3468 31.6462 31.1668 31.7226 30.9827 31.791C30.9387 31.791 30.9267 31.8432 30.9107 31.8834H30.6186C30.5845 31.7943 30.543 31.7082 30.4945 31.6261C30.4545 31.5658 30.3745 31.5658 30.3145 31.5417C30.4029 31.3509 30.4415 31.1405 30.4265 30.9306C30.2905 30.8421 30.1304 30.8059 29.9904 30.7215C29.9436 30.6605 29.8914 30.604 29.8343 30.5526L29.7823 30.5888C29.8183 30.7054 29.9344 30.7778 30.0064 30.8743C29.8138 31.0177 29.6485 31.1948 29.5182 31.397C29.4742 31.4733 29.4542 31.5739 29.3742 31.6181C29.2941 31.6623 29.2781 31.6744 29.2621 31.7266C29.2561 31.8204 29.2561 31.9144 29.2621 32.0081H29.1541C29.1541 31.9035 29.1541 31.795 29.1181 31.6905C29.0541 31.6905 28.986 31.6703 28.922 31.6543L29.1501 31.4251C29.0048 31.3614 28.8484 31.3272 28.69 31.3246C28.6579 31.2482 28.6259 31.1758 28.5899 31.1035C28.75 31.1035 28.91 31.1035 29.0741 31.0713C29.0618 31.0116 29.0361 30.9555 28.9991 30.9072C28.962 30.8589 28.9145 30.8197 28.8602 30.7926C28.8058 30.7655 28.746 30.7511 28.6853 30.7507C28.6247 30.7502 28.5647 30.7636 28.5099 30.7898C28.3558 30.852 28.1838 30.852 28.0297 30.7898C27.6816 30.6612 27.4215 30.3516 27.0494 30.2792C26.9151 30.2355 26.7892 30.1688 26.6773 30.0822C26.6773 30.0058 26.6493 29.9295 26.6373 29.8531H26.8493C26.8493 29.7284 26.7933 29.6078 26.7613 29.4832C26.8253 29.4108 26.9174 29.3545 26.9494 29.262C26.9455 29.2207 26.9309 29.1812 26.907 29.1473C26.8831 29.1134 26.8508 29.0865 26.8133 29.0691C26.6053 28.9444 26.4132 28.8117 26.2051 28.667C26.2051 28.6067 26.2051 28.5424 26.2051 28.4821C26.1661 28.4234 26.1189 28.3706 26.0651 28.3253C26.0971 28.2489 26.1051 28.1403 26.1971 28.1122C26.2892 28.084 26.5172 28.1122 26.6613 28.0318C26.8554 27.9054 27.0653 27.8053 27.2855 27.7342C27.3095 27.5533 27.3175 27.3724 27.3335 27.1955C27.4471 27.1799 27.5576 27.1474 27.6616 27.099C27.7157 27.0049 27.7511 26.9011 27.7656 26.7934C27.8848 26.7955 28.004 26.7875 28.1218 26.7693C28.2058 26.7291 28.2098 26.6246 28.2378 26.5482C28.3027 26.5109 28.3711 26.4799 28.4419 26.4557C28.5299 26.5562 28.6259 26.6527 28.706 26.7613C28.786 26.8698 28.766 27.1111 28.906 27.2156C29.0461 27.3201 29.2821 27.304 29.4582 27.3844C29.6343 27.4649 29.7183 27.6056 29.8583 27.7101C30.0704 27.6779 30.2825 27.6377 30.4905 27.6136C30.6906 27.6538 30.8907 27.7342 31.0787 27.7744C31.2112 27.7618 31.3381 27.7147 31.4469 27.6377C31.694 27.4658 31.9209 27.2662 32.1231 27.0427L32.0391 26.8095C32.1511 26.7773 32.2951 26.8095 32.3672 26.6929C32.5684 26.4895 32.7594 26.2762 32.9394 26.0536C32.8792 25.9617 32.8017 25.8825 32.7113 25.8205C32.6063 25.8123 32.5012 25.8331 32.4072 25.8808L32.3712 25.6436C32.4592 25.5993 32.5632 25.5471 32.5792 25.4385C32.5685 25.2402 32.5376 25.0435 32.4872 24.8515C32.5632 24.7912 32.6393 24.7269 32.7073 24.6625H33.1074C33.2435 24.7952 33.3635 24.944 33.5075 25.0646C33.6516 25.0646 33.7956 25.0646 33.9357 25.0646C34.0117 25.0887 34.0397 25.2013 34.1277 25.1933C34.2158 25.0767 34.2878 24.944 34.3758 24.8234C34.4479 25.0445 34.5039 25.2737 34.5719 25.4988C34.4985 25.5656 34.4351 25.6428 34.3838 25.728C34.3838 25.8446 34.4599 25.9411 34.5039 26.0456C34.3944 26.1838 34.3351 26.3554 34.3358 26.5321C34.2678 26.5643 34.1878 26.5884 34.1518 26.6607C34.0677 26.8377 34.1237 27.0628 33.9877 27.2196C33.9357 27.292 33.8437 27.3643 33.8757 27.4649C34.0917 28.1041 34.2758 28.7514 34.4559 29.3987C34.9235 30.9928 35.1923 32.6391 35.2561 34.2998L35.5602 34.143L35.6002 34.1832H35.5202C35.4402 34.2314 35.3562 34.2757 35.2721 34.3199V34.4526C36.9617 33.5905 38.4592 32.3922 39.6736 30.9306C39.6916 30.8363 39.6916 30.7394 39.6736 30.6451C39.3496 27.7036 38.1217 24.9366 36.1604 22.7287C35.9773 22.5071 35.7706 22.3062 35.5442 22.1296C35.3562 21.9808 35.1441 21.8482 34.972 21.6873C34.7581 21.3164 34.4708 20.9934 34.1277 20.7385C34.066 20.8801 34.0571 21.0393 34.1027 21.187C34.1483 21.3346 34.2452 21.4609 34.3758 21.5426L34.3438 21.631C34.2296 21.6607 34.124 21.7172 34.0357 21.7959C34.0357 21.8642 34.0637 21.9487 34.0037 22.0009L33.6996 22.3266C33.6996 22.7689 33.6996 23.2111 33.6996 23.6494H33.8957L33.9917 23.7579H34.1197C34.1702 23.6645 34.2143 23.5678 34.2518 23.4684H34.3478C34.3478 23.5127 34.3238 23.5609 34.3158 23.6051C34.4078 23.6333 34.5039 23.6534 34.5959 23.6775C34.7079 23.9107 34.848 24.1318 34.944 24.369C35.0504 24.8782 35.038 25.4053 34.908 25.9089C34.8338 25.8968 34.7581 25.8968 34.6839 25.9089C34.6519 25.9451 34.6399 25.9933 34.6079 26.0335C34.546 25.9549 34.5035 25.8625 34.4839 25.7642C34.531 25.6819 34.5904 25.6073 34.6599 25.543C34.6322 25.2302 34.5481 24.9251 34.4118 24.6424H34.3438C34.2478 24.7751 34.1678 24.9198 34.0757 25.0445L33.9837 24.952H33.5396L33.1994 24.6022C33.1714 24.5821 33.1474 24.5419 33.1074 24.5459C32.9875 24.5379 32.8672 24.5379 32.7473 24.5459C32.5967 24.5912 32.4594 24.6726 32.3472 24.7831C32.3472 25.0003 32.4272 25.2093 32.4552 25.4224C32.3032 25.5107 32.1305 25.5565 31.955 25.5551C31.791 25.5551 31.6789 25.6998 31.5269 25.7561C31.2569 25.8286 30.9751 25.845 30.6986 25.8044C30.6116 25.8093 30.5281 25.8401 30.4585 25.8928C30.3764 25.8047 30.2821 25.7288 30.1784 25.6677C30.0676 25.6221 29.9522 25.5884 29.8343 25.5672C29.7719 25.6397 29.7266 25.7255 29.7017 25.818C29.6767 25.9106 29.6728 26.0076 29.6903 26.1019C29.4371 26.0999 29.1844 26.0798 28.934 26.0416C28.7261 26.0951 28.5286 26.1834 28.3498 26.3029L28.2258 26.1582C28.1611 26.1572 28.0972 26.1436 28.0377 26.118C27.9688 26.066 27.9033 26.0096 27.8417 25.9491C27.7296 25.9009 27.5896 25.929 27.4936 25.8406C27.3975 25.7521 27.3815 25.8084 27.3215 25.8205C27.2668 25.5629 27.1808 25.3131 27.0654 25.0767L26.7173 25.2013C26.6733 25.0686 26.5252 25.0525 26.4092 25.0244C26.3772 24.9359 26.3572 24.8475 26.3172 24.763C26.2493 24.7451 26.1792 24.737 26.1091 24.7389H25.1768C25.1768 24.7912 25.1768 24.8435 25.1528 24.8997C25.0768 24.8997 24.9927 24.8997 24.9687 25.0083L24.8607 25.0445L24.8847 25.2777H24.7486C24.7006 25.2013 24.6686 25.0968 24.5766 25.0686C24.4792 25.0478 24.38 25.037 24.2805 25.0364L23.9204 24.5781C23.7676 24.558 23.613 24.558 23.4602 24.5781C23.2842 24.5258 23.1641 24.6987 23.0361 24.7872C23.0561 24.9702 23.0561 25.1549 23.0361 25.338C22.9961 25.3179 22.9521 25.2616 22.908 25.3058C22.776 25.3903 22.6159 25.5109 22.6199 25.6838V26.2346H22.5239C22.1956 25.7934 21.9786 25.2788 21.8917 24.7349H21.9957C22.0518 24.6223 22.0678 24.4776 22.1758 24.3932C22.3168 24.3426 22.4612 24.3023 22.6079 24.2725C22.652 24.2725 22.708 24.2203 22.68 24.172C22.628 23.975 22.4919 23.8102 22.4319 23.6172C22.4559 23.4282 22.5359 23.2151 22.4079 23.0503C22.4079 23.0262 22.4079 22.986 22.4359 22.9659C22.5199 22.9659 22.632 22.994 22.68 22.9015C22.7583 22.6967 22.7911 22.4771 22.776 22.2582C22.9801 22.1939 23.1761 22.1336 23.3962 22.0773C23.4297 22.0681 23.4602 22.0503 23.4848 22.0256C23.5093 22.0009 23.5271 21.9703 23.5362 21.9366C23.5721 21.7575 23.5721 21.573 23.5362 21.3938C23.6722 21.4612 23.816 21.5112 23.9644 21.5426C24.1565 21.3375 24.3645 21.1405 24.5486 20.9355C24.5366 21.0342 24.5096 21.1305 24.4686 21.2209C24.411 21.3002 24.3423 21.3707 24.2645 21.43C24.2625 21.5466 24.2872 21.6622 24.3365 21.7677C24.4365 21.8079 24.4686 21.6632 24.5326 21.6109C24.5641 21.6979 24.6015 21.7825 24.6446 21.8642H24.6926C24.7406 21.7919 24.7767 21.7115 24.8207 21.6351H25.0087C25.0087 21.7115 25.0087 21.7959 25.0968 21.8321L25.2808 21.5868L25.3048 21.8039C25.5409 21.8039 25.777 21.7677 26.0131 21.7476C26.0131 21.7878 25.9851 21.8562 26.0131 21.8803C26.0843 21.8816 26.1554 21.8749 26.2251 21.8602C26.9054 20.7103 27.6056 19.5725 28.3658 18.4749C28.3859 18.4106 28.5019 18.4226 28.4819 18.4749C27.8337 19.4318 27.1694 20.3806 26.5893 21.3818C26.4656 21.5685 26.3787 21.7773 26.3332 21.9969C26.4445 21.9593 26.5439 21.8927 26.6213 21.8039C26.7373 21.9326 26.8333 22.0813 26.9414 22.206C26.9854 22.2743 27.0574 22.206 27.1014 22.1698C27.2055 22.0894 27.0734 21.9648 27.0774 21.8642C27.1003 21.764 27.1434 21.6695 27.2039 21.5865C27.2645 21.5035 27.3413 21.4339 27.4295 21.3818L27.5296 21.4099C27.4535 21.6954 27.3775 21.9808 27.3055 22.2623C27.3055 22.2985 27.3055 22.3387 27.2495 22.3507C27.1494 22.407 27.0454 22.4512 26.9454 22.4995C26.9552 22.5387 26.9731 22.5754 26.9979 22.6073C27.0227 22.6391 27.0539 22.6654 27.0894 22.6844C27.1254 22.6844 27.1815 22.7367 27.2095 22.6844C27.3235 22.5217 27.458 22.3744 27.6096 22.2462V22.4874C27.6562 22.5244 27.7112 22.5493 27.7696 22.5598L27.8337 22.4874L27.7656 22.4271C27.7656 22.3507 27.7656 22.2743 27.7857 22.202C27.7005 22.1626 27.6177 22.1183 27.5376 22.0693C27.5287 21.8962 27.5705 21.7243 27.6576 21.5748C27.6576 21.6511 27.6576 21.7597 27.7376 21.8039C27.8177 21.8481 27.8817 21.9004 27.9497 21.8401C27.9177 21.7677 27.8817 21.6994 27.8497 21.627C27.9061 21.6212 27.9631 21.6275 28.0169 21.6456C28.0707 21.6636 28.1201 21.6929 28.1618 21.7316C28.1278 21.8174 28.1089 21.9086 28.1058 22.0009C28.1058 22.0693 28.1858 22.0773 28.2338 22.1055C28.2816 22.0443 28.3145 21.9727 28.3298 21.8964C28.3201 21.7315 28.2706 21.5715 28.1858 21.43C28.2985 21.4088 28.4085 21.375 28.5139 21.3295C28.5576 21.2532 28.5836 21.168 28.5899 21.0802L28.842 20.9315C28.842 20.1274 28.842 19.3232 28.842 18.5191H28.942C28.942 19.3232 28.942 20.1073 28.942 20.9033C29.0176 20.9154 29.0946 20.9154 29.1701 20.9033C29.2301 20.8309 29.2741 20.7425 29.3302 20.6661C29.3849 20.6862 29.4362 20.7147 29.4822 20.7505C29.5622 20.7505 29.6303 20.6902 29.7063 20.6741C29.7512 20.6894 29.7896 20.7197 29.8151 20.7599C29.8405 20.8001 29.8516 20.8479 29.8463 20.8953C29.7929 21.0394 29.7188 21.1749 29.6263 21.2973C29.66 21.3201 29.6979 21.3358 29.7378 21.3434C29.7777 21.351 29.8187 21.3503 29.8583 21.3416C29.9344 21.3094 29.9544 21.2209 29.9824 21.1526C30.0094 21.2017 30.0496 21.2421 30.0984 21.2692C30.1704 21.2169 30.2265 21.1325 30.3225 21.1285C30.4609 21.1442 30.6009 21.1161 30.7226 21.0481C30.7059 20.8559 30.6335 20.6728 30.5146 20.5214C30.1144 19.8298 29.7143 19.1423 29.2701 18.4709L29.3622 18.4106C29.8753 19.1752 30.3494 19.9656 30.7826 20.7787C30.8513 20.8927 30.9425 20.9912 31.0507 21.0682C31.1548 21.1526 31.2868 21.2531 31.4509 21.2008C31.4869 21.1365 31.4509 21.0521 31.4229 20.9797C31.4965 20.9693 31.5668 20.9417 31.6279 20.8991C31.6891 20.8565 31.7394 20.8001 31.775 20.7345C31.775 20.6339 31.6709 20.5656 31.6549 20.4731C31.7458 20.3973 31.8451 20.3326 31.951 20.2801C32.0631 20.3887 32.2191 20.2801 32.3512 20.2801L32.5312 19.9625C32.6349 19.9745 32.7396 19.9745 32.8433 19.9625C32.9113 19.9625 32.8993 19.862 32.9153 19.8097C31.8884 19.1231 30.7722 18.582 29.5982 18.2015C29.5982 18.1693 29.6263 18.1372 29.6383 18.101C30.8063 18.4899 31.9188 19.0306 32.9474 19.7092V19.5765C33.0274 19.5444 33.1954 19.5765 33.1754 19.4519C33.1034 19.3956 33.0234 19.3514 32.9474 19.3031C32.9927 19.1537 33.0706 19.0164 33.1754 18.9011C33.3191 18.7586 33.504 18.6657 33.7036 18.6357C33.7016 18.6076 33.7016 18.5794 33.7036 18.5513L33.5836 18.503L33.6636 18.3905C33.7691 18.4495 33.8671 18.5211 33.9557 18.6036C33.8966 18.684 33.8456 18.7702 33.8036 18.8609H33.6236C33.6236 19.0056 33.8036 19.0257 33.8797 19.1222C33.9557 19.2187 33.9277 19.2549 33.9557 19.3152C34.0879 19.3365 34.222 19.3446 34.3558 19.3393C34.3421 19.3975 34.3414 19.4579 34.3539 19.5164C34.3664 19.5748 34.3916 19.6297 34.4278 19.6771C34.5279 19.858 34.6519 20.0268 34.768 20.1997L34.6239 20.3083C34.6265 20.5512 34.6754 20.7914 34.768 21.0159C34.8042 21.0612 34.852 21.0956 34.9063 21.1154C34.9607 21.1353 35.0194 21.1398 35.0761 21.1285L35.2361 21.2209C35.2361 21.2491 35.2361 21.2973 35.2361 21.3215C35.3974 21.4464 35.5196 21.6153 35.5882 21.8079C35.6402 21.9286 35.6482 22.0773 35.7483 22.1778C36.6876 23.1644 37.4947 24.27 38.1491 25.4666C38.8482 26.7711 39.3524 28.1719 39.6456 29.6239C39.7056 30.0058 39.7496 30.3878 39.8016 30.7698C40.4408 29.8966 40.9242 28.9184 41.2301 27.879C41.4557 26.1302 41.3164 24.3533 40.8211 22.6615C40.3258 20.9698 39.4853 19.4002 38.3531 18.0528C37.1947 17.6511 35.9774 17.4473 34.752 17.4497L34.9 17.5783C34.7775 17.5251 34.6519 17.4794 34.5239 17.4416C34.5637 17.5891 34.6347 17.7262 34.7319 17.8437C34.6275 17.8085 34.518 17.7908 34.4078 17.7914C34.3838 17.8557 34.4599 17.896 34.4919 17.9402L34.4559 18.0568C34.4121 18.0525 34.3698 18.0388 34.3318 18.0166C34.1715 17.8627 33.986 17.7376 33.7836 17.6467C33.7684 17.6415 33.7521 17.6404 33.7364 17.6435C33.7206 17.6466 33.7059 17.6538 33.6938 17.6644C33.6817 17.6749 33.6725 17.6885 33.6672 17.7038C33.6619 17.719 33.6606 17.7353 33.6636 17.7512C33.6996 17.8397 33.7476 17.9241 33.7836 18.0125L33.6796 18.0447C33.5756 17.896 33.4875 17.7391 33.3795 17.5944H33.2915C33.2915 17.6909 33.2915 17.7874 33.2915 17.8839L33.1194 17.9643C32.8783 17.84 32.6571 17.6801 32.4632 17.4899C31.4989 17.5421 30.5426 17.6909 29.5902 17.8316C29.5752 17.8016 29.5619 17.7707 29.5502 17.7391C30.5106 17.5622 31.4869 17.4537 32.4592 17.3733C32.3874 17.1861 32.299 17.0058 32.1951 16.8345C32.2554 16.7876 32.323 16.7509 32.3952 16.726C32.7273 16.6094 33.0834 16.5812 33.4035 16.4405C33.4035 16.4083 33.4035 16.348 33.4035 16.3159C33.4901 16.4124 33.5703 16.5144 33.6436 16.6214C33.6689 16.709 33.6997 16.795 33.7356 16.8787C33.6931 16.9135 33.6635 16.9617 33.6516 17.0155C33.9477 17.12 34.2438 17.2165 34.5439 17.3089C34.844 17.4014 35.1521 17.3492 35.4602 17.3773C36.0739 17.4169 36.6847 17.4947 37.2888 17.6105C37.589 17.673 37.8856 17.7522 38.1771 17.8477C37.0655 16.5738 35.7137 15.5339 34.1998 14.7881C34.0416 14.777 33.8827 14.7961 33.7316 14.8443L33.8276 14.9006C33.7184 14.8946 33.6088 14.8946 33.4995 14.9006C33.3875 14.9449 33.2795 14.9931 33.1634 15.0293L33.2274 15.1017C32.9834 15.0213 32.7513 14.9127 32.5152 14.8122L31.1988 14.2574C31.1101 14.212 31.0159 14.1782 30.9187 14.1568L29.7423 13.9679C29.3782 13.9156 29.0221 13.8352 28.6579 13.8071L28.6379 13.7668L28.834 13.791V13.5095C26.8165 13.4782 24.8215 13.939 23.0201 14.8524V14.8685ZM25.917 14.1247C25.9287 14.1547 25.9381 14.1856 25.945 14.2171C25.5449 14.5267 24.9647 14.5348 24.6246 14.9328C24.7847 14.8926 24.9407 14.8242 25.1008 14.78C25.1808 14.8162 25.1008 14.8805 25.0768 14.9207C25.2373 14.8728 25.4022 14.8405 25.5689 14.8243L25.6049 14.9248L25.957 14.9569C26.0211 14.7881 26.2011 14.5549 26.3972 14.6876C26.4692 14.6594 26.5652 14.6192 26.5973 14.7197C26.6573 14.7197 26.7293 14.7479 26.7253 14.8323L27.3815 14.7961C27.3815 14.7961 27.3815 14.7479 27.3815 14.7278C27.3219 14.6954 27.2644 14.6591 27.2095 14.6192L27.2695 14.5428C27.2136 14.5427 27.1585 14.5308 27.1075 14.5079C27.0565 14.4851 27.0108 14.4518 26.9734 14.4101C27.0534 14.3579 27.1334 14.3136 27.2175 14.2694C27.1574 14.2332 27.0694 14.2212 27.0414 14.1488C27.1803 14.0697 27.3345 14.0217 27.4936 14.0081C27.6096 14.0603 27.6936 14.185 27.8297 14.193C28.1658 14.2171 28.5059 14.2332 28.846 14.2533C28.846 14.4745 28.846 14.6996 28.846 14.9207C28.7442 14.9241 28.6426 14.9335 28.5419 14.9489C28.6139 14.969 28.69 14.9851 28.762 15.0092C28.734 15.1338 28.5819 15.0856 28.4939 15.1097L28.6219 15.2987L28.734 15.2303L28.842 15.3107C28.842 15.7731 28.842 16.2355 28.842 16.7018L28.694 16.6777L28.6539 16.6134L28.6099 16.6536L28.766 16.8305L28.842 16.8104C28.842 17.0315 28.842 17.2527 28.842 17.4738H28.95C28.95 16.8345 28.95 16.1993 28.95 15.56L29.0301 15.6163L29.0981 15.5037C29.0242 15.45 28.9673 15.376 28.934 15.2906C28.9848 15.2412 29.0412 15.198 29.1021 15.162C29.1901 15.162 29.2741 15.2102 29.3622 15.2062C29.5622 15.2122 29.7553 15.2811 29.9144 15.4032C29.9964 15.3468 30.0851 15.3009 30.1784 15.2665C30.2745 15.3027 30.2985 15.4394 30.4065 15.4474C30.5146 15.4555 30.7666 15.4756 30.7226 15.6605L31.2028 15.946C31.1027 16.0264 30.9947 16.0988 30.8907 16.1671C30.7017 16.1565 30.5121 16.17 30.3265 16.2073C30.3637 16.2522 30.4101 16.2884 30.4627 16.3134C30.5152 16.3384 30.5725 16.3516 30.6306 16.3521C30.3025 16.5973 29.9664 16.8385 29.6463 17.0999C29.4822 17.2199 29.3366 17.3635 29.2141 17.5261L29.3222 17.5663C29.9545 17.0219 30.6142 16.5106 31.2988 16.0344V16.1751C31.4747 16.1841 31.6485 16.2179 31.815 16.2757C31.975 16.3722 32.015 16.5732 32.1231 16.7139C32.536 16.6514 32.9393 16.5365 33.3235 16.3722L33.2635 16.0224L33.1914 15.9942C33.1434 15.8817 33.0394 15.8213 32.9674 15.7289C33.0292 15.6627 33.0854 15.5914 33.1354 15.5158C33.1686 15.4148 33.1822 15.3083 33.1754 15.2022L31.2148 14.3699C31.1054 14.3125 30.988 14.2719 30.8667 14.2493C29.8934 14.0513 28.9083 13.917 27.9177 13.8473C27.238 13.8092 26.5576 13.909 25.917 14.1408V14.1247ZM25.3889 14.3458C25.5045 14.3131 25.617 14.2701 25.725 14.2171C25.6093 14.2498 25.4968 14.2929 25.3889 14.3458ZM24.2325 14.8966C24.2605 14.9408 24.2885 14.9408 24.3125 14.8966C24.3365 14.8524 24.2565 14.8484 24.2325 14.8966ZM28.0697 14.9207L28.2658 14.977L28.3018 14.8926L28.0697 14.9207ZM26.3412 15.1258V15.166C26.5132 15.2303 26.6933 15.2665 26.8653 15.3308C26.8635 15.3576 26.8635 15.3845 26.8653 15.4112L26.3892 15.4314V15.5278C26.6066 15.4937 26.828 15.4937 27.0454 15.5278C27.1174 15.5278 27.1534 15.6083 27.1855 15.6645C27.388 15.6368 27.5942 15.6704 27.7776 15.761C27.8897 15.7329 27.9977 15.6887 28.1138 15.6565L28.2138 15.8495L28.3178 15.8214L28.2778 15.552C28.1576 15.5278 28.0339 15.5278 27.9137 15.552C27.6493 15.5889 27.381 15.5212 27.1654 15.363L27.2335 15.2303L27.1494 15.1298C26.8867 15.0641 26.6119 15.0641 26.3492 15.1298L26.3412 15.1258ZM28.0417 15.2062L28.1818 15.367C28.253 15.2727 28.3396 15.1911 28.4379 15.1258C28.2999 15.119 28.1625 15.1466 28.0377 15.2062H28.0417ZM33.2435 15.1338C33.2435 15.2384 33.2435 15.3429 33.2435 15.4515L33.2915 15.4273C33.2915 15.371 33.2915 15.3188 33.2915 15.2625L33.3315 15.2142L33.2355 15.1338H33.2435ZM29.5822 15.5359C29.6311 15.5689 29.6714 15.6131 29.6999 15.6648C29.7284 15.7165 29.7443 15.7743 29.7463 15.8334C29.7965 15.7985 29.8501 15.7689 29.9064 15.745C29.9064 15.8053 29.9424 15.8656 29.9584 15.9259C30.0339 15.932 30.1088 15.9441 30.1824 15.9621C30.2385 15.9942 30.2945 16.0465 30.3665 16.0264C30.2945 15.9781 30.3185 15.9138 30.3665 15.8615L30.1984 15.7811C30.1984 15.761 30.1984 15.7208 30.1984 15.7007C30.2894 15.7033 30.3795 15.7182 30.4665 15.745L30.4145 15.6444C30.1624 15.6314 29.914 15.5785 29.6783 15.4876L29.5702 15.5359H29.5822ZM28.3818 15.5721C28.4411 15.6433 28.4933 15.72 28.5379 15.8012C28.6179 15.757 28.6059 15.6645 28.6019 15.5882H28.3818V15.5721ZM33.1154 15.7048C33.1258 15.7294 33.1338 15.755 33.1394 15.7811C33.1914 15.7369 33.2635 15.6927 33.2274 15.6083L33.1154 15.7048ZM29.2581 15.745V15.8414H29.3622C29.3323 15.8067 29.2972 15.7768 29.2581 15.753V15.745ZM28.726 16.147C28.7766 16.1229 28.7766 16.0988 28.726 16.0746C28.6753 16.0988 28.6753 16.1229 28.726 16.147ZM28.2098 16.1028L28.2498 16.147L28.4459 16.1108C28.3672 16.1068 28.2884 16.1068 28.2098 16.1108V16.1028ZM29.5942 16.2395C29.5942 16.2958 29.5942 16.3159 29.6463 16.2998C29.6983 16.2837 29.6463 16.2274 29.5942 16.2395ZM28.2298 16.3078L28.3338 16.3963C28.3506 16.3808 28.3654 16.3632 28.3778 16.344L28.4739 16.2998H28.2298V16.3078ZM29.8823 16.3601C29.8503 16.4043 29.9264 16.4486 29.9584 16.4124C29.9904 16.3762 29.9144 16.3199 29.8823 16.3601ZM23.5162 17.6668C23.5162 17.7673 23.5162 17.8678 23.5162 17.9683L23.6003 18.0085C23.7063 17.9651 23.8018 17.8993 23.8804 17.8155L23.7603 17.7954C23.7745 17.7396 23.8004 17.6875 23.8363 17.6427C23.8109 17.5949 23.7895 17.5452 23.7723 17.4939C23.6891 17.5469 23.609 17.6046 23.5322 17.6668H23.5162ZM27.4735 18.3664C26.4772 18.8729 25.5329 19.468 24.5646 20.0148C24.5646 20.0711 24.5646 20.1274 24.5646 20.1796C24.4125 20.2962 24.2565 20.3967 24.1124 20.5214C24.0684 20.5978 24.0644 20.7023 24.0004 20.7706C23.9364 20.839 23.8403 20.8229 23.7563 20.835C23.6683 20.9717 23.5803 21.1124 23.4962 21.237C23.6163 21.2813 23.7403 21.3215 23.8564 21.3737C24.0384 21.2704 24.1999 21.1341 24.3325 20.9717L24.9647 20.2279C24.8704 20.1939 24.7815 20.1465 24.7006 20.0871C24.8434 19.977 24.9931 19.8763 25.1488 19.7856C26.1082 19.1663 27.1174 18.6283 28.1658 18.1774L28.1418 18.0648C27.9055 18.1387 27.6786 18.2399 27.4655 18.3664H27.4735ZM22.0718 19.082C22.0718 19.1906 22.1678 19.0297 22.0718 19.082V19.082ZM26.6053 19.082C26.6333 19.1303 26.6613 19.1262 26.6853 19.082C26.7093 19.0378 26.6293 19.0338 26.6053 19.082ZM21.5836 19.2911V19.3876C21.6857 19.3313 21.7994 19.2997 21.9157 19.2951L21.9637 19.1142C21.8258 19.1623 21.692 19.2214 21.5636 19.2911H21.5836ZM21.0634 19.5082C21.0394 19.5966 21.0194 19.6891 20.9954 19.7776C20.9283 19.7522 20.8628 19.7227 20.7993 19.6891C20.8234 19.8258 20.8474 19.9585 20.8754 20.0912C20.9514 20.063 21.0714 20.0912 21.0874 19.9746C21.1632 19.8184 21.2726 19.6811 21.4075 19.5725L21.0634 19.5082ZM22.768 19.7132C22.768 19.7695 22.792 19.8258 22.8 19.8861C22.688 19.9665 22.692 19.7575 22.5839 19.7735L22.672 19.858C22.5839 19.9866 22.4119 19.9545 22.2718 19.9705C22.2548 20.0167 22.2401 20.0636 22.2278 20.1113C22.2718 20.1475 22.3238 20.1756 22.3719 20.2078C22.4199 20.2399 22.4999 20.1635 22.5639 20.2078C22.6134 20.2235 22.6657 20.2288 22.7173 20.2233C22.769 20.2177 22.8189 20.2015 22.864 20.1756C22.9779 20.0927 23.0767 19.9907 23.1561 19.8741C23.0521 19.7575 22.892 19.7896 22.756 19.7293L22.768 19.7132ZM19.4349 20.1555C19.2548 20.2239 19.0748 20.2801 18.8907 20.3445C18.8535 20.4832 18.8026 20.6179 18.7387 20.7465C18.6706 20.8832 18.7387 21.028 18.7387 21.1486C18.7932 21.1715 18.8494 21.1903 18.9067 21.2049L18.9907 21.1084C19.1434 21.0453 19.2712 20.9337 19.3549 20.7907C19.5335 20.4676 19.6412 20.1098 19.671 19.7414C19.4909 19.7896 19.4869 19.9907 19.4229 20.1434L19.4349 20.1555ZM23.3522 19.854C23.3522 19.8781 23.3522 19.9263 23.3522 19.9505H23.2321L22.9401 20.2882C22.796 20.3083 22.652 20.3163 22.5119 20.3485C22.2998 20.5214 22.1118 20.7063 21.8957 20.8872C21.9597 20.9234 22.0278 20.9878 22.1078 20.9676C22.1878 20.9475 22.3238 20.7787 22.4679 20.7706C22.5643 20.8007 22.6635 20.8209 22.764 20.831C22.773 20.8048 22.7836 20.7793 22.796 20.7546C22.7607 20.7125 22.7233 20.6722 22.684 20.6339C22.9583 20.4866 23.2729 20.433 23.5803 20.4812C23.7234 20.4627 23.8651 20.4345 24.0044 20.3967C23.7043 20.6339 23.3842 20.835 23.0681 21.044C22.9746 21.2023 22.8492 21.3393 22.7 21.4461C22.7659 21.6186 22.8533 21.7821 22.9601 21.9326C22.899 21.9792 22.8415 22.0302 22.788 22.0854C22.9801 22.0371 23.1681 21.9688 23.3642 21.9245C23.4423 21.6993 23.4423 21.4542 23.3642 21.229C23.5093 21.076 23.6295 20.9009 23.7203 20.7103C23.7579 20.6537 23.807 20.6058 23.8644 20.5696L24.4726 20.1113C24.4688 20.069 24.4608 20.0273 24.4486 19.9866C24.3485 19.9356 24.2338 19.9214 24.1244 19.9464C23.9876 20.0007 23.8431 20.0333 23.6963 20.0429C23.5783 19.9872 23.4646 19.9227 23.3562 19.8499L23.3522 19.854ZM23.5883 19.854C23.6323 19.8821 23.6723 19.9303 23.7243 19.9344C23.8091 19.9183 23.8922 19.894 23.9724 19.862C23.8443 19.862 23.7163 19.862 23.5723 19.862L23.5883 19.854ZM19.0188 20.1796L19.3709 20.051C19.3689 20.0188 19.3689 19.9866 19.3709 19.9545C19.2361 20.0026 19.1132 20.0794 19.0108 20.1796H19.0188ZM20.0951 20.3967C20.0043 20.4527 19.9077 20.4986 19.807 20.5334C19.707 20.8501 19.6703 21.1835 19.699 21.5144L19.807 21.5748C19.9591 21.4139 20.0951 21.237 20.2432 21.0722C20.3465 21.073 20.4497 21.0635 20.5513 21.044C20.6793 20.9596 20.7153 20.7988 20.8153 20.6862C20.8957 20.6133 20.9915 20.5597 21.0954 20.5294H20.9634C20.9279 20.4787 20.8892 20.4303 20.8474 20.3847C20.7534 20.3628 20.6621 20.3304 20.5753 20.2882C20.5573 20.2334 20.5452 20.1767 20.5393 20.1193C20.4955 20.1267 20.4509 20.1267 20.4072 20.1193C20.4072 20.055 20.4072 19.9947 20.4072 19.9304C20.2993 20.0733 20.2017 20.2237 20.1151 20.3807L20.0951 20.3967ZM21.6956 20.5656C21.8318 20.5589 21.961 20.5033 22.0598 20.4088C21.9077 20.3605 21.7917 20.4731 21.6956 20.5656ZM21.1875 20.4731L21.1555 20.5093C21.1755 20.6259 21.3115 20.457 21.1875 20.4731ZM24.5766 20.7948C24.6666 20.9722 24.7428 21.1564 24.8047 21.3456C24.8908 21.3367 24.9741 21.3092 25.0487 21.2652C25.0472 20.9924 25.0054 20.7215 24.9247 20.4611C24.7786 20.5375 24.6577 20.6548 24.5766 20.7988V20.7948ZM19.2508 21.0963C19.3101 21.139 19.3651 21.1875 19.4149 21.241L19.5589 21.1566C19.5692 20.9653 19.6042 20.776 19.663 20.5937L19.5869 20.6219C19.4669 20.7747 19.3629 20.9355 19.2508 21.0963ZM20.7913 20.835C20.7724 20.9074 20.7455 20.9775 20.7113 21.044C20.6576 21.0953 20.6001 21.1423 20.5393 21.1848C20.5571 21.325 20.526 21.4671 20.4512 21.5868C20.4752 21.7517 20.5032 21.9165 20.5193 22.0813C20.4752 22.1175 20.3952 22.1215 20.3832 22.1899L20.4832 22.2703C20.4832 22.2301 20.5112 22.1939 20.5273 22.1537L20.7793 22.1296C20.8024 22.0905 20.8277 22.0529 20.8554 22.017C20.7958 21.6977 20.8306 21.3679 20.9554 21.0682C21.0793 21.0416 21.1991 20.9983 21.3115 20.9395C21.4052 20.8654 21.484 20.774 21.5436 20.6701C21.4622 20.7067 21.3779 20.7363 21.2915 20.7586V20.6179C21.1059 20.6401 20.9314 20.7187 20.7913 20.843V20.835ZM17.5903 20.7867C17.5623 20.9114 17.5383 21.036 17.5183 21.1647C17.6024 21.0624 17.7112 20.9835 17.8344 20.9355C17.8423 20.8593 17.8423 20.7825 17.8344 20.7063L17.5703 20.7867H17.5903ZM17.9464 20.9355C17.9757 21.117 18.0381 21.2914 18.1305 21.4501C18.1748 21.4496 18.2178 21.4652 18.2516 21.494C18.2854 21.5228 18.3078 21.5629 18.3145 21.6069C18.4451 21.3883 18.5142 21.1382 18.5146 20.8832C18.4626 20.8832 18.3986 20.9033 18.3505 20.8832C18.3164 20.8462 18.2843 20.8073 18.2545 20.7666C18.1456 20.8172 18.0423 20.8791 17.9464 20.9516V20.9355ZM21.0274 21.1486C20.9932 21.3076 20.9505 21.4646 20.8994 21.619C20.8891 21.6707 20.8891 21.724 20.8994 21.7758C20.8996 21.9623 20.9265 22.1478 20.9794 22.3266C21.0114 22.3949 21.0274 22.4874 21.1195 22.4955C21.0334 22.1551 21.0334 21.7985 21.1195 21.4582C21.3035 21.3255 21.5196 21.1807 21.5196 20.9315C21.3435 20.9938 21.1712 21.0663 21.0034 21.1486H21.0274ZM16.838 22.3547C16.8476 22.5201 16.8717 22.6842 16.9101 22.8453C17.0781 22.5075 17.2382 22.1698 17.4062 21.8321L17.5663 21.8884L17.7103 21.4582C17.6804 21.3613 17.6804 21.2575 17.7103 21.1606C17.5943 21.229 17.5343 21.43 17.3742 21.3737C17.3742 21.2491 17.4142 21.1285 17.4342 21.0038C17.1966 21.4358 16.9971 21.8878 16.838 22.3547ZM17.8504 21.036L17.8144 21.2049L17.9144 21.1807L17.8704 21.0601L17.8504 21.036ZM20.2512 21.2008C20.1311 21.3496 20.0071 21.4943 19.887 21.6391C19.9069 21.6833 19.9172 21.7313 19.9172 21.7798C19.9172 21.8283 19.9069 21.8763 19.887 21.9205C19.835 22.0894 19.687 22.21 19.675 22.3909C19.6432 22.6293 19.5868 22.8638 19.5069 23.0905C19.4669 23.191 19.4029 23.2795 19.3589 23.3719C19.4549 23.3076 19.4989 23.1749 19.619 23.1468C19.6512 22.8732 19.7116 22.6038 19.799 22.3427C19.8201 22.2546 19.8631 22.1733 19.924 22.1065C19.9849 22.0397 20.0617 21.9895 20.1471 21.9607C20.1934 22.0443 20.2168 22.1386 20.2152 22.2341C20.2152 22.4552 20.0391 22.6362 20.0231 22.8573C20.014 23.0853 19.9567 23.3087 19.855 23.5127C19.9697 23.5435 20.0771 23.5968 20.1711 23.6695C20.1303 23.5882 20.0968 23.5035 20.0711 23.4162C20.0998 23.3055 20.1185 23.1925 20.1271 23.0784L20.0311 23.0262C20.0667 22.8483 20.1204 22.6745 20.1911 22.5075C20.2496 22.4616 20.2997 22.4058 20.3392 22.3427L20.2592 22.2784C20.2592 22.2221 20.2592 22.1658 20.2592 22.1135L20.3952 22.0371C20.3712 21.8843 20.3432 21.7275 20.3232 21.5748C20.3971 21.4652 20.4258 21.3312 20.4032 21.2008H20.2552H20.2512ZM21.2435 21.5144C21.1236 21.8234 21.1236 22.1664 21.2435 22.4754C21.3795 22.4553 21.5196 22.4392 21.6436 22.407C21.7442 22.2412 21.8697 22.092 22.0157 21.9648C22.1238 22.0532 22.2878 22.1819 22.4159 22.0371L22.2598 21.6351C22.1678 21.6672 22.0157 21.816 21.9557 21.6672H21.8357C21.8056 21.5765 21.7695 21.4878 21.7276 21.4019C21.6916 21.3335 21.6076 21.3134 21.5436 21.2853C21.4516 21.3617 21.3515 21.43 21.2635 21.5144H21.2435ZM17.8424 21.3536C17.5183 22.3306 17.1381 23.3197 17.1261 24.365L17.5263 24.6867C17.5509 24.488 17.5856 24.2907 17.6303 24.0956C17.671 24.0108 17.7236 23.9323 17.7864 23.8624C18.032 23.5193 18.2489 23.1562 18.4346 22.7769C18.5266 22.6965 18.6626 22.6925 18.7627 22.6201C18.7255 22.258 18.6365 21.9033 18.4986 21.5667C18.4106 21.6391 18.3505 21.7436 18.2465 21.7919C18.1665 21.7677 18.1865 21.6712 18.1745 21.6069C18.0144 21.6069 17.9784 21.426 17.9304 21.3054L17.8384 21.3536H17.8424ZM25.3488 21.3536C25.3168 21.3536 25.2768 21.4059 25.2928 21.4461C25.3088 21.4863 25.4489 21.3536 25.3488 21.3536ZM22.3439 21.5908C22.3682 21.7399 22.4168 21.8839 22.4879 22.017C22.5399 22.0317 22.5948 22.0328 22.6473 22.0201C22.6999 22.0075 22.7483 21.9815 22.788 21.9446C22.7318 21.8102 22.6592 21.6833 22.5719 21.5667L22.4239 21.6873C22.4239 21.6351 22.4239 21.5828 22.4239 21.5345L22.3639 21.5908H22.3439ZM17.4422 21.9929C17.2502 22.3427 17.1021 22.7166 16.9141 23.0704C16.73 23.0141 16.774 22.789 16.746 22.6442C16.4986 23.359 16.34 24.1017 16.2738 24.8555C16.3794 24.7666 16.4641 24.6554 16.5219 24.5299C16.5836 24.3576 16.6292 24.1799 16.658 23.9991H16.73C16.77 24.1399 16.798 24.2846 16.83 24.4253C16.9021 24.3409 17.0061 24.2645 17.0141 24.1439C17.1371 23.4398 17.3041 22.7442 17.5143 22.0612C17.5383 22.0251 17.5143 21.9446 17.4782 22.0009L17.4422 21.9929ZM21.7557 22.3949C21.8391 22.5739 21.9468 22.7403 22.0758 22.8895C22.1274 22.9322 22.1896 22.96 22.2558 22.9699C22.2742 22.9062 22.3011 22.8453 22.3359 22.789C22.3959 22.7568 22.4639 22.789 22.5239 22.8091C22.5599 22.5759 22.5839 22.3387 22.6279 22.1014C22.5211 22.0782 22.4094 22.0969 22.3158 22.1537C22.2158 22.214 22.1078 22.1537 22.0237 22.0854C21.9291 22.1838 21.8396 22.2871 21.7557 22.3949ZM20.6153 22.2542C20.6153 22.3547 20.6153 22.4593 20.6153 22.5638C20.6153 22.6683 20.6713 22.7126 20.6793 22.793C20.6518 22.9571 20.6062 23.1175 20.5433 23.2714C20.5334 23.2914 20.5283 23.3134 20.5283 23.3357C20.5283 23.3581 20.5334 23.3801 20.5433 23.4001C20.6513 23.573 20.7673 23.7418 20.8794 23.9147L21.2035 23.7418C21.2541 23.6254 21.293 23.5042 21.3195 23.38C21.3232 23.2433 21.2794 23.1097 21.1955 23.002C21.042 22.7572 20.9082 22.5004 20.7953 22.2341L20.6153 22.2542ZM20.2752 22.5477C20.2111 22.6832 20.1705 22.8287 20.1551 22.9779C20.3112 22.9417 20.3992 22.797 20.5072 22.6925C20.5072 22.5678 20.4752 22.4472 20.4592 22.3266C20.4272 22.4206 20.3616 22.4994 20.2752 22.5477ZM21.2795 22.5477C21.2397 22.6009 21.1834 22.6391 21.1195 22.6563C21.1875 22.9056 21.4476 23.0583 21.4796 23.3156C21.4556 23.4684 21.3515 23.5971 21.3395 23.7539C21.3875 23.7941 21.4436 23.8303 21.4956 23.8705L21.4476 24.0032C21.4956 24.0755 21.5556 24.1439 21.6036 24.2162C21.7156 24.2484 21.8237 24.2926 21.9357 24.3248C22.1358 24.2645 22.3359 24.1881 22.5359 24.1278C22.4599 23.9388 22.3559 23.766 22.2838 23.581C22.3108 23.4406 22.3242 23.2979 22.3238 23.1548C22.2718 23.0463 22.1318 23.0664 22.0398 23.0221C21.9117 22.8573 21.8117 22.6724 21.6956 22.4955L21.2955 22.5477H21.2795ZM18.8067 22.7407C18.7671 22.7761 18.7208 22.8032 18.6707 22.8204C18.6205 22.8377 18.5675 22.8447 18.5146 22.8412C18.4066 23.0423 18.3025 23.2433 18.1985 23.4443L18.3785 23.376C18.3858 23.2937 18.4033 23.2126 18.4306 23.1347C18.4986 23.0583 18.6306 23.1347 18.6987 23.0423C18.7667 22.9498 18.8707 22.8573 18.8067 22.7407ZM20.1391 23.3719L20.2792 23.6011L20.4312 23.4805C20.4154 23.4349 20.4154 23.3853 20.4312 23.3398C20.4672 23.1347 20.5673 22.9377 20.6193 22.7447C20.3952 22.8908 20.2317 23.1137 20.1591 23.3719H20.1391ZM17.8024 24.0192C17.7712 24.0518 17.7491 24.092 17.7383 24.1358C17.7288 24.3452 17.7034 24.5535 17.6623 24.759C17.7342 25.0218 17.7797 25.2912 17.7984 25.5631C17.7743 25.598 17.7503 25.598 17.7263 25.5631C17.6223 25.8003 17.4862 26.0215 17.3702 26.2547C17.3342 26.3753 17.1902 26.3512 17.0941 26.3833C17.0461 26.6326 16.9621 26.8738 16.9261 27.1231C16.8901 27.3724 16.9261 27.5814 16.9261 27.8106C17.0781 27.9594 17.2062 28.1684 17.4302 28.2127C17.4141 28.0173 17.4558 27.8214 17.5503 27.6498C17.6223 27.5613 17.7343 27.6056 17.8264 27.6498C17.8784 27.485 17.9464 27.3282 17.9864 27.1633C17.9184 26.8658 17.8264 26.5723 17.7663 26.2708C17.7085 26.0655 17.6962 25.85 17.7303 25.6395H17.8464L17.7383 25.7642C17.7845 26.1142 17.8594 26.4598 17.9624 26.7974C17.9969 26.9174 18.0649 27.0248 18.1585 27.107C18.2505 26.9743 18.3225 26.8296 18.4066 26.705C18.6026 26.3471 18.8067 25.9933 18.9987 25.6355C19.0111 25.3622 18.9307 25.0929 18.7707 24.8716C18.7107 24.9399 18.6506 25.0083 18.5906 25.0686L18.4306 24.9681C18.4306 24.4937 18.4066 24.0152 18.3705 23.5408C18.1435 23.6705 17.9501 23.8524 17.8064 24.0715L17.8024 24.0192ZM20.2712 23.7378C20.2712 23.8906 20.3872 23.9991 20.4952 24.0836L20.7993 23.9589C20.6953 23.7901 20.5873 23.6252 20.4752 23.4604C20.388 23.5369 20.3184 23.6316 20.2712 23.7378ZM19.631 24.1921C19.631 24.1439 19.667 24.0997 19.683 24.0514H19.783C19.839 23.971 19.851 23.8222 19.9751 23.8303C19.9751 23.8866 19.9751 23.9429 19.9751 23.9951L20.1191 23.963C20.174 24.0521 20.217 24.1481 20.2472 24.2484C19.847 24.8033 19.5109 25.3742 19.1588 25.9491C19.1269 25.8708 19.0908 25.7944 19.0508 25.7199C18.8227 26.122 18.5946 26.5241 18.3745 26.9261C18.6306 27.3282 18.9027 27.682 19.1748 28.0599H19.3309C19.3909 27.6337 19.4389 27.2075 19.5229 26.7894C19.5229 26.7412 19.5229 26.6607 19.615 26.6728C19.623 26.8268 19.623 26.9812 19.615 27.1352C19.6702 27.0886 19.7363 27.0568 19.807 27.0427C19.7935 27.1354 19.7531 27.2221 19.691 27.292C19.691 27.6619 19.759 28.0277 19.791 28.3976C19.7511 28.692 19.739 28.9895 19.755 29.2862C19.807 29.5395 19.855 29.7968 19.9071 30.0541C20.0798 30.0752 20.2454 30.1357 20.3912 30.231C20.4865 30.3208 20.5533 30.4369 20.5833 30.5647C20.7118 30.4996 20.8457 30.4458 20.9834 30.4039C21.3024 30.5728 21.6451 30.6921 21.9997 30.7577C22.0499 30.7432 22.0949 30.7147 22.1296 30.6756C22.1643 30.6365 22.1873 30.5883 22.1958 30.5366C22.1844 30.428 22.133 30.3276 22.0518 30.2551C21.877 30.0861 21.6867 29.934 21.4836 29.8008C21.4596 29.3987 21.4316 28.9605 21.3795 28.5424C20.9074 28.2087 20.7873 27.6096 20.5793 27.099L20.3592 27.0226C20.3592 27.0749 20.3792 27.1271 20.3912 27.1754C20.253 27.2187 20.111 27.2483 19.9671 27.2638C19.9137 27.1673 19.8657 27.0668 19.823 26.9623C19.847 26.8899 19.871 26.8175 19.899 26.7452C19.711 26.6849 19.627 26.4919 19.5309 26.3431C19.4349 26.1944 19.3309 26.2305 19.2628 26.1421C19.2812 25.9848 19.3375 25.8343 19.4269 25.7039C19.5773 25.443 19.7458 25.1931 19.9311 24.956C19.9591 25.0123 20.0151 25.0968 19.9311 25.137L20.0071 25.342C20.079 25.3607 20.1459 25.395 20.2031 25.4425C20.2278 25.5343 20.2586 25.6243 20.2952 25.7119C20.3875 25.7744 20.4837 25.8308 20.5833 25.8808C20.6953 25.9491 20.8354 25.937 20.9514 26.0014C21.2395 26.1501 21.4476 26.4034 21.7276 26.5683C21.8209 26.4528 21.8805 26.3136 21.8997 26.1662C21.8937 26.0618 21.8937 25.9571 21.8997 25.8526C21.8657 25.7881 21.827 25.7263 21.7837 25.6677L21.7276 25.728C21.6544 25.7315 21.5812 25.7202 21.5125 25.6946C21.4437 25.6691 21.3808 25.6298 21.3275 25.5792C21.1515 25.3661 21.1235 25.0606 20.9274 24.8676C20.8033 24.8193 20.6553 24.8234 20.5633 24.7148C20.4341 24.684 20.3161 24.6171 20.2232 24.5218C20.262 24.4515 20.3061 24.3843 20.3552 24.3208L20.4312 24.3449L20.4552 24.1801C20.3832 24.1157 20.3032 24.0595 20.2352 23.9871C20.2077 23.8998 20.1701 23.8162 20.1231 23.7378C20.063 23.6781 19.9942 23.6279 19.9191 23.589C19.8117 23.643 19.7258 23.7322 19.6756 23.8419C19.6254 23.9515 19.6139 24.075 19.643 24.1921H19.631ZM19.5109 24.16C19.4907 24.2218 19.4747 24.2849 19.4629 24.3489C19.5099 24.2915 19.5489 24.2279 19.5789 24.16H19.5109ZM21.3555 24.2323V24.4414L21.4556 24.4615V24.2323H21.3555ZM16.5539 24.6947C16.472 24.7979 16.3824 24.8946 16.2859 24.9842C16.3299 25.1571 16.3739 25.334 16.4259 25.5109C16.5179 25.3581 16.582 25.1892 16.682 25.0405C16.734 25.0405 16.754 25.1088 16.77 25.153C16.838 25.3983 16.73 25.6556 16.77 25.9049C16.8452 26.0344 16.9281 26.1592 17.0181 26.2788L17.2702 26.2104C17.4022 25.9451 17.5503 25.6878 17.6703 25.4063C17.6701 25.169 17.5912 24.9384 17.4462 24.751C17.3077 24.6098 17.1563 24.4819 16.9941 24.369C16.9309 24.4505 16.8536 24.52 16.766 24.5741C16.7291 24.4807 16.7023 24.3837 16.686 24.2846C16.6594 24.426 16.6093 24.5619 16.5379 24.6867L16.5539 24.6947ZM35.6322 24.7711C35.6721 24.8805 35.7202 24.9867 35.7763 25.0887C35.7738 25.1507 35.7671 25.2125 35.7563 25.2737C35.8443 25.2133 35.9684 25.1651 35.9964 25.0485C36.0244 24.9319 36.0404 24.8274 36.0724 24.7188H35.9804C35.9304 24.7541 35.8734 24.7781 35.8133 24.7892C35.7532 24.8003 35.6915 24.7982 35.6322 24.7831V24.7711ZM25.2688 24.7711C25.2688 24.8234 25.2688 24.8716 25.2448 24.9239C25.2015 24.9433 25.1557 24.9568 25.1088 24.9641L25.0728 25.0405H24.9767C24.9767 25.1209 24.9767 25.1973 24.9767 25.2777C24.8732 25.3104 24.7634 25.3173 24.6566 25.2978C24.6126 25.2214 24.5886 25.1249 24.5126 25.0807C24.4103 25.0572 24.3053 25.0477 24.2005 25.0525C24.1605 25.1691 24.1324 25.2897 24.0844 25.4023C24.0364 25.5149 23.9364 25.539 23.9044 25.6355C23.8685 25.7493 23.8685 25.8715 23.9044 25.9853C24.0356 26.0268 24.1693 26.0603 24.3045 26.0858C24.4216 26.0472 24.5422 26.0202 24.6646 26.0054C24.7008 26.097 24.725 26.193 24.7366 26.2909C24.7039 26.3975 24.6494 26.496 24.5766 26.5803C24.6766 26.7371 24.8807 26.7412 25.0447 26.7814C25.0928 26.9864 25.1288 27.1834 25.1808 27.4005C25.2368 27.4448 25.3048 27.4809 25.3649 27.5211C25.5929 27.4769 25.765 27.3121 26.0091 27.288C26.0516 27.3275 26.0971 27.3638 26.1451 27.3965C26.2211 27.3684 26.2892 27.292 26.3812 27.3201C26.6548 27.3947 26.9223 27.4901 27.1815 27.6056C27.1827 27.444 27.1961 27.2827 27.2215 27.1231C27.3095 27.0186 27.4695 27.0306 27.5896 26.9944C27.6176 26.8819 27.6416 26.7733 27.6776 26.6648L28.0777 26.6326C28.1295 26.5319 28.2143 26.4524 28.3178 26.4075C28.26 26.3421 28.1802 26.3006 28.0938 26.2909C27.9377 26.2547 27.8777 26.0456 27.6936 26.0617C27.6027 26.0578 27.5144 26.0301 27.4375 25.9813H27.2975C27.2655 25.9572 27.2615 25.9129 27.2455 25.8767L27.0294 25.2415C26.9014 25.2415 26.7773 25.2817 26.6293 25.3018C26.6293 25.2576 26.6013 25.2174 26.5853 25.1772L26.3212 25.0967C26.2892 25.0083 26.2571 24.9239 26.2291 24.8354L25.2688 24.8033V24.7711ZM16.2338 27.3C16.2979 27.1312 16.4019 26.9824 16.4659 26.8175C16.4834 26.2897 16.4075 25.7629 16.2418 25.2616C16.1978 25.9403 16.1978 26.6213 16.2418 27.3H16.2338ZM21.8637 25.2897C21.8637 25.4063 21.8317 25.539 21.9077 25.6395C21.9811 25.727 22.0417 25.8244 22.0878 25.929L21.9997 25.9853C21.9811 26.1327 22.0062 26.2823 22.0718 26.4155C22.0595 26.2804 22.0717 26.1442 22.1078 26.0134L22.3038 26.0617C22.1558 25.8084 22.0077 25.5591 21.8637 25.3058V25.2897ZM16.59 26.8175L16.654 26.8377L16.69 26.9784C16.8553 26.7994 16.9456 26.5632 16.9421 26.319C16.8415 26.1896 16.7606 26.046 16.702 25.8928C16.6601 25.7028 16.6399 25.5085 16.642 25.3139C16.3899 25.7802 16.5499 26.319 16.59 26.8175ZM22.716 25.5752C22.73 25.7652 22.73 25.9561 22.716 26.1461C22.707 26.1887 22.6839 26.227 22.6504 26.2547C22.617 26.2825 22.5753 26.298 22.5319 26.2989C22.3999 26.3311 22.3198 26.1823 22.1878 26.1823V26.4959C22.3999 26.5361 22.6159 26.5642 22.824 26.6165C22.788 26.4155 22.9401 26.2707 23.0321 26.1139C23.0321 25.9089 23.0321 25.7119 23.0001 25.4988L22.892 25.3903C22.832 25.4506 22.768 25.5109 22.708 25.5752H22.716ZM36.0084 25.6275C36.0084 25.8767 36.0804 26.118 36.0924 26.3672C36.1029 26.4443 36.0957 26.5228 36.0715 26.5966C36.0472 26.6705 36.0065 26.7378 35.9524 26.7934C35.9524 26.898 35.9524 26.9985 35.9524 27.103C35.7639 27.2193 35.6244 27.401 35.5602 27.6136C35.6923 27.497 35.8003 27.3563 35.9323 27.2477C36.0644 27.1392 36.0324 27.3322 36.1044 27.3322C36.1104 27.2358 36.1104 27.1391 36.1044 27.0427C36.1653 27.0131 36.2282 26.9876 36.2925 26.9663C36.3245 26.8336 36.3285 26.6768 36.4405 26.5643C36.4307 26.2122 36.2876 25.8771 36.0404 25.6275H36.0084ZM31.6989 25.8526C31.5989 25.9089 31.5189 26.0134 31.3948 26.0134C31.153 26.0034 30.9122 25.9752 30.6746 25.929C30.6093 25.9853 30.5308 26.0241 30.4465 26.0416C30.3265 25.9974 30.2785 25.8607 30.1784 25.7883C30.0808 25.7569 29.9803 25.7353 29.8783 25.724C29.8023 25.8888 29.8463 26.0778 29.7743 26.2386C29.4862 26.2386 29.1981 26.2104 28.914 26.1944C28.7742 26.2475 28.6401 26.3149 28.5139 26.3954C28.7341 26.5714 28.8776 26.8266 28.914 27.107C29.0941 27.1714 29.2821 27.2156 29.4662 27.2799C29.6503 27.3442 29.7503 27.5051 29.8983 27.6176C30.0946 27.5738 30.2939 27.5455 30.4945 27.5332C30.7043 27.5297 30.9109 27.5854 31.0907 27.694C31.4173 27.5668 31.7113 27.3676 31.951 27.111C32.0591 26.9985 31.915 26.8738 31.903 26.7532C32.0139 26.7187 32.1278 26.6945 32.2431 26.6808C32.4093 26.4577 32.5999 26.2541 32.8113 26.0738L32.6673 25.929C32.559 25.9675 32.4458 25.9905 32.3312 25.9974C32.2943 25.8881 32.2715 25.7746 32.2631 25.6596C32.0658 25.6761 31.8758 25.7425 31.7109 25.8526H31.6989ZM20.6113 26.1381C20.6119 26.2733 20.5971 26.4082 20.5673 26.5401H20.3472C20.3472 26.5924 20.3472 26.6447 20.3472 26.6969C20.3967 26.7029 20.4446 26.7187 20.4879 26.7436C20.5312 26.7684 20.5691 26.8018 20.5993 26.8417C20.7224 26.7777 20.8622 26.7539 20.9994 26.7733C21.1355 26.713 21.1715 26.5482 21.2955 26.4798C21.1555 26.3431 21.0034 26.2185 20.8634 26.0778C20.7793 26.0778 20.6633 26.0778 20.6113 26.1542V26.1381ZM23.7003 26.7613C23.8403 26.7613 24.0164 26.717 24.1244 26.8417C24.2085 26.902 24.1565 27.0065 24.1525 27.091C24.2285 27.1444 24.2881 27.2182 24.3245 27.304C24.3605 27.4005 24.3525 27.5171 24.4205 27.5975C24.555 27.752 24.6705 27.922 24.7647 28.1041C24.8051 28.2222 24.8293 28.3453 24.8367 28.47C24.9887 28.5142 25.0127 28.3252 25.0848 28.2368C25.045 28.1565 25.0219 28.069 25.0167 27.9795C25.0608 27.9031 25.1568 27.879 25.2288 27.8388C25.2249 27.7839 25.2249 27.7288 25.2288 27.6739L25.3168 27.6257L25.1168 27.5131C25.0728 27.3081 25.0327 27.111 24.9927 26.906C24.855 26.8726 24.721 26.8255 24.5926 26.7653C24.4846 26.6447 24.2925 26.6688 24.1925 26.5562C24.1914 26.4375 24.2145 26.3198 24.2605 26.2104C24.1685 26.1903 24.0764 26.1702 23.9844 26.1582L23.7443 26.7613H23.7003ZM34.5039 26.1984C34.4639 26.3471 34.4398 26.4999 34.4078 26.6487L34.2398 26.6768C34.1958 26.8336 34.1758 26.9944 34.1398 27.1553C34.1918 27.1754 34.2678 27.1834 34.2798 27.2477C34.2879 27.3253 34.2879 27.4034 34.2798 27.4809C34.3534 27.461 34.4236 27.4298 34.4879 27.3885C34.5336 27.3187 34.5662 27.241 34.5839 27.1593C34.5279 27.099 34.4358 27.0507 34.4278 26.9623C34.4198 26.8738 34.5599 26.7291 34.5879 26.6004C34.6159 26.4718 34.5879 26.327 34.5879 26.1984H34.4959H34.5039ZM20.4512 26.3713C20.4072 26.3713 20.4072 26.4155 20.4512 26.4356C20.4952 26.4557 20.4952 26.3914 20.4512 26.3713ZM19.9631 26.8578C19.945 26.9713 19.9618 27.0877 20.0111 27.1915L20.2472 27.1392C20.2176 27.0629 20.1923 26.9851 20.1711 26.906C20.2842 26.9255 20.3954 26.9551 20.5032 26.9944V26.8377L20.2552 26.7492C20.2552 26.6728 20.2552 26.6004 20.2552 26.5241C20.1281 26.5975 20.0337 26.7168 19.9911 26.8578H19.9631ZM21.3035 26.5803C21.2275 26.6849 21.1755 26.8176 21.0554 26.8779C20.9237 26.9044 20.7897 26.9178 20.6553 26.9181C20.6808 27.2995 20.7974 27.6691 20.9954 27.9956C21.0975 28.1813 21.2332 28.3463 21.3955 28.4821C21.4077 28.4552 21.4286 28.4334 21.4548 28.4203C21.481 28.4071 21.511 28.4034 21.5396 28.4097C21.5396 28.0559 21.4996 27.7061 21.5036 27.3523C21.5476 27.2477 21.6396 27.1714 21.6636 27.0588C21.6815 26.9321 21.6815 26.8035 21.6636 26.6768C21.5617 26.6128 21.4437 26.5794 21.3235 26.5803H21.3035ZM23.5803 26.8899C23.5403 26.9744 23.4962 27.0628 23.4482 27.1432L23.2201 27.1151C23.5712 27.5048 23.8298 27.9694 23.9764 28.474L24.1404 28.5625C24.2445 28.5223 24.3445 28.466 24.4486 28.4177C24.5415 28.3917 24.6397 28.3917 24.7326 28.4177C24.6886 27.9835 24.2885 27.698 24.2085 27.2719C24.1459 27.2299 24.0857 27.1842 24.0284 27.1352C24.0284 27.0829 24.0564 27.0266 24.0644 26.9703L24.0044 26.8899H23.5803ZM16.5539 26.9904C16.5539 27.2075 16.618 27.4568 16.4899 27.6538C16.4226 27.4869 16.4045 27.3041 16.4379 27.1271C16.3653 27.2611 16.3115 27.4045 16.2779 27.5533C16.3139 27.694 16.4819 27.7302 16.582 27.8187C16.668 28.005 16.7324 28.2006 16.774 28.4016C16.653 28.5166 16.554 28.6528 16.4819 28.8037C16.5779 28.9203 16.674 29.0369 16.778 29.1495C16.8019 29.0116 16.8566 28.881 16.9381 28.7675C16.9614 28.7456 16.9894 28.7292 17.0198 28.7195C17.0503 28.7098 17.0825 28.707 17.1141 28.7112C17.2431 29.0348 17.4198 29.337 17.6383 29.6078C17.5983 29.4389 17.5463 29.2741 17.4983 29.1093C17.4449 28.8584 17.4274 28.6012 17.4462 28.3454C17.1741 28.3011 17.0021 28.0679 16.822 27.883C16.822 27.6136 16.822 27.3442 16.822 27.0789C16.7557 27.1242 16.6846 27.162 16.61 27.1915C16.61 27.1312 16.582 27.0708 16.5699 27.0105L16.5539 26.9904ZM18.2025 27.3161L18.0824 27.2598L17.8544 27.8267L17.7303 27.7503L17.5423 27.875C17.5423 28.2207 17.5423 28.5665 17.5423 28.9123C17.5423 29.258 17.7063 29.4912 17.7904 29.7807C17.9715 30.2129 18.2097 30.6186 18.4986 30.9869C18.4986 30.7456 18.4426 30.5084 18.4146 30.2672L18.5586 30.231C18.5496 30.1349 18.5591 30.038 18.5866 29.9455C18.6863 29.9333 18.7871 29.9333 18.8867 29.9455C18.9947 29.7485 19.1068 29.5435 19.2228 29.3585C19.2816 29.1886 19.3166 29.0114 19.3269 28.8318C19.3355 28.6313 19.3221 28.4304 19.2868 28.2328H19.1108C18.8467 27.879 18.5986 27.5131 18.3465 27.1553L18.1825 27.3603L18.2025 27.3161ZM34.7199 27.2518C34.6398 27.5187 34.6641 27.8064 34.788 28.0559C34.8621 27.9979 34.9228 27.9243 34.9656 27.8402C35.0085 27.7562 35.0325 27.6638 35.036 27.5694C34.9386 27.4608 34.8329 27.36 34.7199 27.2679V27.2518ZM25.785 27.5533C25.785 27.6136 25.833 27.6538 25.861 27.698C25.9322 27.7791 25.9842 27.8753 26.0131 27.9795C25.9125 28.0056 25.8088 28.0178 25.705 28.0157C25.5849 27.9312 25.5049 27.7945 25.3609 27.7383C25.4157 27.8633 25.5071 27.9687 25.6228 28.0404C25.7385 28.1122 25.8732 28.147 26.0091 28.1403C26.0251 28.1166 26.0425 28.0938 26.0611 28.072C26.2451 28.0237 26.4372 28.0197 26.6173 27.9634C26.7973 27.9071 26.9374 27.8026 27.0934 27.7182C26.8937 27.6182 26.6828 27.5426 26.4652 27.493C26.3292 27.493 26.2051 27.6418 26.0851 27.5332C25.965 27.4246 25.873 27.497 25.785 27.5332V27.5533ZM25.4809 27.6779C25.5929 27.7744 25.685 27.9594 25.881 27.9111C25.8325 27.7964 25.7618 27.6926 25.673 27.6056C25.6126 27.6255 25.5538 27.6497 25.4969 27.6779H25.4809ZM16.3259 27.7584C16.3499 28.0639 16.4019 28.3695 16.4539 28.671C16.5242 28.5596 16.6075 28.457 16.702 28.3655C16.6655 28.2281 16.6187 28.0937 16.5619 27.9634C16.5016 27.8732 16.4206 27.7988 16.3259 27.7463V27.7584ZM35.4602 27.9232C35.4602 28.0317 35.5722 28.1122 35.6042 28.2167V27.9715L35.4482 27.9232H35.4602ZM25.1608 27.9915C25.1846 28.0821 25.1967 28.1753 25.1968 28.269C25.1695 28.3627 25.1319 28.453 25.0848 28.5383C25.2728 28.5906 25.4209 28.4418 25.5969 28.4137L25.6329 28.7032C25.801 28.7032 25.965 28.7032 26.1291 28.7032C26.1377 28.6472 26.1297 28.59 26.1063 28.5386C26.0828 28.4871 26.0448 28.4437 25.9971 28.4137C25.9971 28.3614 25.9971 28.3092 25.9971 28.2609C25.8803 28.2508 25.7641 28.2347 25.6489 28.2127C25.5529 28.1443 25.4889 28.0358 25.3769 27.9835C25.2648 27.9312 25.2288 27.9835 25.1568 28.0036L25.1608 27.9915ZM24.2125 28.6509C24.0884 28.6509 23.9684 28.5263 23.8444 28.5987C23.7203 28.671 23.6163 28.9283 23.5563 29.1133C23.6163 29.1816 23.7083 29.2419 23.7443 29.3304C23.7123 29.447 23.5923 29.5073 23.5362 29.6159C23.8083 29.7043 24.0804 29.8088 24.3365 29.8812L24.4806 29.644C24.6526 29.644 24.8247 29.6239 24.9967 29.6199C25.0447 29.5113 25.0928 29.4028 25.1488 29.2982H25.3528C25.4102 29.2057 25.4368 29.0973 25.4289 28.9886C25.6089 28.86 25.829 28.9404 26.0291 28.8318C25.861 28.8318 25.689 28.8318 25.5249 28.8037C25.5047 28.7215 25.4887 28.6383 25.4769 28.5544L25.2288 28.6871L24.5486 28.478C24.5059 28.5319 24.4518 28.5753 24.3901 28.6053C24.3285 28.6352 24.2609 28.6508 24.1925 28.6509H24.2125ZM16.834 29.3103C16.754 29.2419 16.682 29.1656 16.61 29.0972C17.1461 30.3034 17.6583 31.5417 18.1185 32.7881C18.1775 32.9738 18.2553 33.1529 18.3505 33.3228C18.5386 33.6123 18.7507 33.8817 18.9587 34.1591C19.1195 34.2094 19.273 34.2811 19.4149 34.3722C19.3292 34.0871 19.2291 33.8066 19.1148 33.5319C19.0668 33.3871 18.9307 33.3027 18.8387 33.1901C18.3633 32.715 18.0484 32.1018 17.9384 31.4372C18.0347 31.4503 18.1273 31.4832 18.2105 31.5337V31.3929C18.1145 31.3648 17.9984 31.3929 17.9264 31.3005C17.8264 31.0673 17.9824 30.8381 17.9984 30.6089C17.9969 30.4549 17.9555 30.3038 17.8784 30.1707C17.8183 30.0256 17.7374 29.8901 17.6383 29.7686C17.3943 29.488 17.2007 29.167 17.0661 28.8198C16.866 28.9123 16.9621 29.1736 16.834 29.3223V29.3103ZM26.1571 28.8198L26.0131 28.9404L26.2411 28.9002L26.1571 28.8198ZM26.4292 28.9163C26.4292 28.9484 26.3892 28.9886 26.3452 28.9927L25.9731 29.065L25.865 29.4389C25.982 29.5385 26.0681 29.6696 26.1131 29.8169H25.953C25.953 29.8732 25.953 29.9295 25.953 29.9857L25.3168 30.5004C25.1808 30.4722 25.0367 30.3516 24.9167 30.4642C24.9607 30.7054 25.1248 30.9145 25.1208 31.1678C24.9832 31.175 24.846 31.1488 24.7206 31.0914C24.6812 31.0865 24.6412 31.09 24.6033 31.1018C24.5653 31.1136 24.5303 31.1333 24.5006 31.1597C24.5006 31.212 24.5406 31.2683 24.5646 31.3206C24.672 31.3194 24.7784 31.3413 24.8767 31.3849C24.8546 31.4297 24.8237 31.4695 24.7859 31.502C24.7481 31.5345 24.7041 31.5589 24.6566 31.5739L24.7767 31.7789C24.8486 31.7829 24.9208 31.7829 24.9927 31.7789C25.0447 31.7146 25.0648 31.6301 25.1208 31.5698C25.1683 31.5676 25.2148 31.5839 25.2507 31.6154C25.2865 31.6469 25.3088 31.6911 25.3128 31.7387C25.3128 31.8834 25.2328 32.0161 25.2208 32.1609C25.2088 32.3056 25.2888 32.5629 25.3208 32.776C25.3656 32.9748 25.4258 33.1697 25.5009 33.359C25.5954 33.7164 25.7738 34.0459 26.0211 34.3199L26.4212 34.0706C26.4892 33.757 26.5292 33.4394 26.5853 33.1258C26.7424 33.0828 26.8974 33.0318 27.0494 32.973C27.4125 32.7562 27.7518 32.5015 28.0617 32.2131C28.1218 32.1413 28.1935 32.0801 28.2738 32.0322L28.3578 32.1488C28.2729 31.8428 28.2351 31.5255 28.2458 31.208C28.2505 31.171 28.2633 31.1356 28.2834 31.1043C28.3035 31.073 28.3303 31.0466 28.3618 31.0271V30.8743C28.2258 30.8381 28.1858 30.9828 28.1098 31.0592C28.0871 31.0892 28.0553 31.111 28.0191 31.1211C27.983 31.1313 27.9446 31.1293 27.9097 31.1155C27.4859 30.9829 27.0841 30.7878 26.7173 30.5366C26.7543 30.454 26.8043 30.378 26.8653 30.3114C26.7851 30.2665 26.7076 30.2169 26.6333 30.1626C26.5571 30.0436 26.5298 29.8994 26.5572 29.7606H26.7413L26.6693 29.4912C26.7469 29.4166 26.8155 29.3329 26.8734 29.2419C26.7353 29.1336 26.5895 29.0355 26.4372 28.9484L26.4292 28.9163ZM25.5489 29.0369C25.5351 29.1649 25.4851 29.2863 25.4049 29.3867H25.2048C25.1408 29.4993 25.1048 29.7003 24.9407 29.6922C24.8066 29.6899 24.6726 29.7006 24.5406 29.7244C24.4966 29.8048 24.4485 29.8812 24.4005 29.9616C24.1255 29.916 23.8569 29.8377 23.6003 29.7284C23.6903 29.9188 23.7678 30.1149 23.8323 30.3154C23.7843 30.4883 23.5483 30.3154 23.4642 30.4521C23.6883 30.5567 23.9284 30.621 24.1605 30.7054C24.1965 30.7054 24.2485 30.7255 24.2685 30.7698C24.3226 30.8852 24.3912 30.9933 24.4726 31.0914L24.6326 30.9386C24.7719 30.9864 24.906 31.0484 25.0327 31.1236C24.9797 30.961 24.9183 30.8013 24.8487 30.6451C24.8376 30.5782 24.8435 30.5096 24.8659 30.4456C24.8883 30.3817 24.9264 30.3244 24.9767 30.2792C25.0888 30.3034 25.1928 30.3596 25.3048 30.3757C25.3749 30.3428 25.4397 30.2994 25.4969 30.2471C25.6129 30.1425 25.745 30.0621 25.857 29.9536C25.857 29.8571 25.857 29.7646 25.857 29.6721L26.0211 29.7566C25.9611 29.6762 25.901 29.6038 25.837 29.5314C25.773 29.459 25.773 29.4711 25.785 29.4269C25.8233 29.2672 25.8714 29.1101 25.929 28.9565C25.8077 28.9715 25.6874 28.9943 25.5689 29.0248L25.5489 29.0369ZM19.0628 29.9053C18.9747 30.0058 18.8307 29.9978 18.7107 30.0058C18.7206 30.09 18.7206 30.175 18.7107 30.2591C18.6696 30.2906 18.6254 30.3175 18.5786 30.3395C18.5786 30.5446 18.6306 30.7416 18.6586 30.9507C18.6586 31.011 18.7147 31.0512 18.7507 31.0994C18.9227 31.2964 19.0868 31.5015 19.2748 31.6945C19.4673 31.8894 19.6974 32.0426 19.9511 32.1448C20.0951 32.1448 20.2352 32.0965 20.3752 32.0845C20.0847 31.7813 19.8479 31.4305 19.675 31.0472C19.6846 30.7177 19.5893 30.3937 19.4029 30.1224C19.3549 29.8892 19.4029 29.644 19.3469 29.4068C19.2228 29.5555 19.1868 29.7526 19.0708 29.9053H19.0628ZM22.0318 30.1265L22.1798 30.2551C22.2587 30.1668 22.3309 30.0728 22.3959 29.9737C22.2693 30.011 22.1472 30.0623 22.0318 30.1265ZM19.9471 30.1787C19.9471 30.428 19.9471 30.6773 19.9471 30.9265C20.3664 31.1287 20.8103 31.2747 21.2675 31.3608C21.3639 31.3442 21.458 31.3158 21.5476 31.2763C21.5477 31.109 21.5316 30.942 21.4996 30.7778C21.3355 30.7054 21.1755 30.617 21.0074 30.5486C20.8394 30.5486 20.7153 30.7295 20.5393 30.7054C20.5015 30.586 20.4476 30.4724 20.3792 30.3677C20.2701 30.2622 20.1295 30.1958 19.9791 30.1787H19.9471ZM26.8493 30.4883C27.2154 30.7486 27.6207 30.9481 28.0497 31.0793C28.097 31.0205 28.1385 30.9572 28.1738 30.8904C28.0737 30.8904 27.9657 30.8904 27.8657 30.8662C27.661 30.6585 27.4176 30.4932 27.1494 30.3798C27.0943 30.3677 27.0369 30.3715 26.9839 30.3907C26.9308 30.4099 26.8842 30.4437 26.8493 30.4883ZM34.5199 30.4079C34.5199 30.4964 34.4719 30.5808 34.4439 30.6692L34.5239 30.7657C34.5239 30.6652 34.5519 30.5647 34.5639 30.4642C34.5505 30.4445 34.5358 30.4257 34.5199 30.4079ZM18.1545 30.621C18.0729 30.8118 18.0281 31.0165 18.0224 31.2241L18.3225 31.2964C18.3308 31.4196 18.3186 31.5432 18.2865 31.6623C18.2172 31.6404 18.1491 31.6149 18.0824 31.5859C18.094 31.8548 18.1799 32.1152 18.3305 32.3378C18.5025 32.629 18.708 32.8989 18.9427 33.1419H18.9707C19.0047 33.0558 19.0598 32.9798 19.1308 32.9207C18.9467 32.4905 18.5346 32.193 18.3945 31.7427C18.3738 31.6694 18.3761 31.5914 18.4012 31.5194C18.4263 31.4474 18.4729 31.385 18.5346 31.3407C18.4632 31.0721 18.3256 30.8259 18.1345 30.625L18.1545 30.621ZM28.4939 30.9788C28.6419 30.9788 28.79 30.9788 28.938 30.9587C28.8258 30.8943 28.6991 30.8597 28.5699 30.8582C28.5059 30.8582 28.5099 30.9346 28.4939 30.9788ZM20.1311 31.6342L20.3832 31.9357C20.4312 32 20.5072 32.0603 20.4992 32.1488C20.4085 32.2004 20.3072 32.2307 20.2031 32.2372C20.1059 32.2613 20.0043 32.2613 19.9071 32.2372C19.7763 32.1831 19.6427 32.1361 19.5069 32.0965C19.5629 32.3378 19.623 32.575 19.679 32.8162C19.871 32.7881 20.0791 32.776 20.2632 32.7438C20.3832 32.6715 20.4912 32.583 20.6073 32.5026C20.7924 32.4042 20.9318 32.2367 20.9954 32.0362C20.7033 31.9116 20.4232 31.7749 20.1311 31.6342ZM31.2348 31.7548C31.2908 31.9478 31.4869 32.0282 31.6349 32.1126C31.6349 32.1729 31.6069 32.2332 31.5949 32.2935L31.775 32.4182C31.8996 32.2482 32.0119 32.0695 32.1111 31.8834C31.9712 31.7742 31.8195 31.6811 31.6589 31.606C31.5048 31.6244 31.3562 31.6751 31.2228 31.7548H31.2348ZM31.0307 31.8191C31.0286 31.8539 31.0286 31.8888 31.0307 31.9236L30.8787 31.9639C30.845 32.0157 30.8143 32.0694 30.7866 32.1247C30.8386 32.1849 30.8947 32.2413 30.9547 32.2935L30.9787 32.587C31.1403 32.5179 31.306 32.4588 31.4749 32.4101C31.579 32.4966 31.6766 32.5907 31.767 32.6916C31.8396 32.8067 31.8835 32.9377 31.895 33.0735C31.979 33.0293 32.0631 32.9891 32.1431 32.9368C32.1371 32.8876 32.1213 32.8402 32.0965 32.7973C32.0718 32.7545 32.0386 32.7171 31.999 32.6875C31.8383 32.5519 31.6639 32.4333 31.4789 32.3337C31.4789 32.2734 31.5109 32.2131 31.5229 32.1528C31.3652 32.0786 31.2349 31.9562 31.1508 31.803H31.0387L31.0307 31.8191ZM32.5112 32.2212C32.4792 32.3056 32.5832 32.3378 32.6393 32.2976C32.7067 32.2237 32.7572 32.1358 32.7873 32.0402C32.6794 32.0716 32.5833 32.1346 32.5112 32.2212ZM30.5906 32.2775C30.5174 32.323 30.4568 32.3863 30.4141 32.4614C30.3715 32.5365 30.3483 32.6212 30.3465 32.7077C30.4052 32.7774 30.4525 32.8561 30.4865 32.9408C30.4965 33.0492 30.4965 33.1582 30.4865 33.2665C30.5586 33.4072 30.6546 33.5278 30.7386 33.6686C30.7826 33.6123 30.8187 33.5359 30.8987 33.5319C31.0368 33.556 31.1647 33.6203 31.2668 33.7168C31.2668 33.556 31.2028 33.367 31.3188 33.2343C31.4572 33.1447 31.6184 33.0972 31.783 33.0977C31.7859 33.0064 31.7681 32.9156 31.731 32.8323C31.6565 32.7205 31.5646 32.6214 31.4589 32.5388C31.2743 32.6156 31.0844 32.6787 30.8907 32.7278C30.867 32.595 30.8537 32.4606 30.8507 32.3257C30.8166 32.2974 30.7763 32.2779 30.7331 32.2688C30.6898 32.2597 30.6451 32.2613 30.6026 32.2734L30.5906 32.2775ZM35.1761 32.6473C35.1761 32.6956 35.1761 32.7117 35.2201 32.6996C35.2641 32.6875 35.2201 32.6353 35.1761 32.6473ZM35.8123 32.7157C35.7563 32.8323 35.6963 32.9489 35.6322 33.0615C35.6569 33.1252 35.6757 33.1912 35.6883 33.2585H35.8003C35.8008 33.1797 35.8116 33.1013 35.8323 33.0253C35.8323 32.9609 35.9283 32.969 35.9764 32.9489C35.9603 32.8772 35.9376 32.8072 35.9083 32.7398H35.8123V32.7157ZM32.1871 32.7881C32.2191 32.8604 32.2631 32.9248 32.2911 33.0012C32.3191 33.0775 32.2911 33.2665 32.2911 33.4032C32.0751 33.5801 31.851 33.745 31.6349 33.9178L31.895 33.9661L31.919 34.0867L32.0191 33.958C32.2951 33.958 32.4192 33.6887 32.6112 33.5158C32.5712 33.3308 32.5232 33.1419 32.4792 32.9569L32.1831 32.7921L32.1871 32.7881ZM35.4122 33.1298C35.4522 33.1539 35.5122 33.0936 35.4882 33.0534C35.4642 33.0132 35.3922 33.0856 35.4122 33.1298ZM31.935 33.174C31.763 33.2223 31.5629 33.174 31.4068 33.2987C31.2508 33.4233 31.3628 33.6042 31.3828 33.749L31.5229 33.8616C31.735 33.6927 31.959 33.5359 32.1671 33.363C32.185 33.2568 32.1931 33.1491 32.1911 33.0414C32.1031 33.0816 32.0231 33.1338 31.935 33.174ZM30.4625 33.4675C30.4905 33.5801 30.5306 33.6887 30.5666 33.7972L30.6386 33.7249C30.5826 33.6364 30.5226 33.552 30.4625 33.4675ZM30.6426 33.8696C30.6242 33.9303 30.6095 33.992 30.5986 34.0545C30.6266 33.9942 30.6546 33.9259 30.6786 33.8616H30.6426V33.8696ZM34.0437 34.2274C33.9832 34.2993 33.9099 34.3592 33.8276 34.4043C33.5884 34.5823 33.3825 34.8014 33.2194 35.0516L33.6676 34.8385C33.7217 34.8212 33.7693 34.7875 33.8036 34.7421L34.1357 34.2676C34.3093 34.2228 34.4638 34.1227 34.5759 33.9822C34.4833 33.9777 34.3941 33.9455 34.3198 33.8897C34.2129 33.9891 34.12 34.1027 34.0437 34.2274ZM30.5466 34.5048C30.655 34.567 30.7725 34.6118 30.8947 34.6375C30.8141 34.4823 30.7147 34.3378 30.5986 34.2073C30.5751 34.3053 30.5577 34.4047 30.5466 34.5048ZM26.6053 34.3641C26.6053 34.4888 26.6053 34.6174 26.5813 34.7461L26.6453 34.8064L26.8093 34.7782C26.8093 34.722 26.8093 34.6657 26.8373 34.6054L26.6053 34.3641ZM30.9347 34.6777C30.9347 34.7863 31.0307 34.6295 30.9347 34.6777V34.6777ZM30.9787 34.8305C31.0667 34.9913 31.1388 35.1843 31.3188 35.2607C31.4269 35.3089 31.5509 35.3894 31.6669 35.317C31.614 35.2651 31.573 35.2023 31.5467 35.1328C31.5205 35.0634 31.5096 34.989 31.5149 34.9149C31.3708 34.7863 31.1548 34.6737 30.9787 34.8184V34.8305ZM20.2071 35.1722C20.3475 35.4962 20.5747 35.7746 20.8634 35.9764C20.8395 35.807 20.8395 35.6351 20.8634 35.4657C20.8033 35.3813 20.7793 35.2285 20.6473 35.2366C20.6368 35.2589 20.6248 35.2803 20.6113 35.3009C20.5473 35.2969 20.4832 35.2969 20.4192 35.3009C20.3552 35.2607 20.2912 35.2205 20.2232 35.1843L20.2071 35.1722ZM28.962 13.5095C28.962 13.598 28.962 13.6905 28.962 13.7789C29.7695 13.8201 30.5723 13.9263 31.3628 14.0965C32.0985 14.2532 32.8199 14.471 33.5195 14.7479C33.6799 14.7342 33.8391 14.7087 33.9957 14.6715C32.4222 13.9349 30.7135 13.5351 28.978 13.4975L28.962 13.5095ZM28.962 14.2493V14.9248L29.0621 14.8926C29.0941 14.8202 29.0221 14.7921 28.966 14.772C29.0901 14.7077 29.2581 14.6554 29.2981 14.5066C29.2741 14.3981 29.1101 14.4343 29.0861 14.3217C29.0621 14.2091 29.0101 14.2614 28.962 14.2493ZM33.1074 14.9047C33.1074 14.977 33.2194 14.9248 33.1754 14.8725H33.1514L33.1074 14.9127V14.9047ZM22.632 15.0574C21.3729 15.7533 20.2393 16.6571 19.2788 17.7311C19.6005 17.591 19.9358 17.4845 20.2792 17.4135C21.7386 17.1582 23.2247 17.0933 24.7006 17.2205C24.7143 17.1658 24.7317 17.112 24.7526 17.0597C24.8167 17.0154 24.9207 16.9953 24.9167 16.8948L24.7647 16.8747C24.7286 16.8144 24.6966 16.7541 24.6646 16.6938L24.8247 16.5893C24.7958 16.5562 24.7691 16.5213 24.7446 16.4847C24.7446 16.4285 24.7727 16.3722 24.7847 16.3159C24.6966 16.2716 24.5766 16.2515 24.5286 16.1551C24.4806 16.0586 24.3445 16.0746 24.2565 16.0385C24.4754 15.9296 24.7106 15.8576 24.9527 15.8254C25.1078 15.7901 25.2683 15.7862 25.4249 15.8138C25.5815 15.8414 25.7311 15.9 25.865 15.9862C25.865 16.0586 25.829 16.1309 25.813 16.2073H26.0411V16.2917C26.1093 16.3187 26.1826 16.3305 26.2558 16.3264C26.329 16.3222 26.4004 16.3022 26.4652 16.2676C26.5853 16.4365 26.8093 16.4405 26.9894 16.5048C26.2845 16.0121 25.5227 15.607 24.7206 15.2987C24.1177 15.0646 23.474 14.9552 22.828 14.977C22.7578 14.9847 22.6904 15.0095 22.632 15.0494V15.0574ZM24.9247 17.2527H25.1168C25.1168 17.2084 25.1168 17.1642 25.0848 17.12C25.0047 17.12 24.9687 17.1883 24.9247 17.2406V17.2527ZM25.1888 17.2527C25.1888 17.3009 25.2808 17.309 25.2888 17.2527C25.2968 17.1964 25.1968 17.1964 25.1888 17.2527ZM34.1518 20.3807C34.1758 20.5294 34.2958 20.6339 34.3558 20.7827L34.2438 20.7345C34.4318 20.8872 34.5999 21.0682 34.788 21.229C34.6993 20.8851 34.5227 20.5705 34.2758 20.3163C34.2278 20.3163 34.1718 20.3445 34.1518 20.3967V20.3807ZM22.892 21.4421C23.0201 21.5667 23.1441 21.6914 23.2922 21.812C23.3202 21.8441 23.4002 21.812 23.3762 21.7677C23.3762 21.6053 23.318 21.4483 23.2121 21.3255C23.0961 21.2531 22.9841 21.3737 22.904 21.4421H22.892ZM30.3745 25.0606C30.4065 25.1362 30.4425 25.21 30.4825 25.2817L30.5746 25.2536C30.5579 25.1833 30.5352 25.1147 30.5066 25.0485H30.3745V25.0606ZM59.5841 27.6458V26.709H217.412V27.6458H59.5841ZM33.2034 27.7785C33.1794 27.8227 33.1354 27.875 33.1634 27.9272C33.2962 28.035 33.4504 28.1132 33.6156 28.1564C33.6636 28.076 33.7156 27.9996 33.7676 27.9272L33.8757 27.9031H33.8997C33.8116 27.6418 33.7276 27.3764 33.6236 27.1191C33.4755 27.3402 33.3475 27.5734 33.2234 27.7945L33.2034 27.7785ZM33.8877 27.9393C33.802 28.0265 33.7349 28.1303 33.6902 28.2443C33.6455 28.3583 33.6242 28.4802 33.6276 28.6027C33.8368 28.6699 34.0227 28.7953 34.1638 28.9645L33.9357 29.0329C33.9637 29.1655 34.1117 29.1535 34.2158 29.1776C34.1518 29.262 34.0437 29.3425 34.0597 29.459C34.1579 29.4609 34.2555 29.4445 34.3478 29.4108C34.2198 28.9163 34.0717 28.4258 33.9157 27.9393H33.8877ZM41.1221 28.663C40.974 28.9967 40.826 29.3344 40.6499 29.652C40.4076 30.0971 40.1404 30.528 39.8496 30.9426C39.8216 31.4573 39.8016 31.9719 39.7256 32.4825C40.3986 31.2947 40.8743 30.0046 41.1341 28.663H41.1221ZM38.7213 32.1689C38.2503 32.6226 37.7533 33.0481 37.2328 33.4434L37.3568 33.4193C37.2868 33.4856 37.2055 33.5387 37.1167 33.5761C37.1186 33.5614 37.1186 33.5465 37.1167 33.5319C36.5245 33.9138 35.9163 34.2757 35.2961 34.6054C35.2744 34.6654 35.2689 34.7301 35.2802 34.7929C35.2914 34.8558 35.319 34.9145 35.3602 34.9632C35.31 35.0352 35.2696 35.1136 35.2401 35.1964C35.1321 35.5421 35.1041 35.904 35.024 36.2578C34.972 36.4508 34.86 36.6237 34.816 36.8207C35.1745 36.4302 35.5773 36.0834 36.0164 35.7874C36.0548 35.8043 36.0964 35.8131 36.1384 35.8131C36.1804 35.8131 36.222 35.8043 36.2604 35.7874C36.4206 35.6605 36.5493 35.4982 36.6366 35.313C36.7806 35.1803 36.9727 35.0878 37.0367 34.9109C37.1528 34.8271 37.273 34.7493 37.3968 34.6777C37.3367 34.7685 37.2971 34.8715 37.2808 34.9793C37.3874 34.9757 37.4923 34.9507 37.5891 34.9059C37.686 34.861 37.773 34.7971 37.845 34.7179C38.0783 34.4303 38.2721 34.1126 38.4212 33.7731L38.4572 33.8857H38.5452C38.541 33.9868 38.5169 34.0862 38.4743 34.1779C38.4317 34.2697 38.3715 34.3521 38.2971 34.4204C38.037 34.726 37.7289 34.9873 37.4568 35.2808C36.5349 36.1098 35.5275 36.8377 34.4519 37.4519C34.3238 37.5444 34.2158 37.661 34.0917 37.7615C36.2987 36.7202 38.1603 35.0619 39.4535 32.9851C39.5016 32.9189 39.5394 32.8456 39.5655 32.768C39.6886 32.2274 39.7464 31.674 39.7376 31.1195C39.4095 31.4854 39.0814 31.8513 38.7253 32.193L38.7213 32.1689ZM38.1051 32.9248C38.0213 32.9821 37.9516 33.0577 37.901 33.1459C37.805 33.2866 37.7049 33.4193 37.6129 33.548C37.7341 33.4701 37.8706 33.4194 38.013 33.3992C38.0811 33.4474 38.1011 33.5359 38.1491 33.6002C38.3301 33.4512 38.4856 33.2732 38.6092 33.0735C38.6817 32.9455 38.7903 32.8419 38.9213 32.776C39.0701 32.7136 39.2058 32.6235 39.3215 32.5106C39.2374 32.5106 39.0934 32.5106 39.1134 32.386C38.7781 32.5425 38.4521 32.7183 38.1371 32.9127L38.1051 32.9248ZM37.3688 33.5801L37.4368 33.6605L37.5609 33.5962H37.3688V33.5801ZM22.0558 34.6214C21.945 35.5479 22.1648 36.4839 22.676 37.2629C22.7532 37.388 22.8506 37.4994 22.9641 37.5926C24.8057 38.532 26.8491 39.0015 28.914 38.9596C28.854 38.5889 28.8298 38.2132 28.842 37.8379C28.842 37.275 28.842 36.7121 28.878 36.1533H28.3378C27.6301 36.1378 26.9248 36.0638 26.2291 35.9321C24.779 35.6736 23.3655 35.2389 22.0197 34.6375L22.0558 34.6214ZM34.964 34.7662L35.0721 34.8104L35.1481 34.7742C35.1481 34.7421 35.1481 34.7059 35.1481 34.6697C35.0801 34.7018 35.012 34.73 34.948 34.7662H34.964ZM34.3558 35.0074C34.2878 35.0436 34.1958 35.0758 34.1878 35.1642C34.1478 35.313 34.0437 35.4979 33.8637 35.4617C33.5942 35.504 33.327 35.5603 33.0634 35.6306L32.9794 35.5341C32.9069 35.5354 32.8352 35.549 32.7673 35.5743C32.4272 35.6708 32.0831 35.7472 31.739 35.8356C31.855 35.8839 31.979 35.9241 32.0951 35.9643L32.0591 36.2578C31.8955 36.2775 31.7296 36.2599 31.5737 36.2063C31.4179 36.1527 31.276 36.0645 31.1588 35.9482C30.4465 36.0487 29.7343 36.109 29.0181 36.1452C29.0181 36.7403 29.0501 37.3514 29.0581 37.9263C29.0661 38.2688 29.0501 38.6114 29.0101 38.9516C30.582 38.9165 32.1334 38.5851 33.5836 37.9746C33.7985 37.8835 33.9911 37.7463 34.1478 37.5725C33.8396 37.5725 33.6276 37.9344 33.3035 37.866C33.2234 37.866 33.3315 37.8218 33.3275 37.7896C33.3236 37.7392 33.3339 37.6887 33.3573 37.6439C33.3806 37.5991 33.4161 37.5618 33.4595 37.5363C33.8076 37.3514 34.1638 37.1745 34.5159 36.9895C34.5684 36.9668 34.612 36.9272 34.6399 36.877C34.8352 36.5355 34.9705 36.1629 35.0401 35.7753C35.1066 35.4719 35.1335 35.161 35.1201 34.8506H35.02C34.9416 34.9856 34.9041 35.1407 34.912 35.2969C34.884 35.1964 34.844 35.0959 34.824 34.9953C34.8346 34.9211 34.8534 34.8483 34.88 34.7782C34.6839 34.8506 34.4959 34.927 34.3198 35.0074H34.3558Z" fill="#F36C32"/>
<path fill-rule="evenodd" clip-rule="evenodd" d="M208.093 5.29917C209.449 5.24578 210.806 5.40448 212.114 5.76958C213.256 6.08903 214.318 6.64658 215.231 7.40593C216.059 8.11212 216.722 8.99355 217.172 9.98713C217.702 11.1996 217.983 12.5067 218 13.8308V14.4017C217.98 15.1352 217.888 15.865 217.728 16.5808C217.475 17.7183 216.98 18.7869 216.275 19.7128C215.624 20.5442 214.806 21.229 213.875 21.7231C212.752 22.3071 211.531 22.6766 210.274 22.8127C208.976 22.9696 207.664 22.9493 206.372 22.7524C205.054 22.5658 203.789 22.1043 202.659 21.3975C201.739 20.8084 200.96 20.0216 200.378 19.0937C199.672 17.9186 199.247 16.5944 199.138 15.2259C198.997 13.8393 199.118 12.4385 199.494 11.0968C199.817 9.97447 200.387 8.93966 201.163 8.06934C201.959 7.20355 202.938 6.52768 204.027 6.09122C205.321 5.58123 206.695 5.30887 208.085 5.28711L208.093 5.29917ZM208.177 9.4122C207.697 9.46867 207.252 9.69362 206.92 10.0474C206.529 10.5079 206.262 11.0617 206.144 11.6557C205.98 12.4814 205.908 13.3228 205.928 14.1645C205.91 15.004 205.994 15.8425 206.18 16.6612C206.305 17.257 206.593 17.8057 207.012 18.2453C207.389 18.5933 207.877 18.7943 208.389 18.8122C208.817 18.8445 209.245 18.7598 209.629 18.567C210.054 18.3326 210.394 17.9677 210.598 17.5257C210.878 16.9119 211.047 16.253 211.098 15.5797C211.165 14.8366 211.183 14.0898 211.15 13.3443C211.138 12.5548 211.003 11.772 210.75 11.0244C210.58 10.5149 210.261 10.069 209.833 9.7459C209.342 9.42375 208.748 9.29891 208.169 9.39611L208.177 9.4122ZM60.0519 5.58463H66.5501V15.3264H66.6461C68.0759 12.0778 69.5057 8.83055 70.9355 5.58463H78.538V22.6318H72.0279C72.0279 19.4475 72.0279 16.2592 72.0279 13.0749C71.9038 13.0749 71.8878 13.2036 71.8438 13.288L67.6424 22.6318H60.0399V5.58463H60.0519ZM80.9428 5.58463C83.1075 5.58463 85.2763 5.58463 87.441 5.58463C87.441 7.55067 87.441 9.51673 87.441 11.4788H91.7784V5.58865C93.9431 5.58865 96.1078 5.58865 98.2725 5.58865C98.2725 11.2683 98.2725 16.9507 98.2725 22.6358H91.7784V16.3557H87.441V22.6358H80.9428C80.9428 16.9561 80.9428 11.2737 80.9428 5.58865V5.58463ZM99.725 5.58463H117.663V10.6264H111.945C111.945 14.6255 111.945 18.6273 111.945 22.6318H105.447V10.6264H99.725V5.58463ZM119.115 5.58463H133.92C133.92 6.92347 133.92 8.26633 133.92 9.60518H125.614V12.0617H133.552V15.9536H125.614V18.6072H134.092C134.092 19.946 134.092 21.2849 134.092 22.6277H119.115V5.58061V5.58463ZM136.081 5.58463H144.188C144.94 5.58463 145.692 5.58463 146.444 5.58463C147.84 5.59716 149.213 5.94745 150.446 6.60585C151.432 7.1527 152.232 7.98473 152.743 8.99406C153.41 10.3406 153.553 11.8894 153.143 13.3362C152.84 14.3845 152.241 15.3218 151.418 16.034C150.553 16.7553 149.523 17.2498 148.421 17.4734C147.649 17.6375 146.861 17.7157 146.072 17.7066H142.595C142.595 19.347 142.595 20.9833 142.595 22.6237H136.081C136.081 16.944 136.081 11.2616 136.081 5.57659V5.58463ZM142.407 9.52075V13.7544H143.928C144.373 13.7605 144.817 13.7078 145.248 13.5976C145.514 13.549 145.767 13.445 145.991 13.2924C146.215 13.1398 146.404 12.9419 146.547 12.7113C146.691 12.4808 146.784 12.2227 146.822 11.9537C146.86 11.6846 146.842 11.4106 146.769 11.1491C146.722 10.896 146.619 10.6566 146.469 10.448C146.319 10.2395 146.125 10.0669 145.9 9.9429C145.319 9.65051 144.677 9.50296 144.028 9.51271C143.487 9.51271 142.947 9.51271 142.407 9.51271V9.52075ZM160.925 5.57256H170.304C170.9 5.5618 171.496 5.58327 172.089 5.6369C173.103 5.7238 174.093 5.99632 175.01 6.44101C175.873 6.87485 176.615 7.51896 177.167 8.31458C177.774 9.21265 178.125 10.2609 178.182 11.3454C178.238 12.4299 177.998 13.5092 177.487 14.466C177.008 15.3427 176.306 16.0765 175.454 16.5929C174.628 17.0871 173.715 17.4162 172.765 17.5618C172.132 17.661 171.493 17.708 170.853 17.7026H167.411C167.411 19.343 167.411 20.9793 167.411 22.6197H160.925C160.925 16.94 160.925 11.2576 160.925 5.57256ZM167.247 9.52075V13.7584H168.312C168.94 13.793 169.57 13.732 170.18 13.5775C170.649 13.452 171.06 13.168 171.345 12.7734C171.635 12.2912 171.732 11.7165 171.617 11.1652C171.575 10.9283 171.485 10.7027 171.352 10.5027C171.219 10.3027 171.046 10.1326 170.845 10.0032C170.291 9.68508 169.665 9.51611 169.028 9.51271C168.436 9.49261 167.828 9.51271 167.247 9.51271V9.52075ZM184.333 5.57256L178.399 22.6197H184.893C185.273 21.3934 185.649 20.1672 186.03 18.9449H191.119L192.284 22.6197H199.118C197.107 16.94 195.095 11.2576 193.084 5.57256H184.333ZM188.526 9.61724H188.622C189.215 11.3943 189.804 13.1714 190.391 14.9485C189.191 14.9485 187.99 14.9485 186.79 14.9485C187.374 13.1714 187.955 11.3943 188.534 9.61724H188.526ZM59.5678 32.0559C61.0339 31.7234 62.5304 31.5442 64.0332 31.5212C65.309 31.4954 66.5834 31.6195 67.8305 31.8911C68.828 32.1141 69.7859 32.4882 70.6714 33.0008C71.5322 33.506 72.2865 34.1752 72.8922 34.9708C73.9161 36.4303 74.496 38.1572 74.5614 39.9416C74.6267 41.726 74.1747 43.4911 73.2603 45.0222C72.4358 46.3235 71.2624 47.3646 69.8752 48.0255C68.2177 48.7832 66.4142 49.1635 64.5934 49.1392C62.8962 49.1287 61.2074 48.9004 59.5678 48.4598V43.9407C60.6656 44.3635 61.82 44.6197 62.9929 44.7006C64.0813 44.8137 65.1788 44.604 66.1499 44.0975C66.9595 43.6327 67.5556 42.8677 67.8105 41.9666H61.9285C61.9285 40.8046 61.9285 39.6427 61.9285 38.4848H67.7905C67.6431 38.0173 67.4066 37.5831 67.0943 37.2062C66.7508 36.8028 66.3232 36.4802 65.8418 36.2614C65.2568 35.9985 64.6291 35.8445 63.9892 35.8071C63.3456 35.758 62.6984 35.7837 62.0606 35.8835C61.1993 36.0013 60.3563 36.2282 59.5518 36.5589V32.0559H59.5678ZM101.654 31.8348C103.221 31.523 104.824 31.439 106.415 31.5855C107.425 31.6841 108.428 31.8411 109.42 32.0559V36.5589C108.658 36.2644 107.862 36.0645 107.051 35.9639C106.368 35.8727 105.675 35.8822 104.995 35.992C103.998 36.1506 103.085 36.6489 102.41 37.4033C101.999 37.8876 101.705 38.4617 101.554 39.0798C101.417 39.6714 101.387 40.2829 101.466 40.8851C101.53 41.5057 101.721 42.1064 102.026 42.6501C102.3 43.1345 102.684 43.5476 103.146 43.8562C103.735 44.2289 104.4 44.4651 105.091 44.5478C105.743 44.6362 106.404 44.6362 107.055 44.5478C107.87 44.4156 108.673 44.2193 109.456 43.9608C109.456 45.4685 109.456 46.9802 109.456 48.4879C108.022 48.8939 106.544 49.1208 105.055 49.1634C103.542 49.215 102.031 49.0195 100.581 48.5844C99.4107 48.2331 98.3222 47.6493 97.3803 46.8676C96.466 46.0883 95.7453 45.1053 95.2756 43.997C94.7363 42.6758 94.5023 41.2488 94.5913 39.8236C94.6453 38.4565 95.0167 37.121 95.6757 35.9237C96.2684 34.87 97.0989 33.9708 98.1005 33.2983C99.1779 32.5936 100.38 32.1036 101.642 31.8549L101.654 31.8348ZM139.01 31.5534C140.538 31.4339 142.075 31.5766 143.555 31.9755C144.745 32.3019 145.85 32.885 146.793 33.6843C147.64 34.4242 148.309 35.3481 148.749 36.3861C149.275 37.6842 149.524 39.0783 149.481 40.479C149.486 41.8271 149.214 43.1616 148.681 44.399C148.23 45.4108 147.559 46.3079 146.717 47.0244C145.771 47.8113 144.666 48.382 143.479 48.697C142.168 49.0466 140.81 49.1917 139.454 49.1272C137.983 49.0952 136.533 48.7742 135.185 48.1824C134.048 47.6743 133.053 46.8927 132.288 45.9067C131.454 44.7918 130.913 43.4837 130.715 42.1033C130.51 40.7574 130.541 39.3856 130.807 38.0506C131.061 36.7604 131.626 35.5525 132.452 34.5326C133.225 33.6105 134.202 32.8823 135.305 32.4057C136.483 31.906 137.737 31.6136 139.014 31.5413L139.01 31.5534ZM139.53 35.6543C139.15 35.7262 138.798 35.9046 138.514 36.169C138.162 36.5165 137.903 36.9481 137.762 37.4234C137.55 38.1416 137.437 38.8856 137.425 39.6347C137.393 40.3803 137.414 41.1273 137.485 41.8701C137.537 42.6029 137.741 43.3167 138.086 43.9648C138.343 44.4189 138.755 44.7644 139.246 44.9378C139.755 45.0986 140.301 45.0986 140.811 44.9378C141.308 44.7677 141.724 44.4181 141.979 43.9568C142.32 43.3115 142.524 42.6025 142.579 41.8741C142.648 41.1203 142.667 40.3628 142.635 39.6065C142.625 38.8063 142.49 38.0126 142.235 37.2545C142.062 36.7392 141.735 36.2901 141.299 35.9679C140.77 35.6395 140.135 35.5273 139.526 35.6543H139.53ZM75.9092 31.8107H82.3993C82.3993 34.0407 82.3993 36.2721 82.3993 38.5049H82.4953C83.8291 36.2721 85.1629 34.0394 86.4967 31.8067H93.8911L88.1732 39.7955C90.2539 42.8136 92.3359 45.833 94.4193 48.8538H86.6647C85.2776 46.4414 83.8891 44.0291 82.4993 41.6168H82.3993V48.8538H75.9052V31.8067L75.9092 31.8107ZM111.413 48.8578C111.413 43.1781 111.413 37.4957 111.413 31.8107H128.643C128.643 37.4904 128.643 43.1727 128.643 48.8578C126.478 48.8578 124.313 48.8578 122.144 48.8578C122.144 44.7166 122.144 40.5768 122.144 36.4383H117.903V48.8578H111.413ZM150.938 48.8578C150.938 43.1781 150.938 37.4957 150.938 31.8107H159.161C160.037 31.8107 160.913 31.7866 161.79 31.8469C162.994 31.9124 164.171 32.2388 165.239 32.8038C166.093 33.2695 166.816 33.9461 167.339 34.7698C167.946 35.7562 168.25 36.8998 168.216 38.0586C168.19 39.1796 167.841 40.2691 167.211 41.1946C166.608 42.0716 165.778 42.7667 164.811 43.2049C163.666 43.7065 162.43 43.9625 161.181 43.9568H157.428C157.428 45.5971 157.428 47.2375 157.428 48.8779L150.938 48.8578ZM157.268 35.7589C157.268 37.1701 157.268 38.5732 157.268 39.9925H158.02C158.69 40.0271 159.362 39.9825 160.021 39.8598C160.533 39.7596 160.994 39.4839 161.325 39.0798C161.491 38.8286 161.603 38.5457 161.655 38.2489C161.706 37.9521 161.696 37.6478 161.625 37.355C161.572 37.107 161.466 36.8735 161.314 36.6708C161.162 36.4681 160.968 36.301 160.745 36.181C160.163 35.8933 159.521 35.7486 158.873 35.7589H157.268ZM168.924 31.8107H186.862V36.8605H181.14C181.14 40.8596 181.14 44.8614 181.14 48.8658C178.975 48.8658 176.81 48.8658 174.646 48.8658C174.646 44.8614 174.646 40.8596 174.646 36.8605H168.92L168.924 31.8107Z" fill="#283F6E"/>
<path fill-rule="evenodd" clip-rule="evenodd" d="M22.0713 19.0821C22.0713 19.1906 22.1673 19.0298 22.0713 19.0821V19.0821ZM35.1756 32.6434C35.2236 32.6434 35.2356 32.6434 35.2196 32.6956C35.2036 32.7479 35.1596 32.6956 35.1756 32.6434Z" fill="#EA6830"/>
</svg>
