<svg width="44" height="44" viewBox="0 0 44 44" fill="none" xmlns="http://www.w3.org/2000/svg">
<path id="Vector" d="M22.0078 2.35306e-07C13.205 -0.0012831 5.2493 5.24691 1.78456 13.3408L1.51035 13.4317L1.61666 13.7507C-2.94519 25.0043 2.47751 37.826 13.7287 42.3888C16.3565 43.4545 19.1657 44.0016 22.0013 44C34.149 44.0018 43.9982 34.1535 44 22.0033C44.0018 9.85307 34.1556 0.0017419 22.0078 2.35306e-07ZM39.2607 33.092L38.1313 31.9631V29.3333C38.1325 29.2199 38.1074 29.1076 38.0579 29.0055L35.1985 23.2936V20.5333C35.1985 20.4126 35.1688 20.2938 35.1119 20.1874C35.055 20.0809 34.9726 19.9902 34.8723 19.9232L32.6727 18.4565C32.5875 18.3996 32.4912 18.3612 32.3902 18.3437C32.2892 18.3263 32.1856 18.3303 32.0862 18.3553L29.3925 19.0285L24.868 17.0867L24.2455 12.7248L25.9707 11H29.674L30.9204 12.8737C30.9761 12.957 31.0483 13.0281 31.1326 13.0825C31.2168 13.1368 31.3113 13.1733 31.4102 13.1897L35.8093 13.9231C35.9271 13.9428 36.048 13.9333 36.1612 13.8952L40.2128 12.5444C43.611 19.0669 43.2475 26.9119 39.2607 33.092ZM36.2367 7.22627L35.0446 8.0212L31.7211 7.35607L29.5648 6.63813C29.4328 6.59327 29.2907 6.58766 29.1557 6.622L26.4297 7.30327L25.2346 6.90507L26.1203 5.13333H28.5999C28.7136 5.13345 28.8258 5.10709 28.9276 5.05633L31.4644 3.78767C33.2114 4.69971 34.8185 5.8577 36.2367 7.22627ZM13.9708 3.1042L15.7304 4.27753C15.8169 4.33509 15.9146 4.37358 16.0171 4.39047L19.5701 4.983L19.2233 6.02067L17.372 6.63887C17.2062 6.69405 17.0655 6.80666 16.9753 6.9564L14.8696 10.4661L11.4875 12.496L6.50184 13.2081C6.32706 13.2328 6.16706 13.3197 6.05123 13.453C5.9354 13.5862 5.87151 13.7568 5.87131 13.9333V16.1333C5.87135 16.3278 5.94862 16.5143 6.08613 16.6518L7.33767 17.9036V19.1635L4.28764 17.1292L3.18127 13.8094C5.2862 8.99874 9.1443 5.17077 13.9708 3.1042ZM11.8834 27.148L8.56941 26.4843L7.33767 24.0269V22.3036L10.0695 19.5712L11.0806 21.5945C11.1415 21.7164 11.2351 21.8189 11.351 21.8905C11.4669 21.9621 11.6005 22.0001 11.7368 22H16.454L18.4402 25.311C18.5054 25.4195 18.5975 25.5092 18.7076 25.5716C18.8177 25.6339 18.942 25.6666 19.0686 25.6667H21.1068L20.5936 28.2385L17.8178 31.0149C17.7495 31.0829 17.6954 31.1637 17.6584 31.2527C17.6214 31.3416 17.6023 31.437 17.6022 31.5333V33.3667L14.9627 35.3467C14.8717 35.415 14.7978 35.5036 14.7469 35.6054C14.696 35.7072 14.6695 35.8195 14.6695 35.9333V38.5821L13.7574 38.28L12.4699 35.0592V27.8667C12.47 27.6976 12.4116 27.5337 12.3047 27.4028C12.1978 27.2718 12.049 27.1818 11.8834 27.148ZM9.67945 38.4213C2.76656 33.2339 -0.156902 24.2711 2.36744 16.0043L2.97671 17.8317C3.02803 17.9864 3.12942 18.1195 3.26485 18.2101L6.91976 20.647L6.08613 21.4815C5.94862 21.619 5.87135 21.8055 5.87131 22V24.2C5.87119 24.3138 5.89755 24.426 5.94829 24.5278L7.41465 27.4611C7.46476 27.5611 7.53705 27.6483 7.626 27.716C7.71495 27.7838 7.81821 27.8303 7.92788 27.852L11.0072 28.4673V35.2C11.0072 35.2932 11.0248 35.3855 11.0593 35.4721L12.5257 39.1387C12.5653 39.2377 12.6261 39.3268 12.7037 39.3999C12.7813 39.473 12.8739 39.5283 12.9751 39.5619L15.1746 40.2952C15.2481 40.3201 15.3251 40.333 15.4027 40.3333C15.5971 40.3333 15.7836 40.2561 15.9211 40.1185C16.0586 39.981 16.1358 39.7945 16.1358 39.6V36.3L18.7753 34.32C18.8663 34.2517 18.9402 34.1631 18.9911 34.0613C19.042 33.9595 19.0685 33.8472 19.0686 33.7333V31.8369L21.7865 29.1185C21.8887 29.016 21.9583 28.8857 21.9866 28.7437L22.7198 25.0771C22.7411 24.9707 22.7385 24.861 22.7122 24.7558C22.6859 24.6505 22.6367 24.5524 22.568 24.4685C22.4992 24.3847 22.4128 24.3171 22.3148 24.2706C22.2168 24.2242 22.1097 24.2001 22.0013 24.2H19.4835L17.4974 20.889C17.4322 20.7805 17.3401 20.6908 17.23 20.6284C17.1199 20.5661 16.9955 20.5334 16.869 20.5333H12.1899L10.9303 18.0055C10.8783 17.9015 10.8023 17.8114 10.7086 17.7425C10.6149 17.6736 10.5062 17.6281 10.3914 17.6095C10.2767 17.5897 10.159 17.5981 10.0482 17.6338C9.9375 17.6696 9.83711 17.7317 9.7557 17.8149L8.80403 18.7631V17.6C8.80399 17.4055 8.72672 17.219 8.58921 17.0815L7.33767 15.8297V14.5691L11.8409 13.926C11.9376 13.912 12.0306 13.8788 12.1143 13.8285L15.7802 11.6285C15.8831 11.5667 15.9692 11.4805 16.031 11.3777L18.0912 7.94347L20.0334 7.2952C20.1416 7.25972 20.2399 7.19927 20.3204 7.11876C20.4009 7.03825 20.4613 6.93992 20.4968 6.83173L21.23 4.63173C21.2632 4.53133 21.2742 4.42493 21.2624 4.31984C21.2506 4.21475 21.2163 4.11346 21.1617 4.0229C21.1071 3.93235 21.0335 3.85468 20.9461 3.79521C20.8587 3.73575 20.7594 3.6959 20.6552 3.6784L16.4115 2.97073L15.6659 2.47353C20.2797 0.97152 25.2768 1.15734 29.7664 2.99787L28.4269 3.66667H25.6672C25.5303 3.66592 25.396 3.70351 25.2794 3.77518C25.1627 3.84685 25.0685 3.94974 25.0073 4.0722L23.541 7.00553C23.4941 7.09952 23.468 7.20247 23.4644 7.30742C23.4607 7.41237 23.4797 7.51688 23.5199 7.61388C23.5602 7.71087 23.6208 7.79809 23.6977 7.86963C23.7745 7.94116 23.8659 7.99536 23.9655 8.02853L26.165 8.76187C26.297 8.80669 26.439 8.81238 26.5741 8.778L29.3001 8.09673L31.2973 8.76187C31.3259 8.77213 31.3553 8.78002 31.3853 8.78533L35.0512 9.51867C35.1456 9.53792 35.2428 9.53824 35.3373 9.51961C35.4319 9.50098 35.5217 9.46377 35.6018 9.41013L37.2705 8.29693C38.0917 9.21185 38.8298 10.1982 39.4759 11.2442L35.8687 12.4469L31.963 11.7957L30.6726 9.85967C30.606 9.75978 30.5158 9.67778 30.4101 9.62088C30.3044 9.56398 30.1863 9.53392 30.0663 9.53333H25.6672C25.4727 9.53337 25.2863 9.61066 25.1488 9.7482L22.9493 11.9482C22.8687 12.0287 22.808 12.1269 22.772 12.235C22.736 12.3431 22.7257 12.458 22.7418 12.5708L23.475 17.7041C23.4931 17.8289 23.5431 17.9469 23.6202 18.0467C23.6973 18.1466 23.7988 18.2248 23.9149 18.2739L29.0471 20.4739C29.1942 20.5376 29.3582 20.5508 29.5134 20.5113L32.1316 19.8565L33.7322 20.9257V23.4667C33.7309 23.5801 33.756 23.6924 33.8055 23.7945L36.6649 29.5064V32.2667C36.6649 32.4611 36.7422 32.6476 36.8797 32.7851L38.4135 34.32C31.6112 43.3889 18.7464 45.2251 9.67945 38.4213Z" fill="#BAA264"/>
</svg>
