<svg width="203" height="225" viewBox="0 0 203 225" fill="none" xmlns="http://www.w3.org/2000/svg">
<g id="Group">
<path id="Vector" d="M104.375 194.386C104.132 194.805 103.81 195.173 103.425 195.468C103.041 195.763 102.602 195.98 102.134 196.105C101.666 196.23 101.178 196.262 100.697 196.199C100.217 196.135 99.7536 195.978 99.3341 195.735L57.7079 171.693C56.874 171.197 56.2691 170.392 56.0241 169.453C55.7792 168.514 55.914 167.517 56.3993 166.676C56.8845 165.836 57.6813 165.221 58.617 164.963C59.5527 164.706 60.552 164.828 61.3985 165.302L103.025 189.345C103.872 189.834 104.49 190.64 104.743 191.585C104.997 192.531 104.864 193.538 104.375 194.386ZM202.96 92.7239V209.549C202.96 217.704 196.326 224.338 188.171 224.338H115.874C112.962 224.338 110.115 223.476 107.691 221.862C104.785 222.054 101.888 221.379 99.3659 219.924L36.7512 183.759C33.3406 181.798 30.8943 178.611 29.8677 174.79C28.8411 170.968 29.3622 166.982 31.3357 163.566L59.4896 114.807H57.422C53.8818 114.807 50.6833 113.48 48.1716 110.968L46.5242 109.321C45.3794 108.176 44.0941 107.643 42.4789 107.643H37.8369C36.3246 111.751 32.3716 114.69 27.7448 114.69H10.7364C4.81638 114.69 0 109.867 0 103.94V49.0573C0 43.1299 4.81638 38.308 10.7364 38.308H27.7448C32.3716 38.308 36.3246 41.2463 37.8369 45.3548H38.9622C40.2116 45.3548 41.9259 45.001 44.1102 42.2435C51.7376 32.5637 56.9391 24.9704 59.5966 8.33976C60.5268 2.81544 65.0992 -0.476652 70.7195 0.302786C78.5526 1.38847 86.0509 10.1237 84.5178 24.1734C84.514 24.2082 84.5097 24.243 84.5049 24.2777L82.5868 38.1775H106.762C113.799 38.1775 119.524 43.9029 119.524 50.94C119.524 53.2193 118.922 55.3597 117.871 57.2138L141.881 54.0282L146.165 46.5332C149.156 41.2915 154.032 37.523 159.893 35.9245C165.751 34.3264 171.865 35.0943 177.109 38.0871C187.97 44.3 191.758 58.1818 185.557 69.034L182.184 74.9356L201.519 89.798C201.967 90.1425 202.33 90.5856 202.58 91.0928C202.83 91.6 202.96 92.1584 202.96 92.7239ZM151.079 52.8083L151.538 52.7474C152.019 52.6837 152.508 52.7158 152.977 52.8418C153.446 52.9678 153.885 53.1853 154.27 53.4817L154.271 53.4798L176.279 70.3969L179.15 65.3734C183.333 58.0522 180.776 48.6865 173.449 44.4951C169.918 42.4805 165.792 41.9649 161.834 43.0441C157.877 44.1238 154.588 46.6628 152.573 50.1933L151.078 52.8079L151.079 52.8083ZM31.1153 49.0578C31.1153 47.1996 29.6034 45.6878 27.7452 45.6878H10.7369C8.91742 45.6878 7.37976 47.231 7.37976 49.0578V103.941C7.37976 105.768 8.91696 107.311 10.7369 107.311H27.7452C29.6034 107.311 31.1153 105.799 31.1153 103.941V49.0578ZM57.4225 107.428H99.7155C101.704 107.428 103.321 105.811 103.321 103.823C103.321 101.835 101.703 100.218 99.7155 100.218H91.7016C90.723 100.218 89.7846 99.8293 89.0926 99.1373C88.4007 98.4454 88.0119 97.5069 88.0119 96.5283C88.0119 95.5498 88.4007 94.6113 89.0926 93.9194C89.7846 93.2274 90.723 92.8387 91.7016 92.8387H103.834C106.665 92.8387 108.969 90.535 108.969 87.7036C108.969 84.8723 106.665 82.5686 103.834 82.5686H95.8202C94.8416 82.5686 93.9031 82.1798 93.2112 81.4879C92.5192 80.7959 92.1305 79.8575 92.1305 78.8789C92.1305 77.9004 92.5192 76.9619 93.2112 76.2699C93.9031 75.578 94.8416 75.1893 95.8202 75.1893H106.409C109.572 75.1893 112.146 72.6102 112.146 69.4399C112.146 66.2695 109.572 63.7034 106.409 63.7034H98.3955C97.417 63.7034 96.4785 63.3147 95.7866 62.6227C95.0946 61.9308 94.7059 60.9923 94.7059 60.0137C94.7059 59.0352 95.0946 58.0967 95.7866 57.4048C96.4785 56.7128 97.417 56.3241 98.3955 56.3241H106.763C109.731 56.3241 112.146 53.9092 112.146 50.9409C112.146 47.9726 109.731 45.5577 106.763 45.5577H70.7319C69.7534 45.5577 68.8149 45.169 68.123 44.477C67.431 43.7851 67.0423 42.8466 67.0423 41.868C67.0423 40.8895 67.431 39.951 68.123 39.2591C68.8149 38.5671 69.7534 38.1784 70.7319 38.1784H75.1383L77.1884 23.3239C78.3192 12.7918 73.2035 8.09809 69.7067 7.61336C67.2614 7.27391 66.9736 8.97623 66.879 9.53567C63.9518 27.8571 57.9957 36.5462 49.9011 46.8186C46.7898 50.7472 43.1117 52.735 38.9627 52.735H38.495V100.265H42.4798C46.0284 100.265 49.2314 101.592 51.7432 104.104L53.3906 105.752C54.5353 106.896 55.8165 107.429 57.4229 107.429L57.4225 107.428ZM103.051 213.532C106.59 215.567 111.134 214.349 113.177 210.815L170.68 111.214L149.696 60.4357L146.474 60.8633L139.328 73.3624C139.096 73.7715 138.883 74.1912 138.691 74.6201C143.698 76.3501 147.306 81.1084 147.306 86.6968C147.306 93.7413 141.575 99.4727 134.53 99.4727C127.486 99.4727 121.754 93.7417 121.754 86.6968C121.754 80.9119 125.62 76.0157 130.903 74.4486C131.391 72.794 132.068 71.2013 132.921 69.7018L137.276 62.0836L118.581 64.564C119.205 66.1138 119.525 67.7689 119.525 69.4394C119.525 73.9071 117.284 77.8606 113.868 80.233C115.481 82.3893 116.351 85.0104 116.348 87.7032C116.348 92.5611 113.566 96.7811 109.511 98.8542C110.295 100.393 110.702 102.096 110.701 103.823C110.701 109.88 105.773 114.807 99.716 114.807H68.0117L37.7262 167.258C36.7397 168.965 36.48 170.96 36.9952 172.876C37.5094 174.791 38.7316 176.385 40.4367 177.366L103.051 213.532ZM129.134 86.6968C129.134 89.6725 131.555 92.0934 134.531 92.0934C137.506 92.0934 139.927 89.6725 139.927 86.6968C139.927 84.7694 138.908 83.0796 137.384 82.1249C137.473 83.3004 137.696 84.4619 138.049 85.5867C138.224 86.1396 138.266 86.7258 138.171 87.2979C138.077 87.87 137.849 88.4118 137.506 88.8794C137.164 89.347 136.715 89.7272 136.198 89.9893C135.681 90.2514 135.109 90.3879 134.53 90.3878C133.745 90.3874 132.981 90.137 132.349 89.673C131.716 89.209 131.248 88.5555 131.012 87.8074C130.582 86.4365 130.282 85.028 130.118 83.6007C129.478 84.5062 129.134 85.5879 129.134 86.6968ZM131.374 194.054H164.43C167.571 194.054 170.127 191.498 170.127 188.357V153.202C170.127 150.061 167.571 147.505 164.43 147.505H158.249L131.374 194.054V194.054ZM195.581 94.5415L160.692 67.7228L178.194 110.075C178.41 110.598 178.503 111.163 178.466 111.727C178.429 112.291 178.263 112.839 177.98 113.329L162.509 140.126H164.43C171.641 140.126 177.507 145.992 177.507 153.202V188.357C177.507 195.568 171.641 201.434 164.43 201.434H127.114L119.567 214.506C119.061 215.382 118.466 216.205 117.792 216.959H188.172C192.257 216.959 195.581 213.635 195.581 209.55V94.5415ZM89.2014 155.41L87.7887 157.854C87.5462 158.273 87.3887 158.736 87.3252 159.217C87.2617 159.697 87.2934 160.185 87.4185 160.653C87.5437 161.121 87.7598 161.56 88.0545 161.945C88.3493 162.329 88.7169 162.652 89.1364 162.895C89.9835 163.384 90.9906 163.517 91.936 163.265C92.8813 163.012 93.6876 162.394 94.1773 161.547L95.5942 159.096C97.0853 159.547 98.6022 159.775 100.093 159.775C104.907 159.775 109.436 157.486 111.854 153.308C117.116 144.192 110.653 138.395 106.377 134.559C101.357 130.056 100.362 128.459 102.361 124.995C104.073 122.038 108.376 121.311 111.949 123.372L111.95 123.373C114.472 124.833 116.078 127.402 116.043 129.919C116.029 130.897 116.405 131.841 117.087 132.542C117.769 133.244 118.702 133.646 119.681 133.66C121.709 133.69 123.393 132.059 123.422 130.022C123.478 125.975 121.695 122.069 118.625 119.2L120.037 116.757C120.521 115.91 120.651 114.906 120.397 113.964C120.143 113.022 119.526 112.219 118.681 111.731C117.837 111.243 116.833 111.109 115.89 111.358C114.947 111.608 114.141 112.221 113.649 113.063L112.236 115.507C105.928 113.599 99.1404 115.829 95.9724 121.302C90.7114 130.418 97.1733 136.215 101.45 140.051C106.469 144.554 107.466 146.15 105.466 149.615C103.753 152.572 99.4508 153.299 95.8778 151.238C93.3555 149.777 91.7482 147.208 91.7837 144.69C91.7974 143.712 91.4218 142.768 90.7396 142.066C90.0575 141.365 89.1246 140.963 88.1462 140.949H88.0936C87.1241 140.95 86.1938 141.331 85.5036 142.012C84.8134 142.693 84.4189 143.618 84.4053 144.587C84.3486 148.635 86.1316 152.541 89.2023 155.409L89.2014 155.41Z" fill="#D3BC80"/>
</g>
</svg>
