<svg width="214" height="219" viewBox="0 0 214 219" fill="none" xmlns="http://www.w3.org/2000/svg">
<g id="Group">
<path id="Vector" d="M60.0453 26.769L72.0801 36.4419L68.0297 51.3412C67.5037 53.275 68.2114 55.2861 69.8329 56.4642C70.6481 57.0608 71.6316 57.3833 72.6418 57.385C73.5489 57.385 74.4583 57.1229 75.2622 56.5961L88.1808 48.1396L101.099 56.5961C102.776 57.6939 104.908 57.6418 106.529 56.4638C108.151 55.2857 108.858 53.2746 108.333 51.3407L104.282 36.4415L116.317 26.7686C117.879 25.5128 118.488 23.47 117.869 21.5639C117.25 19.6578 115.556 18.3628 113.554 18.2653L98.1321 17.5135L92.6512 3.0793C91.9413 1.20851 90.187 0 88.1816 0C86.1763 0 84.4211 1.20895 83.7107 3.07974L78.2303 17.5144L62.8082 18.2662C60.8064 18.3637 59.113 19.6583 58.4935 21.5648C57.874 23.4704 58.4829 25.5133 60.0453 26.769ZM80.0614 24.4927C80.9911 24.4479 81.8874 24.1326 82.6404 23.5856C83.3935 23.0386 83.9705 22.2837 84.3007 21.4134L88.1808 11.1934L92.0604 21.4126C92.3903 22.2827 92.9671 23.0377 93.7199 23.5847C94.4727 24.1318 95.3689 24.4472 96.2984 24.4923L107.218 25.0244L98.6978 31.8735C97.9724 32.4564 97.4328 33.2382 97.1451 34.1232C96.8575 35.0082 96.8343 35.9578 97.0785 36.8558L99.9464 47.405L90.8003 41.4181C90.0221 40.9079 89.1118 40.6361 88.1812 40.6361C87.2506 40.6361 86.3403 40.9079 85.5621 41.4181L76.4156 47.4054L79.2835 36.8567C79.5278 35.9589 79.5048 35.0093 79.2173 34.1244C78.9299 33.2395 78.3904 32.4577 77.6651 31.8748L69.1442 25.0262L80.0614 24.4927ZM29.9265 70.5454L42.8447 79.0019C44.5217 80.0996 46.6529 80.0485 48.2743 78.8699C49.8958 77.6919 50.604 75.6812 50.0781 73.7469L46.0272 58.8472L58.062 49.1743C59.6239 47.9186 60.2328 45.8757 59.6138 43.9696C58.9943 42.0636 57.3004 40.769 55.2991 40.6715L39.877 39.9197L34.397 25.4846C33.6871 23.6143 31.9328 22.4053 29.9274 22.4053C27.9221 22.4053 26.1669 23.6143 25.4565 25.485L19.9756 39.9201L4.55356 40.6719C2.55173 40.7695 0.858315 42.064 0.238838 43.9705C-0.38064 45.8771 0.22869 47.9199 1.79106 49.1752L13.8254 58.8481L9.77499 73.7473C9.24905 75.6812 9.95678 77.6919 11.5783 78.8704C12.3934 79.4671 13.3769 79.7896 14.3871 79.7912C15.2943 79.7912 16.2036 79.5291 17.0075 79.0023L29.9265 70.5454ZM10.8895 47.4306L21.8089 46.898C22.7382 46.853 23.6342 46.5377 24.3869 45.9907C25.1397 45.4438 25.7164 44.6891 26.0464 43.8192L29.9265 33.5991L33.8071 43.8196C34.1373 44.6894 34.7141 45.444 35.4667 45.9908C36.2194 46.5376 37.1153 46.8529 38.0446 46.898L48.964 47.4306L40.4435 54.2788C38.961 55.4701 38.3257 57.4256 38.8247 59.2607L41.6926 69.8094L32.5456 63.8216C31.7674 63.3118 30.8573 63.0403 29.9269 63.0404C28.9966 63.0405 28.0865 63.3121 27.3083 63.822L18.1618 69.8094L21.0297 59.2607C21.274 58.3629 21.251 57.4133 20.9635 56.5284C20.6761 55.6434 20.1366 54.8616 19.4113 54.2788L10.8895 47.4306ZM116.748 43.9696C116.128 45.8757 116.738 47.919 118.3 49.1748L130.334 58.8477L126.284 73.7469C125.758 75.6808 126.466 77.6914 128.087 78.8699C128.902 79.4667 129.886 79.7891 130.896 79.7908C131.803 79.7908 132.713 79.5287 133.517 79.0019L146.435 70.545L159.353 79.0014C161.03 80.0992 163.161 80.0476 164.782 78.8699C166.404 77.6923 167.112 75.6812 166.587 73.7465L162.536 58.8472L174.571 49.1743C176.133 47.9186 176.742 45.8757 176.123 43.9696C175.503 42.0636 173.81 40.769 171.808 40.6715L156.386 39.9197L150.906 25.4855C150.196 23.6143 148.441 22.4053 146.435 22.4053C144.43 22.4053 142.675 23.6143 141.965 25.4846L136.484 39.9197L121.062 40.6715C119.061 40.769 117.367 42.0636 116.748 43.9696ZM138.317 46.8985C139.247 46.8535 140.143 46.5382 140.896 45.9913C141.648 45.4444 142.225 44.6896 142.555 43.8196L146.435 33.5991L150.315 43.8183C150.645 44.6885 151.222 45.4434 151.975 45.9905C152.727 46.5376 153.624 46.853 154.553 46.898L165.472 47.4306L156.951 54.2793C156.226 54.862 155.686 55.6438 155.399 56.5286C155.112 57.4134 155.089 58.3629 155.333 59.2607L158.201 69.8094L149.054 63.8216C148.275 63.312 147.365 63.0407 146.435 63.0408C145.504 63.0408 144.594 63.3124 143.816 63.822L134.67 69.8094L137.538 59.2607C137.782 58.3629 137.759 57.4133 137.471 56.5284C137.184 55.6435 136.645 54.8617 135.919 54.2788L127.398 47.4302L138.317 46.8985ZM171.117 134.861C157.905 134.861 146.101 140.996 138.397 150.565C129.45 141.844 118.409 135.643 106.463 132.491C118.268 126.009 126.289 113.458 126.289 99.066C126.289 78.0537 109.194 60.9589 88.1812 60.9589C67.1688 60.9589 50.0737 78.0537 50.0737 99.066C50.0737 113.447 58.0832 125.99 69.874 132.476C58.7487 135.399 48.4896 140.955 39.9617 148.675C26.823 160.556 18.5536 176.759 16.677 194.298C16.6242 194.79 16.6756 195.288 16.8279 195.76C16.9802 196.231 17.23 196.665 17.5611 197.033C17.8921 197.401 18.2969 197.696 18.7493 197.898C19.2016 198.099 19.6913 198.203 20.1865 198.203L134.97 198.203C142.29 210.549 155.751 218.846 171.116 218.846C194.271 218.846 213.109 200.008 213.109 176.853C213.109 153.698 194.272 134.861 171.117 134.861ZM57.1337 99.066C57.1337 81.9462 71.0618 68.0185 88.1816 68.0185C105.302 68.0185 119.23 81.9462 119.23 99.066C119.23 116.184 105.305 130.111 88.1874 130.114H88.1759C71.0587 130.111 57.1337 116.184 57.1337 99.066ZM24.233 191.144C29.4456 160.113 56.2711 137.176 88.1759 137.174H88.187C105.542 137.175 122.23 144.201 134.382 156.529C131.035 162.555 129.124 169.485 129.124 176.854C129.12 181.727 129.967 186.563 131.629 191.144H24.233ZM171.117 211.787C151.855 211.787 136.184 196.116 136.184 176.854C136.184 157.592 151.855 141.921 171.117 141.921C190.379 141.921 206.05 157.592 206.05 176.854C206.05 196.116 190.379 211.787 171.117 211.787ZM195.312 158.83C193.561 157.09 191.228 156.14 188.769 156.145C187.557 156.146 186.358 156.388 185.24 156.856C184.123 157.325 183.11 158.011 182.259 158.874L166.053 175.242L159.967 169.156C156.366 165.556 150.508 165.556 146.907 169.157C143.307 172.757 143.307 178.615 146.907 182.217L159.547 194.857C161.347 196.657 163.712 197.557 166.077 197.557C168.441 197.557 170.806 196.657 172.607 194.856C177.404 190.059 182.243 185.151 186.923 180.404C189.73 177.556 192.539 174.708 195.354 171.867C198.931 168.257 198.911 162.409 195.312 158.83ZM190.339 166.897C187.52 169.743 184.708 172.595 181.896 175.448C177.225 180.185 172.395 185.085 167.615 189.864C167.207 190.272 166.654 190.5 166.077 190.5C165.5 190.5 164.947 190.272 164.539 189.864L151.899 177.225C151.491 176.816 151.263 176.263 151.263 175.686C151.263 175.11 151.491 174.556 151.899 174.148C152.323 173.724 152.88 173.512 153.437 173.512C153.994 173.512 154.551 173.724 154.975 174.148L163.569 182.743C163.897 183.07 164.286 183.33 164.714 183.508C165.142 183.685 165.601 183.776 166.065 183.776H166.074C166.539 183.775 166.999 183.682 167.428 183.503C167.857 183.323 168.246 183.061 168.573 182.73L187.275 163.841C187.474 163.64 187.711 163.48 187.972 163.37C188.233 163.261 188.513 163.205 188.796 163.205C189.38 163.183 189.922 163.426 190.333 163.835C191.178 164.675 191.181 166.049 190.339 166.897Z" fill="#D3BC80"/>
</g>
</svg>
