<svg width="224" height="64" viewBox="0 0 224 64" fill="none" xmlns="http://www.w3.org/2000/svg">
<path fill-rule="evenodd" clip-rule="evenodd" d="M23.8279 0.96458C26.1107 0.455121 28.4432 0.195297 30.7835 0.189797C31.2838 0.153936 31.786 0.223949 32.2568 0.395162C32.3061 0.421884 32.3492 0.458572 32.3833 0.50283C32.4174 0.547087 32.4417 0.597926 32.4546 0.65206C32.4675 0.706195 32.4688 0.762415 32.4583 0.817059C32.4478 0.871703 32.4258 0.923554 32.3937 0.969252C31.6665 1.90272 30.5804 2.48147 29.5841 3.1069C24.7393 5.90731 19.5733 8.08697 14.568 10.5747C11.1681 12.3436 7.81542 14.2806 4.92552 16.8056C3.18034 18.2657 1.73724 20.0455 0.675676 22.047C2.35002 16.8466 5.36669 12.1672 9.42826 8.4702C13.4898 4.77323 18.4561 2.18634 23.8373 0.96458H23.8279ZM46.2529 4.09172C47.2871 4.81516 48.4062 5.61328 48.8312 6.85013C49.1853 7.7836 48.7934 8.84309 48.2126 9.62254C47.1832 10.9901 45.7193 11.9562 44.2933 12.8897C40.0906 15.4194 35.515 17.249 31.0101 19.1766C26.4061 21.1182 21.7596 22.9665 17.2123 25.0341C12.9247 27.0038 8.5615 28.9594 4.64692 31.6338C3.45139 32.4333 2.37256 33.3913 1.44065 34.4809C0.730315 35.3038 0.251529 36.297 0.0523649 37.3606C-0.117629 38.3921 0.160971 39.4189 0.392351 40.4178C1.45548 44.3184 3.32722 47.9582 5.88882 51.106C8.62822 54.523 12.0525 57.3435 15.9468 59.3906C14.856 58.6625 13.6802 57.8504 13.1986 56.5902C13.0544 56.1071 13.0328 55.5963 13.1357 55.103C13.2387 54.6097 13.463 54.149 13.7888 53.7617C14.8182 52.3849 16.2868 51.4281 17.7176 50.4946C21.9674 47.9322 26.6186 46.0793 31.1849 44.133C36.5822 41.8647 42.0456 39.6896 47.3201 37.1926C50.7908 35.559 54.2663 33.8788 57.4159 31.6898C58.5055 30.9592 59.4986 30.0968 60.3719 29.1228C61.1892 28.2435 61.7406 27.1552 61.9632 25.9816C62.1285 24.9361 61.8404 23.8953 61.6043 22.8872C60.6457 19.3875 59.0294 16.0973 56.8398 13.1884C54.0411 9.41392 50.4239 6.30585 46.2529 4.09172ZM70.8076 17.9258C72.8947 17.9258 74.9819 17.9258 77.069 17.9258C78.7265 17.9491 80.417 17.9584 82.013 18.4485C82.9068 18.7408 83.7286 19.2149 84.4256 19.8403C85.1227 20.4658 85.6793 21.2286 86.0598 22.0797C86.8684 23.9253 87.0538 25.9793 86.5887 27.9372C86.3539 29.4164 85.6123 30.771 84.488 31.7744C83.3637 32.7778 81.9249 33.3691 80.4123 33.4494C78.7729 33.5872 77.1273 33.6386 75.4824 33.6034V43.2088H70.817V17.9258H70.8076ZM75.4588 22.4158V29.1134C76.9557 29.1134 78.4809 29.1741 79.94 28.7867C80.6338 28.609 81.2361 28.1833 81.6305 27.5919C81.8998 27.1352 82.0662 26.6266 82.1183 26.1006C82.1705 25.5746 82.1072 25.0437 81.9328 24.5441C81.7838 24.0743 81.5133 23.651 81.1481 23.3162C80.7828 22.9814 80.3355 22.7467 79.8503 22.6351C78.4101 22.3364 76.9227 22.4391 75.4588 22.4158ZM128.445 17.9258H143.607V22.4158C140.104 22.4158 136.6 22.4158 133.101 22.4158C133.101 29.3421 133.101 36.27 133.101 43.1995H128.44C128.44 34.7703 128.44 26.3426 128.44 17.9164L128.445 17.9258ZM112.102 24.7775C113.397 24.1757 114.805 23.8482 116.235 23.816C117.665 23.7839 119.087 24.0477 120.408 24.5907C121.974 25.2383 123.348 26.2676 124.403 27.5825C125.078 28.4911 125.589 29.508 125.914 30.5883H120.833C120.323 29.547 119.437 28.7326 118.349 28.306C117.514 28.0091 116.619 27.9165 115.74 28.0359C114.861 28.1554 114.024 28.4835 113.301 28.9921C111.058 30.649 110.553 33.9301 111.677 36.3712C112.009 37.106 112.508 37.7552 113.136 38.2684C113.763 38.7816 114.502 39.145 115.294 39.3303C116.552 39.6524 117.887 39.4854 119.024 38.8635C119.759 38.3809 120.377 37.7433 120.833 36.9966H125.923C125.238 38.9701 123.966 40.693 122.273 41.9393C120.309 43.2832 117.917 43.8738 115.544 43.6009C113.391 43.3849 111.367 42.4842 109.775 41.0342C108.184 39.5841 107.111 37.6629 106.719 35.559C106.274 33.1536 106.714 30.6703 107.961 28.558C108.938 26.9237 110.382 25.6115 112.111 24.7868L112.102 24.7775ZM186.696 26.467C188.042 24.9365 189.948 23.9964 191.994 23.8533C194.39 23.6141 196.787 24.3017 198.681 25.7716C200.48 27.2468 201.675 29.3189 202.043 31.6011C202.558 34.3151 202.044 37.1215 200.598 39.4843C199.409 41.355 197.557 42.7198 195.404 43.3115C193.407 43.8768 191.276 43.76 189.355 42.9801C188.509 42.5917 187.732 42.0735 187.05 41.4446C187.05 44.1423 187.05 46.84 187.05 49.5331H182.531V24.2594H186.696V26.467ZM191.21 28.0959C190.44 28.2447 189.711 28.5599 189.078 29.019C188.445 29.4781 187.922 30.0697 187.546 30.7517C186.916 31.8966 186.668 33.209 186.838 34.5015C187.008 35.794 187.586 37.0005 188.491 37.9487C189.152 38.5834 189.965 39.0424 190.854 39.2831C191.744 39.5238 192.68 39.5384 193.576 39.3256C194.394 39.1126 195.149 38.7115 195.78 38.1551C196.411 37.5987 196.9 36.9026 197.208 36.1238C198.152 33.7901 197.614 30.8357 195.626 29.1881C195.018 28.6896 194.305 28.3325 193.539 28.1435C192.773 27.9544 191.974 27.9381 191.201 28.0959H191.21ZM212.195 23.97C214.718 23.523 217.319 24.0384 219.472 25.4122C221.313 26.6048 222.699 28.3705 223.41 30.4296C224.231 32.6729 224.2 35.1346 223.321 37.3566C222.443 39.5786 220.778 41.4096 218.636 42.5087C216.574 43.5928 214.191 43.9228 211.907 43.4403C209.623 42.9579 207.585 41.6941 206.151 39.8717C205.087 38.5283 204.391 36.937 204.129 35.2508C203.867 33.5646 204.048 31.8401 204.655 30.2431C205.262 28.6461 206.275 27.2302 207.595 26.1316C208.915 25.0331 210.5 24.2887 212.195 23.97ZM212.715 28.1706C211.583 28.4736 210.58 29.1281 209.853 30.0376C209.064 31.0463 208.617 32.275 208.574 33.5494C208.532 34.8237 208.897 36.0788 209.617 37.1366C210.096 37.8638 210.751 38.4603 211.524 38.8712C212.297 39.2822 213.162 39.4944 214.04 39.4884C214.917 39.4824 215.779 39.2582 216.546 38.8367C217.313 38.4151 217.96 37.8096 218.428 37.0759C219.11 36.0437 219.458 34.8307 219.425 33.5984C219.392 32.366 218.98 31.1728 218.244 30.1776C217.63 29.3365 216.775 28.6958 215.79 28.3374C214.805 27.9791 213.734 27.9194 212.715 28.1659V28.1706ZM88.1659 24.2827C90.3412 30.0018 92.5212 35.7224 94.7059 41.4446C93.5348 44.1485 92.359 46.8509 91.1785 49.5518H96.0328C99.653 41.1319 103.273 32.7073 106.894 24.278H102.275C100.569 28.3635 98.866 32.449 97.1661 36.5345C95.6928 32.4739 94.2715 28.39 92.8029 24.3294L92.751 24.2874C91.2257 24.264 89.6958 24.2874 88.1706 24.2874L88.1659 24.2827ZM141.128 24.2827V43.2368H146.157C148.547 39.1016 150.939 34.971 153.335 30.845C153.335 34.9741 153.335 39.1047 153.335 43.2368H157.854C157.854 36.9172 157.854 30.5992 157.854 24.2827H152.834C150.44 28.404 148.065 32.5393 145.662 36.6559C145.662 32.5299 145.662 28.404 145.662 24.2827H141.128ZM168.516 24.3107C169.725 24.2594 170.939 24.3107 172.148 24.3107L177.913 38.7795H180.491V47.3675C178.98 47.3675 177.469 47.3675 175.958 47.3675C175.987 46.0046 175.958 44.6417 175.958 43.2789H164.776C164.776 44.6464 164.776 46.0139 164.776 47.3861C163.256 47.3861 161.74 47.3861 160.22 47.3861C160.22 44.525 160.22 41.6639 160.22 38.8029H162.798C164.71 33.9908 166.651 29.1881 168.535 24.362L168.516 24.3107ZM167.539 38.7515H173.116C172.199 36.0678 171.269 33.3841 170.348 30.705C169.404 33.3841 168.467 36.0662 167.539 38.7515ZM56.8398 46.8447C58.6666 45.3604 60.1797 43.535 61.2927 41.4726C59.9879 45.4465 57.8966 49.1242 55.1403 52.2917C52.384 55.4592 49.0178 58.0532 45.2377 59.9227C40.8718 62.0752 36.059 63.1938 31.1801 63.1898C30.6832 63.2283 30.1839 63.1532 29.721 62.9704C29.6747 62.9406 29.635 62.9016 29.6047 62.8559C29.5743 62.8101 29.5538 62.7587 29.5445 62.7048C29.5352 62.6509 29.5372 62.5957 29.5506 62.5426C29.5639 62.4895 29.5881 62.4397 29.6219 62.3963C30.3491 61.4629 31.4351 60.8888 32.4268 60.2727C37.3283 57.4443 42.5556 55.2226 47.6318 52.7256C50.9177 51.1184 54.0071 49.1453 56.8398 46.8447Z" fill="#2866A3"/>
<path fill-rule="evenodd" clip-rule="evenodd" d="M32.3941 0.968675C34.7428 0.864373 37.0948 1.0827 39.3828 1.61743C41.7438 2.15418 44.1521 2.84029 46.2534 4.09114C47.2875 4.81458 48.4066 5.6127 48.8316 6.84955C49.1858 7.78302 48.7938 8.84251 48.213 9.62196C47.1836 10.9895 45.7198 11.9556 44.2937 12.8891C41.7013 11.7036 39.1325 10.4574 36.6582 9.05254C34.8967 8.0866 33.2263 6.96662 31.667 5.70604C30.77 5.02672 30.055 4.14054 29.5845 3.12499C30.5809 2.49957 31.667 1.93016 32.3941 0.987349V0.968675ZM4.92598 16.805C3.1808 18.2651 1.7377 20.0449 0.67613 22.0465C0.203925 23.624 -0.320223 25.3743 0.321976 26.9845C1.11528 29.0008 2.86716 30.4244 4.57182 31.6892L4.66154 31.6332C8.56196 28.9588 12.9251 27.0032 17.2128 25.0149C21.7601 22.9473 26.4066 21.099 31.0106 19.1574C26.8646 17.4024 22.6856 15.6895 18.7569 13.4865C17.2623 12.6619 15.8586 11.6858 14.5684 10.5741C11.1685 12.343 7.81587 14.28 4.92598 16.805ZM47.3206 37.192C50.7913 35.5585 54.2667 33.8782 57.4163 31.6892C58.8102 32.5854 60.0252 33.7278 61.0003 35.0591C61.8 36.1466 62.1388 37.4996 61.9448 38.8303C61.8138 39.7299 61.594 40.6147 61.2884 41.472C60.1768 43.534 58.6653 45.3594 56.8402 46.8441C54.0164 49.1429 50.9366 51.116 47.6605 52.725L47.4386 52.809C45.6631 51.1568 43.5146 49.9713 41.3755 48.8558C38.0134 47.1335 34.5191 45.6913 31.0484 44.2117L31.2089 44.1324C36.6062 41.8641 42.0696 39.6891 47.3442 37.192H47.3206ZM13.794 53.7565C13.4682 54.1438 13.2438 54.6044 13.1409 55.0977C13.038 55.591 13.0595 56.1018 13.2037 56.5849C13.6759 57.8498 14.8612 58.6619 15.952 59.3853C18.313 60.7202 20.9904 61.4296 23.6442 61.9477C25.6132 62.3443 27.625 62.4933 29.6318 62.3911C30.3589 61.4576 31.445 60.8835 32.4367 60.2675C32.0278 59.3364 31.3957 58.5178 30.5951 57.8824C29.3175 56.8042 27.9477 55.8375 26.501 54.9933C23.6604 53.3347 20.7299 51.8311 17.7227 50.4893C16.2872 51.4182 14.814 52.3796 13.7893 53.7565H13.794Z" fill="#DD862E"/>
</svg>
