<svg width="280" height="281" viewBox="0 0 280 281" fill="none" xmlns="http://www.w3.org/2000/svg">
<path d="M280 100.625C280 76.7812 230.628 65.8 208.206 62.0375C207.746 59.6196 207.117 57.2367 206.325 54.9062C191.384 14.3719 175.416 0 166.25 0C159.141 0 153.913 6.3 149.297 11.8344C146.278 15.4875 142.516 20.0156 140 20.0156C137.484 20.0156 133.722 15.4875 130.703 11.8562C126.088 6.3 120.838 0 113.75 0C103.491 0 87.5 22.5094 74.6594 54.6875C73.8086 56.9988 73.1214 59.3672 72.6031 61.775C50.5094 65.4719 0 76.4531 0 100.625C0 118.125 29.2469 134.334 70.875 143.106L71.5969 151.637C47.8844 163.909 9.16563 190.072 7.48125 191.231C6.78905 191.686 6.24015 192.328 5.89836 193.082C5.55658 193.837 5.43596 194.673 5.55052 195.493C5.66508 196.313 6.01012 197.084 6.54552 197.716C7.08092 198.348 7.78469 198.815 8.575 199.062L20.2125 202.803C6.5625 211.531 0 223.278 0 238.437V275.625C0 276.785 0.460936 277.898 1.28141 278.719C2.10188 279.539 3.21468 280 4.375 280C5.53532 280 6.64812 279.539 7.46859 278.719C8.28906 277.898 8.75 276.785 8.75 275.625V238.437C8.75 223.978 15.8375 214.025 31.6313 206.347L34.125 207.112C39.335 208.625 44.4066 210.579 49.2844 212.953L30.625 225.925C30.1234 226.274 29.7005 226.724 29.3833 227.246C29.0661 227.768 28.8618 228.35 28.7835 228.956C28.7052 229.562 28.7547 230.178 28.9286 230.763C29.1026 231.349 29.3973 231.891 29.7937 232.356L68.95 278.469C69.7432 279.169 70.7632 279.558 71.8211 279.564C72.8791 279.569 73.9033 279.192 74.7041 278.5C75.5049 277.809 76.0281 276.851 76.1767 275.803C76.3253 274.756 76.0894 273.69 75.5125 272.803L39.5062 230.366L59.6313 216.453C60.1471 216.098 60.5807 215.637 60.9029 215.1C61.225 214.563 61.4282 213.963 61.4988 213.341C61.5693 212.719 61.5054 212.089 61.3116 211.494C61.1177 210.899 60.7983 210.352 60.375 209.891C59.5438 208.994 54.5344 204.203 36.6844 198.734C31.4125 197.116 24.9813 195.081 19.8844 193.441C31.8281 185.544 55.4969 170.209 72.5156 161.022C74.2219 177.012 75.2937 178.259 76.2781 179.375C81.1379 184.926 86.4659 190.049 92.2031 194.687L106.159 276.259C106.336 277.287 106.875 278.217 107.677 278.883C108.479 279.548 109.492 279.906 110.534 279.891H111.278C112.421 279.693 113.438 279.05 114.107 278.102C114.775 277.155 115.04 275.98 114.844 274.837L102.353 202.278C115.631 211.028 129.391 216.672 139.869 216.672C150.806 216.672 164.697 211.487 177.822 203.197L165.244 274.859C165.142 275.426 165.153 276.008 165.277 276.571C165.4 277.133 165.634 277.666 165.964 278.138C166.294 278.611 166.714 279.013 167.199 279.323C167.685 279.632 168.228 279.843 168.795 279.942C169.363 280.042 169.944 280.028 170.506 279.902C171.069 279.776 171.6 279.54 172.071 279.208C172.542 278.876 172.943 278.454 173.25 277.967C173.557 277.48 173.766 276.937 173.863 276.369L187.972 196.022C193.578 191.635 198.756 186.728 203.438 181.366C204.422 180.228 205.297 179.178 207.025 161.066C224.109 170.253 247.997 185.587 260.05 193.462C254.975 195.081 248.566 197.116 243.316 198.734C225.466 204.203 220.456 208.994 219.625 209.891C219.202 210.352 218.882 210.899 218.688 211.494C218.495 212.089 218.431 212.719 218.501 213.341C218.572 213.963 218.775 214.563 219.097 215.1C219.419 215.637 219.853 216.098 220.369 216.453L240.494 230.366L204.378 272.781C203.91 273.194 203.536 273.703 203.28 274.273C203.025 274.843 202.895 275.461 202.898 276.085C202.902 276.71 203.039 277.326 203.3 277.893C203.562 278.46 203.942 278.965 204.414 279.373C204.887 279.781 205.441 280.083 206.041 280.259C206.64 280.435 207.27 280.481 207.888 280.393C208.506 280.305 209.098 280.086 209.625 279.75C210.152 279.415 210.6 278.97 210.941 278.447L250.184 232.334C250.581 231.87 250.875 231.327 251.049 230.741C251.223 230.156 251.273 229.54 251.195 228.934C251.116 228.329 250.912 227.746 250.595 227.224C250.278 226.702 249.855 226.252 249.353 225.903L230.628 212.953C235.505 210.576 240.577 208.622 245.788 207.112L248.281 206.347C264.163 214.025 271.25 223.978 271.25 238.437V275.625C271.25 276.785 271.711 277.898 272.531 278.719C273.352 279.539 274.465 280 275.625 280C276.785 280 277.898 279.539 278.719 278.719C279.539 277.898 280 276.785 280 275.625V238.437C280 223.278 273.438 211.531 259.788 202.759L271.425 199.062C272.203 198.806 272.894 198.337 273.418 197.708C273.943 197.079 274.28 196.315 274.392 195.503C274.503 194.692 274.385 193.865 274.05 193.118C273.715 192.37 273.177 191.732 272.497 191.275C270.769 190.116 231.612 163.953 207.856 151.681C208.075 149.129 208.301 146.329 208.534 143.281C250.491 134.466 280 118.256 280 100.625ZM77.7219 83.6281C89.6875 91.875 115.084 96.25 140.263 96.25C165.441 96.25 190.575 92.0062 202.628 83.7812C203.284 89.4469 203.766 94.7187 204.028 97.8687C203.831 103.119 181.256 113.312 140 113.312C98.7438 113.312 76.2562 103.162 75.9719 97.8687C76.3219 94.5875 76.9344 89.3375 77.7219 83.6281ZM113.75 8.75C116.747 8.75 120.597 13.3656 123.988 17.5C128.603 23.0125 133.438 28.7656 140 28.7656C146.562 28.7656 151.397 23.0125 156.034 17.5C159.425 13.4312 163.253 8.75 166.272 8.75C169.291 8.75 183.269 17.5 198.1 57.8812C199.571 62.7335 200.625 67.7026 201.25 72.7344C200.747 77.8312 179.375 87.5 140.263 87.5C101.653 87.5 80.2375 78.0719 79.3625 72.9312C80.0762 67.8688 81.2252 62.8774 82.7969 58.0125C97.0375 21.875 110.534 9.29687 113.75 8.75ZM8.75 100.625C8.75 91.2187 27.9781 78.5969 70.7875 71.0937V71.5312C70.7333 71.7541 70.6968 71.9808 70.6781 72.2094C68.7094 83.9781 67.3969 96.5562 67.3094 97.3875V98.35C68.0312 113.881 104.234 122.062 140 122.062C175.766 122.062 211.881 113.903 212.756 98.4375V97.4969C212.756 96.6437 211.575 83.3 209.781 71.2469C252.197 78.6406 271.25 91.1969 271.25 100.625C271.25 116.834 218.903 141.356 140 141.356C61.0969 141.356 8.75 116.769 8.75 100.625ZM196.35 176.203C180.644 194.031 155.969 207.922 139.869 207.922C124.556 207.922 99.9031 193.112 83.2781 174.103C82.8844 172.812 81.7031 167.278 79.8219 144.834C99.6912 148.32 119.827 150.062 140 150.041C159.994 150.073 179.952 148.375 199.653 144.966C197.75 168.437 196.744 174.584 196.35 176.203Z" fill="url(#paint0_linear_598_480)"/>
<defs>
<linearGradient id="paint0_linear_598_480" x1="104.5" y1="-8" x2="140" y2="280.436" gradientUnits="userSpaceOnUse">
<stop stop-color="#D3BC80"/>
<stop offset="1" stop-color="#D3BC80" stop-opacity="0.86"/>
</linearGradient>
</defs>
</svg>
