<svg width="526" height="94" viewBox="0 0 526 94" fill="none" xmlns="http://www.w3.org/2000/svg">
<mask id="path-1-outside-1_445_4602" maskUnits="userSpaceOnUse" x="-1" y="-1" width="528" height="96" fill="black">
<rect fill="white" x="-1" y="-1" width="528" height="96"/>
<path d="M81.368 92L81.24 44.512L58.2 83.168H46.936L23.896 45.536V92H0.6V2.39999H21.464L52.952 54.112L83.672 2.39999H104.536L104.792 92H81.368ZM222.666 72.416V92H150.73V2.39999H221.002V21.984H175.818V37.088H215.626V56.032H175.818V72.416H222.666ZM349.233 2.39999V92H323.889V57.056H289.329V92H263.985V2.39999H289.329V36.064H323.889V2.39999H349.233ZM477.157 0.607994C486.288 0.607994 494.522 2.61333 501.861 6.62399C509.2 10.6347 514.96 16.1813 519.141 23.264C523.322 30.3467 525.413 38.3253 525.413 47.2C525.413 56.0747 523.322 64.0533 519.141 71.136C514.96 78.2187 509.2 83.7653 501.861 87.776C494.522 91.7867 486.288 93.792 477.157 93.792C469.136 93.792 461.754 92.256 455.013 89.184C448.357 86.112 442.81 81.8027 438.373 76.256C434.021 70.7093 431.12 64.352 429.669 57.184H420.325V92H395.365V2.39999H420.325V35.936H429.925C431.546 28.9387 434.576 22.7947 439.013 17.504C443.45 12.128 448.954 7.98933 455.525 5.088C462.096 2.10133 469.306 0.607994 477.157 0.607994ZM477.157 72.8C481.424 72.8 485.264 71.7333 488.677 69.6C492.09 67.4667 494.778 64.48 496.741 60.64C498.789 56.8 499.813 52.32 499.813 47.2C499.813 42.08 498.789 37.6 496.741 33.76C494.778 29.92 492.09 26.9333 488.677 24.8C485.264 22.6667 481.424 21.6 477.157 21.6C472.89 21.6 469.008 22.6667 465.509 24.8C462.096 26.848 459.365 29.8347 457.317 33.76C455.354 37.6 454.373 42.08 454.373 47.2C454.373 52.32 455.354 56.8427 457.317 60.768C459.365 64.608 462.096 67.5947 465.509 69.728C469.008 71.776 472.89 72.8 477.157 72.8Z"/>
</mask>
<path d="M81.368 92L80.368 92.0027L80.3707 93H81.368V92ZM81.24 44.512L82.24 44.5093L82.2303 40.8974L80.381 44L81.24 44.512ZM58.2 83.168V84.168H58.7681L59.059 83.68L58.2 83.168ZM46.936 83.168L46.0831 83.6902L46.3757 84.168H46.936V83.168ZM23.896 45.536L24.7489 45.0138L22.896 41.9875V45.536H23.896ZM23.896 92V93H24.896V92H23.896ZM0.6 92H-0.4V93H0.6V92ZM0.6 2.39999V1.39999H-0.4V2.39999H0.6ZM21.464 2.39999L22.3181 1.87991L22.0259 1.39999H21.464V2.39999ZM52.952 54.112L52.0979 54.6321L52.9626 56.0522L53.8117 54.6227L52.952 54.112ZM83.672 2.39999V1.39999H83.1029L82.8123 1.88926L83.672 2.39999ZM104.536 2.39999L105.536 2.39714L105.533 1.39999H104.536V2.39999ZM104.792 92V93H105.795L105.792 91.9971L104.792 92ZM82.368 91.9973L82.24 44.5093L80.24 44.5147L80.368 92.0027L82.368 91.9973ZM80.381 44L57.341 82.656L59.059 83.68L82.099 45.024L80.381 44ZM58.2 82.168H46.936V84.168H58.2V82.168ZM47.7889 82.6458L24.7489 45.0138L23.0431 46.0582L46.0831 83.6902L47.7889 82.6458ZM22.896 45.536V92H24.896V45.536H22.896ZM23.896 91H0.6V93H23.896V91ZM1.6 92V2.39999H-0.4V92H1.6ZM0.6 3.39999H21.464V1.39999H0.6V3.39999ZM20.6099 2.92007L52.0979 54.6321L53.8061 53.5919L22.3181 1.87991L20.6099 2.92007ZM53.8117 54.6227L84.5317 2.91073L82.8123 1.88926L52.0923 53.6013L53.8117 54.6227ZM83.672 3.39999H104.536V1.39999H83.672V3.39999ZM103.536 2.40285L103.792 92.0029L105.792 91.9971L105.536 2.39714L103.536 2.40285ZM104.792 91H81.368V93H104.792V91ZM222.666 72.416H223.666V71.416H222.666V72.416ZM222.666 92V93H223.666V92H222.666ZM150.73 92H149.73V93H150.73V92ZM150.73 2.39999V1.39999H149.73V2.39999H150.73ZM221.002 2.39999H222.002V1.39999H221.002V2.39999ZM221.002 21.984V22.984H222.002V21.984H221.002ZM175.818 21.984V20.984H174.818V21.984H175.818ZM175.818 37.088H174.818V38.088H175.818V37.088ZM215.626 37.088H216.626V36.088H215.626V37.088ZM215.626 56.032V57.032H216.626V56.032H215.626ZM175.818 56.032V55.032H174.818V56.032H175.818ZM175.818 72.416H174.818V73.416H175.818V72.416ZM221.666 72.416V92H223.666V72.416H221.666ZM222.666 91H150.73V93H222.666V91ZM151.73 92V2.39999H149.73V92H151.73ZM150.73 3.39999H221.002V1.39999H150.73V3.39999ZM220.002 2.39999V21.984H222.002V2.39999H220.002ZM221.002 20.984H175.818V22.984H221.002V20.984ZM174.818 21.984V37.088H176.818V21.984H174.818ZM175.818 38.088H215.626V36.088H175.818V38.088ZM214.626 37.088V56.032H216.626V37.088H214.626ZM215.626 55.032H175.818V57.032H215.626V55.032ZM174.818 56.032V72.416H176.818V56.032H174.818ZM175.818 73.416H222.666V71.416H175.818V73.416ZM349.233 2.39999H350.233V1.39999H349.233V2.39999ZM349.233 92V93H350.233V92H349.233ZM323.889 92H322.889V93H323.889V92ZM323.889 57.056H324.889V56.056H323.889V57.056ZM289.329 57.056V56.056H288.329V57.056H289.329ZM289.329 92V93H290.329V92H289.329ZM263.985 92H262.985V93H263.985V92ZM263.985 2.39999V1.39999H262.985V2.39999H263.985ZM289.329 2.39999H290.329V1.39999H289.329V2.39999ZM289.329 36.064H288.329V37.064H289.329V36.064ZM323.889 36.064V37.064H324.889V36.064H323.889ZM323.889 2.39999V1.39999H322.889V2.39999H323.889ZM348.233 2.39999V92H350.233V2.39999H348.233ZM349.233 91H323.889V93H349.233V91ZM324.889 92V57.056H322.889V92H324.889ZM323.889 56.056H289.329V58.056H323.889V56.056ZM288.329 57.056V92H290.329V57.056H288.329ZM289.329 91H263.985V93H289.329V91ZM264.985 92V2.39999H262.985V92H264.985ZM263.985 3.39999H289.329V1.39999H263.985V3.39999ZM288.329 2.39999V36.064H290.329V2.39999H288.329ZM289.329 37.064H323.889V35.064H289.329V37.064ZM324.889 36.064V2.39999H322.889V36.064H324.889ZM323.889 3.39999H349.233V1.39999H323.889V3.39999ZM501.861 6.62399L502.341 5.74649L501.861 6.62399ZM519.141 23.264L518.28 23.7724L519.141 23.264ZM519.141 71.136L520.002 71.6444L519.141 71.136ZM501.861 87.776L502.341 88.6535L501.861 87.776ZM455.013 89.184L454.594 90.092L454.598 90.094L455.013 89.184ZM438.373 76.256L437.586 76.8733L437.592 76.8807L438.373 76.256ZM429.669 57.184L430.649 56.9856L430.487 56.184H429.669V57.184ZM420.325 57.184V56.184H419.325V57.184H420.325ZM420.325 92V93H421.325V92H420.325ZM395.365 92H394.365V93H395.365V92ZM395.365 2.39999V1.39999H394.365V2.39999H395.365ZM420.325 2.39999H421.325V1.39999H420.325V2.39999ZM420.325 35.936H419.325V36.936H420.325V35.936ZM429.925 35.936V36.936H430.72L430.899 36.1617L429.925 35.936ZM439.013 17.504L439.779 18.1466L439.784 18.1406L439.013 17.504ZM455.525 5.088L455.929 6.00284L455.939 5.99836L455.525 5.088ZM488.677 69.6L488.147 68.752H488.147L488.677 69.6ZM496.741 60.64L495.859 60.1694L495.855 60.1771L495.851 60.1849L496.741 60.64ZM496.741 33.76L495.851 34.2151L495.855 34.2229L495.859 34.2306L496.741 33.76ZM488.677 24.8L489.207 23.952L488.677 24.8ZM465.509 24.8L466.023 25.6575L466.03 25.6538L465.509 24.8ZM457.317 33.76L456.43 33.2974L456.427 33.3049L457.317 33.76ZM457.317 60.768L456.423 61.2152L456.428 61.227L456.435 61.2386L457.317 60.768ZM465.509 69.728L464.979 70.576L464.991 70.5837L465.004 70.591L465.509 69.728ZM477.157 1.60799C486.136 1.60799 494.203 3.57844 501.381 7.5015L502.341 5.74649C494.842 1.64822 486.439 -0.392006 477.157 -0.392006V1.60799ZM501.381 7.5015C508.565 11.4273 514.192 16.8476 518.28 23.7724L520.002 22.7556C515.728 15.5151 509.835 9.84204 502.341 5.74649L501.381 7.5015ZM518.28 23.7724C522.363 30.6889 524.413 38.4895 524.413 47.2H526.413C526.413 38.1611 524.282 30.0044 520.002 22.7556L518.28 23.7724ZM524.413 47.2C524.413 55.9105 522.363 63.7111 518.28 70.6276L520.002 71.6444C524.282 64.3956 526.413 56.2389 526.413 47.2H524.413ZM518.28 70.6276C514.192 77.5524 508.565 82.9727 501.381 86.8985L502.341 88.6535C509.835 84.558 515.728 78.8849 520.002 71.6444L518.28 70.6276ZM501.381 86.8985C494.203 90.8215 486.136 92.792 477.157 92.792V94.792C486.439 94.792 494.842 92.7518 502.341 88.6535L501.381 86.8985ZM477.157 92.792C469.267 92.792 462.028 91.2819 455.428 88.274L454.598 90.094C461.48 93.2301 469.005 94.792 477.157 94.792V92.792ZM455.432 88.276C448.912 85.2669 443.491 81.0528 439.154 75.6313L437.592 76.8807C442.13 82.5525 447.802 86.9571 454.594 90.092L455.432 88.276ZM439.16 75.6387C434.908 70.2193 432.07 64.0067 430.649 56.9856L428.689 57.3824C430.169 64.6973 433.134 71.1993 437.586 76.8733L439.16 75.6387ZM429.669 56.184H420.325V58.184H429.669V56.184ZM419.325 57.184V92H421.325V57.184H419.325ZM420.325 91H395.365V93H420.325V91ZM396.365 92V2.39999H394.365V92H396.365ZM395.365 3.39999H420.325V1.39999H395.365V3.39999ZM419.325 2.39999V35.936H421.325V2.39999H419.325ZM420.325 36.936H429.925V34.936H420.325V36.936ZM430.899 36.1617C432.486 29.3114 435.447 23.3117 439.779 18.1466L438.247 16.8614C433.704 22.2776 430.606 28.5659 428.951 35.7103L430.899 36.1617ZM439.784 18.1406C444.119 12.8883 449.496 8.84321 455.929 6.00278L455.121 4.17321C448.412 7.13545 442.781 11.3676 438.242 16.8674L439.784 18.1406ZM455.939 5.99836C462.368 3.07579 469.436 1.60799 477.157 1.60799V-0.392006C469.176 -0.392006 461.823 1.12686 455.111 4.17763L455.939 5.99836ZM477.157 73.8C481.599 73.8 485.625 72.6867 489.207 70.448L488.147 68.752C484.902 70.78 481.248 71.8 477.157 71.8V73.8ZM489.207 70.448C492.785 68.2119 495.592 65.0843 497.631 61.0951L495.851 60.1849C493.964 63.8757 491.396 66.7215 488.147 68.752L489.207 70.448ZM497.623 61.1106C499.761 57.1022 500.813 52.4552 500.813 47.2H498.813C498.813 52.1848 497.817 56.4978 495.859 60.1694L497.623 61.1106ZM500.813 47.2C500.813 41.9448 499.761 37.2978 497.623 33.2894L495.859 34.2306C497.817 37.9022 498.813 42.2152 498.813 47.2H500.813ZM497.631 33.3049C495.592 29.3157 492.785 26.1881 489.207 23.952L488.147 25.648C491.396 27.6785 493.964 30.5243 495.851 34.2151L497.631 33.3049ZM489.207 23.952C485.625 21.7133 481.599 20.6 477.157 20.6V22.6C481.248 22.6 484.902 23.62 488.147 25.648L489.207 23.952ZM477.157 20.6C472.715 20.6 468.651 21.7132 464.988 23.9462L466.03 25.6538C469.365 23.6201 473.066 22.6 477.157 22.6V20.6ZM464.995 23.9425C461.406 26.0957 458.554 29.2276 456.43 33.2974L458.204 34.2226C460.176 30.4418 462.786 27.6003 466.023 25.6575L464.995 23.9425ZM456.427 33.3049C454.38 37.3099 453.373 41.9512 453.373 47.2H455.373C455.373 42.2088 456.329 37.8901 458.207 34.2151L456.427 33.3049ZM453.373 47.2C453.373 52.4494 454.38 57.1296 456.423 61.2152L458.211 60.3208C456.329 56.5557 455.373 52.1906 455.373 47.2H453.373ZM456.435 61.2386C458.558 65.2201 461.405 68.3424 464.979 70.576L466.039 68.88C462.786 66.8469 460.172 63.9959 458.199 60.2974L456.435 61.2386ZM465.004 70.591C468.664 72.7335 472.722 73.8 477.157 73.8V71.8C473.058 71.8 469.351 70.8185 466.014 68.865L465.004 70.591Z" fill="#D3BC80" mask="url(#path-1-outside-1_445_4602)"/>
</svg>
