<?xml version="1.0" encoding="utf-8"?><svg viewBox="0 0 502.66 502.66" xmlns="http://www.w3.org/2000/svg" xmlns:xlink="http://www.w3.org/1999/xlink"><style>:root>svg{display:none}:root>svg:target{display:block}</style><svg viewBox="0 0 502.664 502.664" id="icon" xmlns="http://www.w3.org/2000/svg"><path d="M153.821 358.226L0 274.337v-46.463l153.821-83.414v54.574L46.636 250.523l107.185 53.431v54.272zm26.273 29.358L282.103 115.08h32.227L212.084 387.584h-31.99zm168.749-29.358v-54.272l107.164-52.999-107.164-52.59v-53.927l153.821 83.522v46.183l-153.821 84.083z"/></svg><svg viewBox="0 0 47 44" id="inkognito-icon" xmlns="http://www.w3.org/2000/svg"><path d="M38.26 36.993a.823.823 0 00.812.575.817.817 0 00.767-.634l1.422-6.42a.832.832 0 00-.627-.98.82.82 0 00-.982.62l-.69 3.117a7.219 7.219 0 00-3.106-3.004 7.17 7.17 0 00-8.138 1.197 7.248 7.248 0 00-2.118 3.772 5.332 5.332 0 00-5.065 0 7.253 7.253 0 00-2.12-3.77 7.175 7.175 0 00-8.137-1.201 7.223 7.223 0 00-3.108 2.998l-.676-3.05a.828.828 0 00-.98-.614.832.832 0 00-.629.973l1.396 6.3c.469 9.282 13.58 9.518 14.396.285a3.639 3.639 0 014.782.002 7.261 7.261 0 001.667 4.246 7.2 7.2 0 003.864 2.4c1.512.36 3.099.22 4.524-.4a7.217 7.217 0 003.387-3.042.832.832 0 00-.305-1.131.82.82 0 00-1.125.307c-2.812 4.915-10.38 2.895-10.385-2.786.356-7.566 11.019-7.327 11.173.24zm-24.774 5.352a5.554 5.554 0 01-3.931-1.64 5.611 5.611 0 01-1.632-3.95c.26-7.402 10.866-7.399 11.126 0a5.611 5.611 0 01-1.631 3.95 5.554 5.554 0 01-3.932 1.64zm27.699-26.991a28.697 28.697 0 00-3.751-1.166c-1.082-2.704-2.614-6.653-4.57-11.782A3.745 3.745 0 0030.565.21a3.708 3.708 0 00-3.15.38l-3.199 2.016a2.118 2.118 0 01-2.204.004L18.757.555a3.73 3.73 0 00-5.422 1.786L7.599 16.75a.832.832 0 00.46 1.071.82.82 0 001.07-.454l5.735-14.411a2.083 2.083 0 011.277-1.206 2.062 2.062 0 011.74.208l3.261 2.058a3.78 3.78 0 003.943-.004l3.203-2.019a2.07 2.07 0 013.04 1.01c2.05 5.378 4.95 12.722 4.95 12.722.497.873.525 2.462 1.768 2.097.75-.336.476-1.133.175-1.715 2.225.524 6.48 2.396 6.277 3.958 0 2.717-9.163 5.756-21.425 5.756s-21.425-3.04-21.425-5.756c0-1.026 1.403-2.173 3.847-3.147a.826.826 0 00.462-1.075.826.826 0 00-1.07-.465C.85 16.988 0 18.816 0 20.065c0 4.815 11.888 7.413 23.073 7.413 11.186 0 23.073-2.598 23.073-7.413 0-1.264-.862-3.107-4.961-4.711z"/></svg><svg viewBox="0 0 41 44" id="people-icon" xmlns="http://www.w3.org/2000/svg"><path d="M20.48 23.087A11.544 11.544 0 108.938 11.544a11.557 11.557 0 0011.544 11.543zm0-20.853a9.31 9.31 0 11-9.309 9.31 9.32 9.32 0 019.31-9.31zm20.481 40.59A17.521 17.521 0 0023.46 25.321h-5.958A17.493 17.493 0 000 42.823v1.117h40.961v-1.117zM2.274 41.705a15.259 15.259 0 0115.228-14.15h5.958a15.287 15.287 0 0115.227 14.15H2.274z"/></svg><svg viewBox="0 0 44 44" id="planet-icon" xmlns="http://www.w3.org/2000/svg"><path d="M22.008 0A21.995 21.995 0 001.785 13.34l-.275.092.107.319c-4.562 11.253.86 24.075 12.112 28.638A21.98 21.98 0 0022 44c12.15.002 21.998-9.846 22-21.997C44.002 9.853 34.156.002 22.008 0zM39.26 33.092l-1.13-1.129v-2.63a.734.734 0 00-.073-.327l-2.86-5.712v-2.76a.733.733 0 00-.326-.61l-2.2-1.468a.735.735 0 00-.586-.1l-2.694.672-4.524-1.941-.622-4.362L25.97 11h3.703l1.246 1.874a.734.734 0 00.49.316l4.4.733c.117.02.238.01.351-.028l4.052-1.35a20.463 20.463 0 01-.952 20.547zM36.237 7.226l-1.192.795-3.324-.665-2.156-.718a.72.72 0 00-.41-.016l-2.725.681-1.195-.398.885-1.772h2.48a.733.733 0 00.328-.077l2.536-1.268a20.605 20.605 0 014.773 3.438zM13.97 3.104l1.76 1.174a.732.732 0 00.286.112l3.553.593-.347 1.038-1.851.618a.734.734 0 00-.397.317l-2.105 3.51-3.382 2.03-4.986.712a.733.733 0 00-.63.725v2.2c0 .195.077.381.214.519l1.252 1.252v1.26l-3.05-2.035-1.107-3.32A20.65 20.65 0 0113.97 3.104zm-2.088 24.044l-3.314-.664-1.231-2.457v-1.723l2.731-2.733 1.012 2.023a.733.733 0 00.656.406h4.717l1.986 3.311a.734.734 0 00.629.356h2.038l-.513 2.571-2.776 2.777a.732.732 0 00-.216.518v1.834l-2.64 1.98a.734.734 0 00-.293.586v2.65l-.912-.303-1.287-3.22v-7.193a.733.733 0 00-.587-.719zM9.68 38.421a20.53 20.53 0 01-7.312-22.417l.61 1.828a.733.733 0 00.288.378l3.655 2.437-.834.835a.733.733 0 00-.215.518v2.2c0 .114.027.226.077.328l1.467 2.933a.733.733 0 00.513.391l3.08.615V35.2c0 .093.017.185.051.272l1.467 3.667a.733.733 0 00.45.423l2.199.733a.72.72 0 00.746-.177.733.733 0 00.215-.518v-3.3l2.64-1.98a.734.734 0 00.293-.587v-1.896l2.718-2.718a.734.734 0 00.2-.375l.733-3.667A.732.732 0 0022 24.2h-2.518l-1.986-3.311a.734.734 0 00-.628-.356h-4.68l-1.259-2.527a.734.734 0 00-1.174-.191l-.952.948V17.6a.733.733 0 00-.215-.519l-1.25-1.251v-1.26l4.503-.644a.736.736 0 00.273-.098l3.666-2.2a.733.733 0 00.251-.25l2.06-3.435 1.942-.648a.726.726 0 00.464-.463l.733-2.2a.733.733 0 00-.575-.954l-4.244-.707-.745-.497a20.469 20.469 0 0114.1.524l-1.34.669h-2.759a.733.733 0 00-.66.405l-1.466 2.934a.732.732 0 00.424 1.023l2.2.733a.72.72 0 00.41.016l2.725-.681 1.997.665c.029.01.058.018.088.023l3.666.734a.727.727 0 00.55-.109l1.67-1.113c.82.915 1.559 1.901 2.205 2.947l-3.607 1.203-3.906-.651-1.29-1.936a.733.733 0 00-.607-.327h-4.399a.733.733 0 00-.518.215l-2.2 2.2a.732.732 0 00-.207.623l.733 5.133a.732.732 0 00.44.57l5.132 2.2a.724.724 0 00.466.037l2.619-.654 1.6 1.069v2.54a.732.732 0 00.074.328l2.859 5.712v2.76c0 .195.077.382.215.52l1.533 1.534c-6.802 9.069-19.667 10.905-28.734 4.101z"/></svg><svg viewBox="0 0 38 38" id="tg-icon" xmlns="http://www.w3.org/2000/svg"><path class="esocial__border" d="M3.356 3.407h30.687v30.687H3.356z"/><path class="esocial__border" d="M3.856 3.907h29.687v29.687H3.856z"/><path d="M26.079 13.184L16.64 20.9l-.444.363a.48.48 0 00-.177.313l-.1.82-.272 2.306a.106.106 0 01-.174.09.106.106 0 01-.038-.071l-.767-2.305-.793-2.358a.474.474 0 01.228-.563l9.82-5.629 1.848-1.057c.269-.156.544.182.307.377z"/><path d="M14.359 19.925l8.985-5.15-7.019 5.737-.442.361a.98.98 0 00-.359.636v.006l-.1.82v.002l-.067.563-.214-.643v-.002l-.784-2.33z"/><path d="M32.142 0H5.075A5.075 5.075 0 000 5.075v27.067a5.075 5.075 0 005.075 5.075h27.067a5.075 5.075 0 005.075-5.075V5.075A5.075 5.075 0 0032.142 0zm-1.927 10.772l-3.632 16.052c-.172.752-1.127 1.093-1.798.634L19.3 23.736l-2.793 2.642a.961.961 0 01-1.548-.343l-1.009-2.96-1.009-2.96-5.407-1.481a.702.702 0 01-.061-1.356l20.888-7.525.385-.138c.81-.283 1.647.372 1.47 1.157z"/><path d="M27.07 26.935v-.001l3.633-16.052c.138-.607-.125-1.154-.543-1.482a1.664 1.664 0 00-1.58-.257l-.002.001-.385.138h-.002l-20.88 7.523a1.202 1.202 0 00-.546 1.918l.382-.322-.382.322c.168.199.395.338.648.396l5.14 1.407.924 2.71 1.008 2.96.005.013.005.012c.088.22.229.416.41.57l.324-.381-.324.38a1.459 1.459 0 001.944-.048l.001-.001 2.502-2.365 5.15 3.495h.002c.928.635 2.308.198 2.566-.936zM5.075.5h27.067a4.575 4.575 0 014.575 4.575v27.067a4.575 4.575 0 01-4.575 4.575H5.075A4.575 4.575 0 01.5 32.142V5.075A4.575 4.575 0 015.075.5z"/></svg><svg viewBox="0 0 38 38" id="wh-icon" xmlns="http://www.w3.org/2000/svg"><path d="M32.925 0H5.858A5.075 5.075 0 00.783 5.075v27.067a5.075 5.075 0 005.075 5.075h27.067A5.075 5.075 0 0038 32.142V5.075A5.075 5.075 0 0032.925 0z"/><path d="M5.858.5h27.067A4.575 4.575 0 0137.5 5.075v27.067a4.575 4.575 0 01-4.575 4.575H5.858a4.575 4.575 0 01-4.575-4.575V5.075A4.575 4.575 0 015.858.5z"/><path d="M27.596 10.404a11.54 11.54 0 00-18.485 13.35l-1.225 5.943a.44.44 0 00.07.345.446.446 0 00.474.184l5.825-1.38a11.537 11.537 0 0013.341-18.442zM25.78 24.9a9.038 9.038 0 01-10.408 1.692l-.812-.402-3.572.846.011-.044.74-3.595-.397-.785A9.034 9.034 0 1125.78 24.9z"/><path d="M9.6 23.854l.036-.171-.08-.156a11.04 11.04 0 0117.685-12.771 11.037 11.037 0 01-12.763 17.642l-.162-.081-.176.042-5.748 1.362L9.6 23.854zm16.533 1.402v-.001a9.533 9.533 0 00.05-13.432l-.014-.014-.013-.011-.01-.012-.012-.012a9.536 9.536 0 00-13.484 0 9.533 9.533 0 00-1.754 11.066l.318.628-.703 3.416-.009.037-.188.79.79-.187 3.396-.805.65.322a9.538 9.538 0 0010.983-1.785z"/><path d="M25.463 22.265c-.438.689-1.129 1.533-1.998 1.742-1.523.368-3.86.013-6.767-2.698l-.036-.032c-2.556-2.37-3.22-4.343-3.06-5.908.09-.888.83-1.692 1.453-2.216a.833.833 0 011.3.298l.942 2.115a.827.827 0 01-.104.845l-.476.618a.818.818 0 00-.074.913c.267.468.905 1.155 1.614 1.791.795.72 1.676 1.377 2.235 1.601a.808.808 0 00.886-.186l.552-.556a.846.846 0 01.824-.211l2.235.634a.846.846 0 01.474 1.25z"/><path d="M23.348 23.521c-1.314.317-3.485.055-6.309-2.578l-.01-.01-.031-.027C14.512 18.6 13.96 16.773 14.1 15.42v-.001c.032-.325.188-.664.433-1 .242-.335.551-.637.844-.883l.003-.003a.33.33 0 01.518.119v.002l.942 2.115a.327.327 0 01-.041.335l-.002.002-.473.614a1.318 1.318 0 00-.116 1.468v.002c.31.542 1 1.274 1.714 1.915.797.72 1.735 1.432 2.382 1.693a1.308 1.308 0 001.43-.3l.548-.552a.346.346 0 01.336-.084l2.229.632a.346.346 0 01.218.207l.467-.177-.467.177a.347.347 0 01-.027.3c-.206.324-.462.67-.759.954-.3.289-.614.49-.931.566z"/></svg></svg>